<?xml version="1.0" encoding="utf-8"?>
<!-- Generator: Adobe Illustrator 16.0.0, SVG Export Plug-In . SVG Version: 6.00 Build 0)  -->
<!DOCTYPE svg PUBLIC "-//W3C//DTD SVG 1.1//EN" "http://www.w3.org/Graphics/SVG/1.1/DTD/svg11.dtd">
<svg version="1.1" id="圖層_1" xmlns="http://www.w3.org/2000/svg" xmlns:xlink="http://www.w3.org/1999/xlink" x="0px" y="0px"
	 width="351px" height="61.5px" viewBox="0 0 351 61.5" enable-background="new 0 0 351 61.5" xml:space="preserve">
<g>
	<path fill="#FFFFFF" d="M23.612,18.211c0,0,0.048,0.02,0.146,0.059c0.097,0.04,0.205,0.059,0.322,0.059l0.586,0.586
		c0.352,0.352,0.507,0.606,0.469,0.762c-0.117,0.274-0.234,0.43-0.352,0.469h-0.117c-0.079,0-0.469-0.078-1.172-0.234
		c-0.626-0.195-1.388-0.293-2.285-0.293c-0.626,0-1.134,0.079-1.523,0.234c-0.352,0.157-0.762,0.45-1.23,0.879
		c-0.431,0.43-0.86,1.211-1.289,2.344l-0.586,1.172c-0.352,0.43-0.606,1.055-0.762,1.875c-0.86,2.891-1.388,4.493-1.582,4.805
		c-0.196,0.547-0.196,0.86,0,0.938c0.155,0.157,0.897,0.293,2.227,0.41c2.421,0.234,3.905,0.665,4.453,1.289
		c0.194,0.196,0.293,0.41,0.293,0.645c0,0.352-0.157,0.625-0.469,0.82c-0.117,0.117-0.392,0.176-0.82,0.176
		c-0.117,0-0.489-0.039-1.113-0.117c-0.899-0.156-1.875-0.234-2.93-0.234c-0.899,0-1.544,0.04-1.934,0.117
		c-0.274,0-0.469,0.059-0.586,0.176c-0.079,0-0.216,0.137-0.41,0.41l-1.172,4.746c-0.782,3.008-1.446,5.176-1.992,6.504
		c-0.431,1.055-0.645,1.562-0.645,1.523c-0.117,0.39-0.255,0.703-0.41,0.938c-0.274,0.429-0.469,0.781-0.586,1.055
		c-0.352,0.781-0.938,1.718-1.758,2.813c-0.548,0.742-1.017,1.055-1.406,0.938c-0.234-0.079-0.509-0.293-0.82-0.645
		c-0.313-0.43-0.469-0.918-0.469-1.465c0-0.508-0.021-0.84-0.059-0.996c0-0.117,0.009-0.215,0.029-0.293
		c0.019-0.079,0.067-0.117,0.146-0.117c0.194,0,0.312,0.117,0.352,0.352c0.117,0.312,0.234,0.469,0.352,0.469
		c0.077,0,0.293-0.293,0.645-0.879c0.155-0.313,0.322-0.674,0.498-1.084s0.381-0.85,0.615-1.318c0.312-0.625,0.645-1.465,0.996-2.52
		c0.429-1.289,0.829-2.675,1.201-4.16c0.37-1.484,0.692-2.89,0.967-4.219c0.155-0.742,0.194-1.23,0.117-1.465
		c0-0.117-0.079-0.176-0.234-0.176l-0.469,0.117c-0.274,0.117-0.527,0.176-0.762,0.176c-0.352,0-0.645,0.04-0.879,0.117
		c-0.352,0.117-0.958,0.176-1.816,0.176c-0.86,0-1.427-0.097-1.699-0.293c-0.469-0.39-0.586-0.82-0.352-1.289
		c0.352-0.938,2.362-1.66,6.035-2.168c0.624-0.078,1.015-0.214,1.172-0.41c0.194-0.117,0.331-0.41,0.41-0.879
		c0.117-0.859,0.565-2.304,1.348-4.336c0.78-2.07,1.718-3.926,2.813-5.566l0.469-0.82c0.155-0.39,0.645-0.957,1.465-1.699
		c0.703-0.664,1.289-1.074,1.758-1.23c0.272-0.117,0.645-0.176,1.113-0.176c0.155-0.039,0.39-0.059,0.703-0.059
		c1.015,0,1.952,0.313,2.813,0.938C23.554,18.192,23.612,18.211,23.612,18.211z"/>
	<path fill="#FFFFFF" d="M36.772,27.352c0.077-0.039,0.234-0.059,0.469-0.059c1.327,0,2.128,0.117,2.402,0.352
		c0.194,0.157,0.429,0.234,0.703,0.234c0.469,0,0.82,0.43,1.055,1.289l0.176,0.879l-0.703,1.465l-0.703,1.523
		c0,0.079-0.157,0.313-0.469,0.703c-0.392,0.43-0.606,0.782-0.645,1.055c-0.196,0.391-0.665,0.958-1.406,1.699
		c-0.743,0.86-1.113,1.387-1.113,1.582c0,0.313,0.645,0.684,1.934,1.113c1.055,0.313,2.344,0.469,3.867,0.469
		s2.52-0.039,2.988-0.117c0.429-0.117,0.703-0.097,0.82,0.059c0.038,0.04,0.059,0.157,0.059,0.352c0,0.313-0.04,0.567-0.117,0.762
		c-0.157,0.586-0.41,1.016-0.762,1.289c-0.392,0.274-1.075,0.508-2.051,0.703c-0.274,0.04-0.685,0.059-1.23,0.059
		c-1.095,0-2.13-0.136-3.105-0.41c-1.485-0.429-2.599-0.957-3.34-1.582c-0.665-0.625-1.153-0.781-1.465-0.469
		c-0.743,0.508-1.544,0.82-2.402,0.938h-0.234c-0.352,0-0.685-0.117-0.996-0.352L29.8,40.242c-0.04-0.039-0.059-0.097-0.059-0.176
		c0-0.273,0.331-0.586,0.996-0.938c0.39-0.156,0.839-0.469,1.348-0.938c0.39-0.273,0.624-0.546,0.703-0.82v-0.234
		c0-0.273-0.059-0.605-0.176-0.996c-0.157-0.429-0.234-1.152-0.234-2.168c0-1.015,0.077-1.738,0.234-2.168
		c0.703-1.914,1.718-3.223,3.047-3.926C36.128,27.606,36.498,27.43,36.772,27.352z M39.292,27.996
		c-0.157,0.04-0.372,0.234-0.645,0.586c-0.392,0.352-0.703,0.527-0.938,0.527c-0.274,0-0.548,0.196-0.82,0.586
		c-0.313,0.274-0.703,0.782-1.172,1.523c-0.469,0.743-0.724,1.192-0.762,1.348v0.352c0,0.469,0.019,0.84,0.059,1.113
		c0.038,0.586,0.097,0.918,0.176,0.996c0.077,0.079,0.39-0.156,0.938-0.703c0.703-0.703,1.23-1.269,1.582-1.699
		c0.858-1.015,1.308-1.542,1.348-1.582c0.858-0.976,1.289-1.679,1.289-2.109c0-0.273-0.117-0.488-0.352-0.645
		C39.682,28.094,39.447,27.996,39.292,27.996z"/>
	<path fill="#FFFFFF" d="M62.765,29.227c0.155-0.195,0.312-0.293,0.469-0.293c0.077,0,0.36,0.117,0.85,0.352
		c0.487,0.234,0.81,0.45,0.967,0.645c0.194,0.313,0.312,0.665,0.352,1.055c0,3.321,0.487,6.075,1.465,8.262
		c0.429,0.977,0.762,1.602,0.996,1.875l0.469,1.289c0.155,0.508,0.272,0.918,0.352,1.23c0.038,0.352-0.04,0.684-0.234,0.996
		c-0.274,0.117-0.703-0.019-1.289-0.41c-0.117-0.078-0.313-0.253-0.586-0.527c-0.586-0.781-1.251-2.031-1.992-3.75
		c-0.313-0.742-0.527-2.089-0.645-4.043c-0.079-0.078-0.196,0.04-0.352,0.352C63.428,36.609,63.213,37,62.94,37.43
		c-0.313,0.469-0.548,0.879-0.703,1.23c-0.234,0.547-0.743,1.23-1.523,2.051c-0.938,0.977-1.603,1.602-1.992,1.875
		c-0.626,0.43-1.192,0.645-1.699,0.645c-0.82,0-1.699-0.39-2.637-1.172c-0.586-0.469-0.978-0.938-1.172-1.406
		c-0.157-0.429-0.255-1.152-0.293-2.168V37.02l0.586-1.406c0.624-1.484,1.308-2.675,2.051-3.574c1.483-1.796,3.417-2.637,5.801-2.52
		C62.139,29.52,62.607,29.422,62.765,29.227z M61.358,30.867c-0.234,0-0.489,0.04-0.762,0.117c-0.196,0.079-0.352,0.117-0.469,0.117
		l-1.23,0.645c-0.548,0.313-1.095,0.743-1.641,1.289c-0.626,0.625-1.055,1.172-1.289,1.641c-0.586,1.211-0.841,2.657-0.762,4.336
		c0.038,0.703,0.214,1.113,0.527,1.23c0.155,0.079,0.312,0.117,0.469,0.117c0.39,0,0.762-0.097,1.113-0.293
		c1.055-0.469,2.206-1.328,3.457-2.578c1.055-1.055,1.796-2.187,2.227-3.398c0.155-0.312,0.234-0.546,0.234-0.703
		c0-0.039-0.079-0.352-0.234-0.938c-0.196-0.546-0.372-0.976-0.527-1.289c-0.079-0.156-0.352-0.253-0.82-0.293H61.358z"/>
	<path fill="#FFFFFF" d="M88.522,20.32h0.527c0.077,0.117,0.136,0.176,0.176,0.176c0.077,0,0.117,0.157,0.117,0.469
		c0,0.079,0,0.215,0,0.41c0,0.234-0.059,0.41-0.176,0.527c-0.117,0.234-0.284,0.703-0.498,1.406
		c-0.216,0.703-0.322,1.075-0.322,1.113c-0.117,0.196-0.099,0.313,0.059,0.352c0.077,0.079,0.293,0.157,0.645,0.234
		c0.429,0.079,1.015,0.333,1.758,0.762c0.78,0.547,1.348,1.075,1.699,1.582c0.507,0.43,0.762,0.84,0.762,1.23
		c0.038,0.274,0.019,0.391-0.059,0.352c-0.157,0-0.509-0.214-1.055-0.645c-0.469-0.352-0.996-0.703-1.582-1.055
		C90.143,27.079,89.791,27,89.519,27c-0.196,0-0.352,0.02-0.469,0.059c-0.938,0.04-1.523,0.234-1.758,0.586
		c-0.079,0.117-0.234,0.547-0.469,1.289l-0.762,2.285l-0.41,1.699l-0.234,1.055l-0.293,1.699l-0.293,2.168
		c-0.04,0.469-0.04,0.82,0,1.055c0.155,0.469,0.234,0.723,0.234,0.762c0.234,0.547,0.663,1.006,1.289,1.377
		c0.624,0.372,1.406,0.557,2.344,0.557c0.507,0,1.113,0.059,1.816,0.176s1.21,0.196,1.523,0.234l0.82,0.117
		c0.429,0,0.839-0.097,1.23-0.293c0.39-0.195,0.829-0.449,1.318-0.762c0.487-0.312,0.81-0.273,0.967,0.117
		c-0.743,1.641-2.051,2.754-3.926,3.34c-0.548-0.078-0.978-0.117-1.289-0.117c-0.274,0-0.724,0.04-1.348,0.117
		c-1.055,0-1.699-0.059-1.934-0.176l-0.586-0.117c-0.117,0-0.322-0.097-0.615-0.293c-0.293-0.195-0.557-0.352-0.791-0.469
		c-0.82-0.469-1.31-0.82-1.465-1.055c-0.352-0.546-0.645-0.82-0.879-0.82c-0.274-0.273-0.548-0.859-0.82-1.758
		c-0.274-1.015-0.392-1.796-0.352-2.344c0.077-1.367,0.37-2.93,0.879-4.688l0.586-2.051c0.312-1.055,0.448-1.601,0.41-1.641
		c0.038-0.195,0.097-0.381,0.176-0.557c0.077-0.176,0.117-0.322,0.117-0.439s-0.079-0.176-0.234-0.176
		c-0.117-0.039-0.293-0.059-0.527-0.059c-0.196,0-0.381,0.02-0.557,0.059c-0.176,0.04-0.362,0.079-0.557,0.117h-0.059l-0.586,0.059
		c-0.196,0-0.509,0.059-0.938,0.176c-0.743,0.352-2.168,0.489-4.277,0.41c-1.055-0.039-1.837-0.117-2.344-0.234l-0.703-0.176
		c-0.117,0-0.274-0.136-0.469-0.41c-0.196-0.195-0.274-0.371-0.234-0.527c0.038-0.234,0.194-0.419,0.469-0.557
		c0.272-0.136,0.645-0.224,1.113-0.264c1.327-0.117,3.261-0.332,5.801-0.645c0.586-0.078,1.444-0.234,2.578-0.469
		c1.249-0.195,1.952-0.429,2.109-0.703c0.155-0.234,0.399-0.625,0.732-1.172c0.331-0.546,0.615-1.074,0.85-1.582
		c0.312-0.703,0.624-1.191,0.938-1.465C87.878,20.379,88.171,20.32,88.522,20.32z"/>
	<path fill="#FFFFFF" d="M111.351,41.238c0.272,0.157,0.41,0.43,0.41,0.82c0,0.274-0.117,0.645-0.352,1.113
		c-0.04,0.196-0.117,0.352-0.234,0.469l-0.234,0.176c-0.079,0.04-0.255,0.059-0.527,0.059c-0.703,0.04-1.289-0.312-1.758-1.055
		c-0.274-0.429-0.41-0.938-0.41-1.523c0-0.546,0.077-0.898,0.234-1.055c0.194-0.234,0.429-0.352,0.703-0.352
		c0.312,0,0.722,0.196,1.23,0.586L111.351,41.238z"/>
	<path fill="#FFFFFF" d="M143.144,10.477c0,0,0,0.274,0,0.82c0,0.547-0.157,1.172-0.469,1.875l-0.82,1.348l-0.762,1.172
		l-0.762,1.289l-1.113,1.992c-0.392,0.743-0.743,1.309-1.055,1.699c-0.509,0.547-1.075,1.406-1.699,2.578
		c-0.234,0.391-0.352,0.782-0.352,1.172c0,0.352,0.117,0.703,0.352,1.055c0.234,0.391,0.37,0.743,0.41,1.055
		c0.077,0.625,0.117,1.172,0.117,1.641c0,0.82-0.059,1.797-0.176,2.93c-0.079,0.625-0.117,1.055-0.117,1.289l0.059,0.703
		c0.077,0.547,0.117,1.153,0.117,1.816c0,0.352-0.04,1.309-0.117,2.871c-0.04,0.703-0.059,1.719-0.059,3.047
		c0,2.578,0.155,4.649,0.469,6.211c0.194,0.781,0.312,1.562,0.352,2.344c0.077,0.742,0.136,1.132,0.176,1.172
		c0.038,0.039,0.117,0.645,0.234,1.816c0.117,1.132,0.214,1.738,0.293,1.816c0.077,0.117,0.136,0.469,0.176,1.055
		c0.038,0.507,0.176,0.938,0.41,1.289c0.194,0.352,0.352,0.703,0.469,1.055c0.155,0.429,0.155,0.664,0,0.703
		c-0.196,0.156-0.41,0.234-0.645,0.234c-0.665,0-1.289-0.801-1.875-2.402l-0.352-0.82l-0.352-0.938
		c-0.509-1.329-0.879-2.618-1.113-3.867l-0.352-1.406c-0.196-0.82-0.45-2.637-0.762-5.449c-0.234-2.227-0.352-4.355-0.352-6.387
		c0-1.679,0.038-2.91,0.117-3.691c0.038-0.156,0.059-0.322,0.059-0.498s0.019-0.341,0.059-0.498v-0.762l0.234-2.051v-0.645
		c0-0.507-0.04-0.8-0.117-0.879h-0.059c-0.157,0-0.313,0.098-0.469,0.293c-0.274,0.274-0.41,0.508-0.41,0.703
		c0,0.196-0.157,0.45-0.469,0.762c-0.352,0.274-0.586,0.645-0.703,1.113l-0.293,0.82l-0.293,0.82
		c-0.04,0.234-0.157,0.469-0.352,0.703c-0.196,0.274-0.333,0.43-0.41,0.469c-0.157,0.117-0.274,0.137-0.352,0.059
		c-0.157-0.078-0.234-0.722-0.234-1.934c0-0.546,0.077-1.25,0.234-2.109c0.194-0.625,0.352-1.055,0.469-1.289
		c0.155-0.156,0.312-0.488,0.469-0.996c0.194-0.586,0.293-0.898,0.293-0.938c0-0.195,0.546-1.308,1.641-3.34l0.938-1.875
		c0.234-0.546,0.429-0.917,0.586-1.113c0.897-1.172,1.601-2.285,2.109-3.34c0.586-1.093,1.21-2.148,1.875-3.164
		c0.155-0.273,0.586-1.015,1.289-2.227c0.429-0.82,0.897-1.308,1.406-1.465c0.352-0.156,0.683-0.234,0.996-0.234
		c0.352,0,0.604,0.079,0.762,0.234C143.045,10.379,143.144,10.477,143.144,10.477z M157.558,12.879c0.234,0,0.448,0.117,0.645,0.352
		c0.155,0.234,0.234,0.45,0.234,0.645c0,0.196-0.099,0.43-0.293,0.703c-0.196,0.274-0.293,0.508-0.293,0.703
		c0,0.196-0.352,0.684-1.055,1.465c-0.665,0.743-1.212,1.582-1.641,2.52c-0.274,0.743-0.45,1.27-0.527,1.582v0.234
		c0,0.196,0.059,0.391,0.176,0.586c0.234,0.234,0.565,0.372,0.996,0.41l0.703,0.059l0.586-0.059c0.39-0.078,0.879-0.117,1.465-0.117
		l1.348,0.176c0.272,0.117,0.507,0.313,0.703,0.586c0.194,0.313,0.234,0.547,0.117,0.703c-0.079,0.157-0.45,0.45-1.113,0.879
		c-0.743,0.469-1.271,0.703-1.582,0.703c-0.431,0-0.978,0.079-1.641,0.234l-1.113,0.059c-0.157,0-0.431-0.117-0.82-0.352
		c-1.017-0.507-1.739-1.308-2.168-2.402c-0.234-0.546-0.392-1.035-0.469-1.465c-0.079-0.39-0.176-0.605-0.293-0.645h-0.117
		c-0.196,0-0.431,0.079-0.703,0.234c-0.509,0.234-1.192,0.313-2.051,0.234h-0.703l-0.586-0.059l-0.352-0.059
		c-0.313,0-0.45-0.253-0.41-0.762c0.234-0.781,1.015-1.484,2.344-2.109c0.39-0.234,1.289-0.645,2.695-1.23
		c1.055-0.546,1.952-1.113,2.695-1.699c0.624-0.625,1.015-0.938,1.172-0.938c0.155,0,0.39-0.136,0.703-0.41
		c0.234-0.234,0.469-0.429,0.703-0.586C157.147,12.938,157.361,12.879,157.558,12.879z M158.554,33.094
		c0.352,0.313,0.604,0.645,0.762,0.996c0.234,0.469,0.624,0.606,1.172,0.41c0.507-0.156,0.762-0.078,0.762,0.234
		c0,0.313-0.234,0.743-0.703,1.289c-0.469,0.508-0.724,0.977-0.762,1.406c-0.079,0.508-0.059,0.782,0.059,0.82
		c0.077,0.079,0.117,0.234,0.117,0.469c0,0.665,0.234,1.289,0.703,1.875c0.077,0.04,0.527,0.234,1.348,0.586
		c0.703,0.313,1.542,0.469,2.52,0.469h0.762c0.546,0,0.976-0.039,1.289-0.117c0.469-0.117,1.21-0.176,2.227-0.176l1.992,0.059
		c1.055,0.04,1.776,0.41,2.168,1.113c0.194,0.43,0.214,0.665,0.059,0.703c-0.117,0.157-0.567,0.333-1.348,0.527
		c-0.626,0.196-1.23,0.333-1.816,0.41c-0.392,0.04-0.782,0.137-1.172,0.293c-0.313,0.117-1.055,0.234-2.227,0.352
		c-1.329,0.117-2.188,0.157-2.578,0.117l-0.703-0.117h-0.469c-0.431-0.078-1.271-0.39-2.52-0.938
		c-1.017-0.469-1.915-1.386-2.695-2.754c-0.274-0.546-0.527-0.917-0.762-1.113c-0.079-0.078-0.196-0.117-0.352-0.117
		c-0.157,0-0.352,0.059-0.586,0.176c-1.212,0.586-2.032,0.879-2.461,0.879c-0.469,0-0.958-0.312-1.465-0.938
		c-0.313-0.312-0.469-0.566-0.469-0.762c0-0.156,0.019-0.273,0.059-0.352c0.038-0.078,0.059-0.156,0.059-0.234
		c0-0.117,0.155-0.273,0.469-0.469c0.39-0.195,0.663-0.39,0.82-0.586c0.155-0.156,0.352-0.156,0.586,0
		c0.155,0.157,0.312,0.234,0.469,0.234c0.077,0,0.37-0.097,0.879-0.293c0.82-0.312,1.289-0.566,1.406-0.762
		c0.038-0.078,0.059-0.41,0.059-0.996c0-0.39-0.011-0.791-0.029-1.201c-0.021-0.41-0.011-0.732,0.029-0.967
		c0-0.195,0.077-0.371,0.234-0.527c0.155-0.117,0.39-0.253,0.703-0.41c0.312-0.078,0.507-0.117,0.586-0.117
		C157.889,32.566,158.162,32.742,158.554,33.094z"/>
	<path fill="#FFFFFF" d="M192.257,5.379c0.038,0,0.293,0.137,0.762,0.41c0.352,0.234,0.604,0.469,0.762,0.703
		c0.352,0.625,0.527,1.387,0.527,2.285c0,0.782-0.216,1.387-0.645,1.816c-0.234,0.234-0.313,0.391-0.234,0.469
		c0.234,0,0.527-0.039,0.879-0.117c0.663-0.117,1.444-0.176,2.344-0.176c0.858,0,1.503,0.059,1.934,0.176
		c0.897,0.274,1.327,0.703,1.289,1.289c0,0.274-0.099,0.41-0.293,0.41c-0.196,0.079-0.333,0.04-0.41-0.117
		c-0.157-0.156-0.469-0.234-0.938-0.234c-0.392,0-0.724,0.04-0.996,0.117c-0.86,0.117-1.446,0.274-1.758,0.469l-1.113,0.527
		c-0.117,0.04-0.586,0.234-1.406,0.586c-0.899,0.391-1.934,0.82-3.105,1.289c-0.196,0.04-0.352,0.117-0.469,0.234l-0.059,0.234
		c0,0.196,0.059,0.469,0.176,0.82c0.077,0.274,0.117,0.684,0.117,1.23c0,0.703-0.079,1.309-0.234,1.816
		c-0.079,0.274-0.157,0.684-0.234,1.23c-0.04,0.352,0,0.527,0.117,0.527c0.038,0,0.586-0.214,1.641-0.645l2.109-0.996
		c0.272-0.117,0.448-0.214,0.527-0.293l0.293-0.645c0.117-0.469,0.176-0.976,0.176-1.523c0.038-0.546,0.097-0.859,0.176-0.938
		c0.038-0.156,0.293-0.195,0.762-0.117c0.429,0.117,0.722,0.254,0.879,0.41c0.155,0.157,0.194,0.45,0.117,0.879v0.352
		c0,0.274,0.059,0.45,0.176,0.527h0.117c0.194,0,0.469-0.078,0.82-0.234c0.272-0.078,0.604-0.253,0.996-0.527
		c0.077-0.156,0.117-0.469,0.117-0.938l0.059-0.645h0.586c0.741,0.079,1.132,0.372,1.172,0.879c0.038,0.274,0.117,0.43,0.234,0.469
		c0.194,0.079,0.429,0.059,0.703-0.059l0.41-0.059c0.272,0,0.546,0.059,0.82,0.176c0.858,0.234,1.444,0.547,1.758,0.938
		c0.234,0.352,0.352,0.723,0.352,1.113c0,0.274-0.099,0.606-0.293,0.996c-0.665,1.055-1.134,1.719-1.406,1.992
		c-0.196,0.079-0.586,0.391-1.172,0.938c-1.798,1.719-3.907,3.008-6.328,3.867c-0.626,0.157-1.036,0.234-1.23,0.234
		c-0.157,0-0.392-0.039-0.703-0.117c-0.82-0.234-1.192-0.586-1.113-1.055c0-0.117,0.077-0.234,0.234-0.352l1.113-0.41
		c0.703-0.234,1.465-0.527,2.285-0.879c0.858-0.429,1.289-0.703,1.289-0.82s-0.059-0.195-0.176-0.234
		c-0.079-0.078-0.099-0.156-0.059-0.234c0-0.039,0.019-0.088,0.059-0.146c0.038-0.059,0.097-0.107,0.176-0.146
		c1.796-0.664,3.124-1.621,3.984-2.871c0.117-0.195,0.205-0.361,0.264-0.498c0.059-0.136,0.029-0.205-0.088-0.205
		s-0.685,0.157-1.699,0.469c-1.329,0.469-2.109,0.84-2.344,1.113c-0.079,0.079-0.146,0.146-0.205,0.205s-0.108,0.127-0.146,0.205
		c-0.196,0.04-0.313-0.019-0.352-0.176l-0.176-0.234c-0.117,0-0.234,0.04-0.352,0.117c-0.274,0.117-0.469,0.391-0.586,0.82
		l-0.293,0.469l-0.293,0.234h-0.469c-0.274,0-0.489-0.097-0.645-0.293l-0.293-0.293l-1.699,0.645
		c-1.523,0.703-2.52,1.23-2.988,1.582c-0.274,0.234-0.45,0.782-0.527,1.641c-0.234,1.992-0.509,3.77-0.82,5.332
		c-0.079,0.391-0.117,0.703-0.117,0.938l-0.117,1.172c-0.313,1.992-0.469,3.574-0.469,4.746l-0.059,3.398
		c-0.04,0.625-0.059,1.485-0.059,2.578c0,1.796,0.117,3.281,0.352,4.453l0.176,1.465c0.077,0.546,0.059,0.82-0.059,0.82
		c-0.196,0-0.352,0.117-0.469,0.352c-0.196,0.429-0.489,0.645-0.879,0.645c-0.196,0-0.41-0.059-0.645-0.176
		c-0.352-0.117-0.586-0.762-0.703-1.934l-0.234-2.871c-0.157-0.86-0.234-2.949-0.234-6.27c0-1.445,0.059-2.48,0.176-3.105
		c0.038-0.273,0.059-0.605,0.059-0.996c0-0.39,0.038-0.879,0.117-1.465c0.077-0.586,0.155-1.582,0.234-2.988l0.234-2.637
		c0-0.195,0.019-0.371,0.059-0.527l0.117-0.762l0.059-0.586c0.194-1.953,0.352-3.183,0.469-3.691l0.234-1.172l0.117-0.586
		l0.117-0.645c0.038-0.117,0.077-0.283,0.117-0.498c0.038-0.214,0.077-0.478,0.117-0.791c0.038-0.195,0.155-0.722,0.352-1.582
		c0.077-0.234,0.117-0.546,0.117-0.938c0-0.273-0.04-0.449-0.117-0.527c-0.04-0.156-0.313-0.195-0.82-0.117
		c-0.509,0.117-0.86,0.254-1.055,0.41c-0.313,0.157-0.509,0.215-0.586,0.176l-0.762-0.234c-0.392-0.234-0.685-0.507-0.879-0.82
		c-0.196-0.39-0.216-0.664-0.059-0.82c0.155-0.312,0.839-0.683,2.051-1.113c1.015-0.352,2.265-0.839,3.75-1.465
		c0.469-0.234,1.113-0.527,1.934-0.879l0.469-0.176c0.155,0,0.282-0.019,0.381-0.059c0.097-0.039,0.185-0.078,0.264-0.117
		l0.469-0.176l0.703-0.293l0.059-0.996c0.038-1.562-0.45-2.617-1.465-3.164c-0.703-0.469-1.055-0.879-1.055-1.23
		c0-0.429,0.487-0.664,1.465-0.703l1.055-0.059H192.257z M204.796,26.648c0,0,0.37,0.02,1.113,0.059
		c0.703,0,1.289,0.059,1.758,0.176c0.78,0.117,1.327,0.333,1.641,0.645c0.312,0.313,0.469,0.762,0.469,1.348
		s-0.372,1.25-1.113,1.992c-0.196,0.234-0.685,0.547-1.465,0.938c-0.234,0.117-0.509,0.274-0.82,0.469
		c-0.313,0.196-0.509,0.293-0.586,0.293c-0.079,0-0.176,0.04-0.293,0.117v0.117c0,0.117,0.059,0.274,0.176,0.469
		c0.194,0.234,0.293,0.527,0.293,0.879c0,0.234-0.05,0.43-0.146,0.586c-0.099,0.157-0.245,0.254-0.439,0.293h-0.117
		c-0.234,0-0.469-0.117-0.703-0.352c-0.392-0.39-0.606-0.625-0.645-0.703l-0.234-0.234c-0.079-0.039-0.196-0.059-0.352-0.059
		c-0.234,0-0.392-0.059-0.469-0.176c-0.04-0.117-0.04-0.253,0-0.41l0.176-0.234l0.234-0.293c0.038-0.039,0.088-0.078,0.146-0.117
		c0.059-0.039,0.126-0.078,0.205-0.117l0.293-0.176l0.117-0.117c0.155,0,0.645-0.41,1.465-1.23c1.132-1.093,1.582-1.758,1.348-1.992
		c-0.079-0.078-0.293-0.117-0.645-0.117c-0.938,0-1.603,0.079-1.992,0.234c-0.313,0.079-0.548,0.117-0.703,0.117
		c-0.469,0-1.271,0.196-2.402,0.586l-1.406,0.41c-0.274,0.079-1.31,0.547-3.105,1.406l-1.055,0.527l-2.051,1.113
		c-0.196,0.196-0.293,0.313-0.293,0.352c0,0.117,0.117,0.215,0.352,0.293c0.234,0.117,0.469,0.391,0.703,0.82
		c0.194,0.352,0.293,0.762,0.293,1.23v0.352c0.038,0.04,0.117,0.059,0.234,0.059h0.117c0.234,0,0.487,0.059,0.762,0.176
		c0.546,0.157,0.879,0.234,0.996,0.234s0.37,0.04,0.762,0.117c0.155,0.117,0.586,0.215,1.289,0.293c0.507,0,0.996,0.04,1.465,0.117
		h0.293c0.155,0,0.469-0.039,0.938-0.117c0.429-0.195,0.683-0.371,0.762-0.527c0.038-0.117,0.077-0.195,0.117-0.234
		c0.038-0.039,0.059-0.078,0.059-0.117c0.155,0,0.331,0.098,0.527,0.293l0.586,0.293c0.194,0.196,0.312,0.469,0.352,0.82
		c0.038,0.079,0.059,0.196,0.059,0.352c0,0.313-0.117,0.567-0.352,0.762c-0.313,0.234-0.978,0.527-1.992,0.879
		c-0.392,0.117-0.879,0.176-1.465,0.176c-0.509,0-1.055-0.059-1.641-0.176c-0.703-0.039-1.368-0.234-1.992-0.586
		c-1.212-0.82-1.856-1.465-1.934-1.934c-0.04-0.195-0.099-0.293-0.176-0.293c-0.117,0-0.938,1.485-2.461,4.453
		c-0.352,0.703-0.606,1.133-0.762,1.289c-0.234,0.234-0.489,0.352-0.762,0.352c-0.431,0-0.724-0.117-0.879-0.352
		c-0.234-0.156-0.293-0.41-0.176-0.762c0.117-0.117,0.234-0.371,0.352-0.762c0.234-0.703,0.586-1.542,1.055-2.52
		c0.624-1.25,0.976-1.992,1.055-2.227c0-0.039,0.059-0.176,0.176-0.41c0.194-0.273,0.331-0.605,0.41-0.996
		c0.155-0.429,0.234-0.683,0.234-0.762h-0.059l-0.645,0.293c-0.313,0.157-0.606,0.234-0.879,0.234c-0.196,0-0.392-0.059-0.586-0.176
		c-0.196-0.195-0.216-0.41-0.059-0.645c0.312-0.703,1.699-1.777,4.16-3.223c1.641-1.015,2.813-1.66,3.516-1.934l1.582-0.703
		c0.117,0,0.487-0.117,1.113-0.352c0.741-0.273,1.758-0.469,3.047-0.586c0.546-0.039,0.858-0.097,0.938-0.176
		C204.756,26.688,204.796,26.648,204.796,26.648z M199.757,41.59c0,0,0,0.157,0,0.469v0.176c0,0.274-0.099,0.567-0.293,0.879
		c-0.234,0.43-0.333,0.703-0.293,0.82c0.038,0.04,0.429,0.059,1.172,0.059c0.976,0,1.641,0.059,1.992,0.176
		c0.312,0.079,0.586,0.274,0.82,0.586c0.312,0.234,0.487,0.469,0.527,0.703v0.176c0,0.273-0.059,0.605-0.176,0.996
		c-0.04,0.625-0.333,1.406-0.879,2.344l0.293,0.234c0.312,0.156,0.586,0.273,0.82,0.352l0.82,0.293
		c0.507,0.117,0.996,0.312,1.465,0.586c0.234,0.078,0.82,0.352,1.758,0.82c2.109,0.938,3.651,1.582,4.629,1.934
		c1.406,0.469,2.344,0.938,2.813,1.406c0.272,0.234,0.41,0.488,0.41,0.762c0,0.156-0.059,0.312-0.176,0.469
		c-0.117,0.195-0.431,0.293-0.938,0.293c-0.313,0-1.017-0.04-2.109-0.117c-0.938-0.196-1.505-0.352-1.699-0.469l-0.645-0.234
		c-0.04,0-0.293-0.098-0.762-0.293l-1.348-0.586c-0.626-0.274-1.036-0.489-1.23-0.645c-0.079-0.04-0.469-0.196-1.172-0.469
		c-0.196-0.079-0.381-0.157-0.557-0.234c-0.176-0.079-0.322-0.137-0.439-0.176c-0.117-0.04-0.216-0.088-0.293-0.146
		c-0.079-0.059-0.176-0.088-0.293-0.088c-0.157,0-0.431-0.098-0.82-0.293c-0.313-0.234-0.586-0.352-0.82-0.352l-0.293-0.176
		l-1.406-0.586l-0.41-0.059l-1.172,1.172c-2.149,2.265-3.867,3.457-5.156,3.574c-0.079,0.039-0.234,0.059-0.469,0.059
		s-0.41-0.02-0.527-0.059c-0.313-0.04-0.527-0.117-0.645-0.234c0-0.04,0.507-0.606,1.523-1.699c0.858-0.938,1.835-1.895,2.93-2.871
		c0.586-0.586,0.879-0.938,0.879-1.055c0-0.157-0.117-0.333-0.352-0.527c-0.743-0.391-1.192-0.586-1.348-0.586
		c-0.157,0-0.431,0.195-0.82,0.586c-0.743,0.859-1.329,1.289-1.758,1.289c-0.196,0-0.352-0.059-0.469-0.176
		c-0.196-0.196-0.293-0.372-0.293-0.527c0-0.313,0.37-0.899,1.113-1.758c0.272-0.352,0.41-0.625,0.41-0.82
		c0-0.157-0.099-0.293-0.293-0.41c-0.234-0.117-0.41-0.41-0.527-0.879c-0.117-0.391-0.099-0.645,0.059-0.762
		c0.077-0.078,0.253-0.078,0.527,0c0.858,0.313,1.465,0.41,1.816,0.293c0.117-0.039,0.352-0.371,0.703-0.996l0.938-1.641
		c0.39-0.625,0.624-1.055,0.703-1.289c0.117-0.273,0.253-0.488,0.41-0.645c0.117-0.117,0.234-0.176,0.352-0.176
		c0.194,0,0.39,0.079,0.586,0.234C199.619,41.493,199.757,41.59,199.757,41.59z M197.589,32.742c0,0,0.097-0.039,0.293-0.117
		l0.645,0.117l0.469,0.117c0.117,0,0.194,0.01,0.234,0.029c0.038,0.02,0.077,0.029,0.117,0.029l0.586,0.293l0.527,0.527
		c0.155,0.234,0.272,0.45,0.352,0.645c0.117,0.391,0.117,0.684,0,0.879c-0.352,0.547-0.724,0.703-1.113,0.469
		c-0.274-0.117-0.685-0.488-1.23-1.113c-0.548-0.586-0.86-0.957-0.938-1.113c-0.079-0.234-0.059-0.429,0.059-0.586
		C197.589,32.801,197.589,32.742,197.589,32.742z M197.94,46.512c-0.234,0.156-0.255,0.332-0.059,0.527
		c0.117,0.117,0.429,0.273,0.938,0.469l0.527,0.176l0.352-0.293c0.077-0.04,0.155-0.157,0.234-0.352
		c0.038-0.04,0.077-0.088,0.117-0.146c0.038-0.059,0.077-0.146,0.117-0.264l0.234-0.41V45.75c0-0.078-0.059-0.117-0.176-0.117
		c-0.274,0-0.665,0.098-1.172,0.293C198.428,46.199,198.058,46.395,197.94,46.512z"/>
	<path fill="#FFFFFF" d="M240.071,15.867c1.133,1.25,1.797,2.305,1.992,3.164c0.078,0.625,0.117,1.133,0.117,1.523
		c0,1.368-0.254,2.813-0.762,4.336c-0.703,2.032-1.582,3.907-2.637,5.625c-0.156,0.313-0.332,0.762-0.527,1.348l-0.352,0.938
		l0.293,0.41c0.43,0.743,1.484,1.758,3.164,3.047c1.953,1.523,3.027,2.285,3.223,2.285c0.117,0,0.605-0.586,1.465-1.758
		c0.703-0.938,1.348-1.542,1.934-1.816c0.391-0.156,0.664-0.234,0.82-0.234c0.234,0,0.449,0.098,0.645,0.293
		c0.117,0.157,0.176,0.254,0.176,0.293l-0.352,0.41c-0.313,0.234-0.547,0.489-0.703,0.762c-0.156,0.352-0.41,0.762-0.762,1.23
		c-0.938,1.368-1.328,2.188-1.172,2.461c0.039,0.117,0.352,0.313,0.938,0.586c0.547,0.313,0.82,0.586,0.82,0.82
		s-0.059,0.391-0.176,0.469c-0.078,0.157-0.332,0.196-0.762,0.117c-0.547-0.078-0.918-0.176-1.113-0.293
		c-0.117-0.039-0.234-0.088-0.352-0.146s-0.234-0.088-0.352-0.088c-0.156,0-0.488,0.254-0.996,0.762
		c-1.211,1.563-2.5,2.695-3.867,3.398c-0.781,0.39-1.484,0.703-2.109,0.938c-0.469,0.117-1.172,0.176-2.109,0.176
		c-1.133,0-1.934-0.117-2.402-0.352c-0.469-0.274-0.859-0.567-1.172-0.879c-0.352-0.312-0.625-0.683-0.82-1.113
		c-0.195-0.469-0.293-0.859-0.293-1.172c0-0.195,0.391-1.289,1.172-3.281l1.172-2.813l1.055-2.402
		c0.391-0.781,0.586-1.328,0.586-1.641c0-0.273-0.254-0.781-0.762-1.523c-1.133-1.641-2.051-3.496-2.754-5.566l-0.176-0.82
		c-0.117-0.429-0.195-0.645-0.234-0.645c-0.43-1.406-0.645-2.656-0.645-3.75c0-1.641,0.586-3.183,1.758-4.629
		c0.234-0.273,0.605-0.586,1.113-0.938c0.547-0.352,0.957-0.586,1.23-0.703c0.195-0.078,0.547-0.117,1.055-0.117
		c0.664,0,1.309,0.098,1.934,0.293C239.075,15.067,239.642,15.398,240.071,15.867z M233.626,19.383
		c-0.234,0.703-0.352,1.329-0.352,1.875c0,0.234,0.039,0.547,0.117,0.938l0.293,1.23c0.078,0.665,0.41,1.895,0.996,3.691
		c0.195,0.703,0.508,1.465,0.938,2.285c0.469,0.899,0.781,1.348,0.938,1.348s0.625-0.8,1.406-2.402
		c0.703-1.484,1.289-2.91,1.758-4.277c0.391-1.172,0.586-2.304,0.586-3.398c0-0.625-0.059-1.23-0.176-1.816
		c-0.156-0.664-0.43-1.23-0.82-1.699c-0.469-0.352-0.801-0.546-0.996-0.586c-0.547-0.156-0.957-0.234-1.23-0.234
		c-0.703,0-1.348,0.234-1.934,0.703C234.485,17.586,233.978,18.368,233.626,19.383z M237.259,34.734
		c-0.195,0.117-0.703,1.094-1.523,2.93c-0.859,1.915-1.445,3.398-1.758,4.453c-0.156,0.43-0.234,0.86-0.234,1.289
		c0,0.469,0.098,0.82,0.293,1.055c0.352,0.508,1.016,0.743,1.992,0.703c1.016,0,2.09-0.253,3.223-0.762l0.996-0.703l1.172-0.938
		l1.055-1.055c0.352-0.352,0.625-0.683,0.82-0.996c0.195-0.312,0.293-0.546,0.293-0.703c-0.078-0.195-0.859-0.898-2.344-2.109
		c-1.758-1.367-2.813-2.227-3.164-2.578C237.688,34.891,237.415,34.696,237.259,34.734z"/>
	<path fill="#FFFFFF" d="M266.321,22.195c0.547,0.313,1.543,0.977,2.988,1.992c1.602,1.094,2.656,2.735,3.164,4.922
		c0.117,0.586,0.176,1.25,0.176,1.992c0,1.954-0.215,3.105-0.645,3.457c-0.156,0.117-0.293,0.45-0.41,0.996
		c-0.117,0.391-0.176,1.094-0.176,2.109c0,2.344,0.078,3.555,0.234,3.633c0.078,0.079,0.195,0.04,0.352-0.117
		c0.391-0.546,1.426-1.894,3.105-4.043l1.816-2.402c0.781-1.055,1.25-1.348,1.406-0.879c0.039,0.04-0.176,0.567-0.645,1.582
		c-0.352,0.703-0.801,1.797-1.348,3.281l-0.879,2.461c-0.43,1.055-1.133,2.012-2.109,2.871c-0.273,0.234-0.586,0.469-0.938,0.703
		c-0.234,0.157-0.41,0.254-0.527,0.293l-0.645,0.176h-0.234c-0.352,0-0.664-0.097-0.938-0.293c-0.508-0.39-0.762-1.406-0.762-3.047
		c0-1.679-0.039-2.578-0.117-2.695c-0.078-0.078-0.176-0.117-0.293-0.117c-0.195,0-0.449,0.079-0.762,0.234
		c-0.859,0.43-1.602,0.645-2.227,0.645c-0.156,0-0.43-0.039-0.82-0.117c-0.273-0.117-0.605-0.332-0.996-0.645l-0.469-0.469v-1.582
		c0.078-1.055,0.215-1.796,0.41-2.227c0.469-0.938,1.016-1.601,1.641-1.992c0.313-0.234,0.879-0.332,1.699-0.293
		c1.016,0.117,1.777,0.391,2.285,0.82c0.156,0.117,0.313,0.059,0.469-0.176c0.156-0.273,0.254-0.762,0.293-1.465l0.059-0.82
		c0-0.234-0.039-0.546-0.117-0.938c-0.039-0.546-0.254-1.23-0.645-2.051c-0.352-0.742-0.664-1.23-0.938-1.465
		c-1.367-1.21-2.695-2.148-3.984-2.813c-1.055-0.546-1.582-0.938-1.582-1.172c-0.039-0.234-0.039-0.429,0-0.586
		c0.078-0.117,0.273-0.176,0.586-0.176s0.566,0.02,0.762,0.059C265.306,21.883,265.892,22,266.321,22.195z M267.552,34.324
		c-0.156,0-0.391,0.137-0.703,0.41c-0.313,0.313-0.586,0.508-0.82,0.586c-0.234,0.04-0.469,0.469-0.703,1.289
		c-0.234,0.86-0.332,1.387-0.293,1.582c0,0.274,0.156,0.41,0.469,0.41c0.859,0.117,1.758-0.352,2.695-1.406
		c0.43-0.429,0.645-0.703,0.645-0.82c0-0.156-0.098-0.469-0.293-0.938c-0.195-0.352-0.391-0.625-0.586-0.82
		C267.767,34.422,267.63,34.324,267.552,34.324z M288.763,18.914c0.508,0,0.996,0.079,1.465,0.234
		c1.016,0.313,1.836,0.743,2.461,1.289c0.547,0.43,0.82,1.055,0.82,1.875c0,0.469-0.078,0.918-0.234,1.348
		c-0.195,0.469-0.664,1.113-1.406,1.934c-0.82,0.82-1.367,1.23-1.641,1.23c-0.234,0-0.352-0.059-0.352-0.176
		s0.176-0.645,0.527-1.582c0.313-0.859,0.488-1.406,0.527-1.641v-0.234l-0.117-0.82c-0.039-0.312-0.195-0.605-0.469-0.879
		c-0.273-0.195-0.508-0.273-0.703-0.234c-1.68,0.43-2.715,0.82-3.105,1.172c-1.094,0.743-1.973,1.309-2.637,1.699
		c-0.391,0.234-0.664,0.45-0.82,0.645c-0.391,0.391-1.035,0.625-1.934,0.703c-1.172,0.157-2.246-0.507-3.223-1.992
		c-0.117-0.117-0.43-0.605-0.938-1.465c-0.469-0.664-0.703-1.074-0.703-1.23c0-0.117,0.117-0.293,0.352-0.527
		c0.195-0.234,0.332-0.352,0.41-0.352c0.117,0,0.488,0.215,1.113,0.645c0.547,0.508,0.879,0.86,0.996,1.055
		c0.664,1.172,1.152,1.778,1.465,1.816c0.234,0.079,1.23-0.625,2.988-2.109c1.602-1.25,2.93-1.992,3.984-2.227
		C287.942,18.973,288.333,18.914,288.763,18.914z M283.958,29.402c0.195-0.234,0.488-0.352,0.879-0.352
		c0.352,0,0.605,0.117,0.762,0.352c0.156,0.274,0.254,0.743,0.293,1.406c0.039,0.196,0.059,0.489,0.059,0.879
		c0,0.743-0.156,1.622-0.469,2.637c-0.117,0.469-0.137,0.782-0.059,0.938c0.078,0.117,0.449,0.215,1.113,0.293
		c2.109,0.04,3.164,0.527,3.164,1.465c0,0.313,0.078,0.567,0.234,0.762c0.234,0.391,0.352,1.485,0.352,3.281
		c0,0.82-0.078,1.699-0.234,2.637c-0.234,0.743-0.352,1.23-0.352,1.465c0,0.43-0.254,1.074-0.762,1.934
		c-0.664,1.093-1.172,1.816-1.523,2.168c-0.469,0.469-1.133,0.996-1.992,1.582c-1.016,0.664-1.797,1.074-2.344,1.23
		c-0.664,0.273-1.191,0.41-1.582,0.41c-0.234,0-0.41-0.059-0.527-0.176c-0.078-0.079,0.156-0.352,0.703-0.82
		c0.43-0.352,0.977-0.899,1.641-1.641c0.742-0.743,1.445-1.602,2.109-2.578c0.273-0.352,0.586-0.899,0.938-1.641
		c0.352-0.664,0.488-1.093,0.41-1.289c-0.117-0.195-0.488-0.312-1.113-0.352c-1.211-0.117-2.07-0.39-2.578-0.82l-0.352-0.352
		l-0.234,0.469c-0.234,0.313-0.527,0.41-0.879,0.293c-0.352-0.039-0.645-0.312-0.879-0.82c-0.078-0.234-0.117-0.429-0.117-0.586
		c0-0.156,0.039-0.469,0.117-0.938c0.117-0.703,0.41-1.738,0.879-3.105l0.527-1.406c0.156-0.546,0.313-0.996,0.469-1.348
		c0.234-0.586,0.371-1.172,0.41-1.758c0.195-0.859,0.332-1.386,0.41-1.582c0.117-0.352,0.176-0.82,0.176-1.406
		S283.724,29.637,283.958,29.402z M282.2,9.012c0.469,0,0.859,0.137,1.172,0.41c0.43,0.313,0.742,0.469,0.938,0.469
		s0.645,0.372,1.348,1.113c0.742,0.743,1.133,1.153,1.172,1.23c0.078,0.157,0.234,0.372,0.469,0.645
		c0.273,0.352,0.488,0.801,0.645,1.348c0.234,0.586,0.352,1.016,0.352,1.289c0,0.313-0.137,0.45-0.41,0.41
		c-0.195-0.078-0.43-0.253-0.703-0.527c-1.055-1.015-1.836-1.641-2.344-1.875c-0.195-0.117-0.43-0.312-0.703-0.586
		c-0.039-0.117-0.215-0.273-0.527-0.469c-0.469-0.234-1.152-0.859-2.051-1.875c-0.195-0.195-0.293-0.429-0.293-0.703
		c0-0.234,0.078-0.429,0.234-0.586C281.614,9.11,281.849,9.012,282.2,9.012z M287.063,37.84h-0.176c-0.156,0-0.41,0.059-0.762,0.176
		c-0.859,0.157-1.406,0.333-1.641,0.527c-0.313,0.234-0.547,0.606-0.703,1.113l-0.586,1.582c-0.234,0.508-0.273,0.782-0.117,0.82
		l0.352-0.117c0.234-0.078,0.918-0.156,2.051-0.234c1.172-0.078,1.797-0.156,1.875-0.234c0.039-0.039,0.098-0.488,0.176-1.348
		c0-0.703-0.039-1.25-0.117-1.641C287.298,38.133,287.181,37.918,287.063,37.84z M299.954,26.707l0.996,0.059
		c0.898,0.117,1.445,0.274,1.641,0.469c0.078,0.04,0.215,0.215,0.41,0.527c0.117,0.196,0.254,0.527,0.41,0.996l0.234,0.879
		c0.117,1.289-0.41,2.676-1.582,4.16c-0.391,0.508-1.094,1.25-2.109,2.227c-0.938,0.86-1.563,1.329-1.875,1.406
		c-0.547,0.196-0.84,0.391-0.879,0.586c-0.078,0.234-0.117,0.625-0.117,1.172c0,2.578,0.293,4.2,0.879,4.863l0.352,0.527
		c0.117,0.234,0.449,0.508,0.996,0.82c0.469,0.274,0.977,0.507,1.523,0.703c1.602,0.39,3.281,0.586,5.039,0.586
		c0.938,0,1.797,0.019,2.578,0.059c0.781,0.039,1.387,0.136,1.816,0.293c1.25,0.429,1.895,0.957,1.934,1.582
		c0.039,0.078,0.059,0.176,0.059,0.293c0,0.312-0.117,0.488-0.352,0.527c-0.43,0.156-1.289,0.253-2.578,0.293
		c-0.859,0.078-1.992,0.117-3.398,0.117c-1.094,0-1.816-0.04-2.168-0.117c-2.383-0.274-3.926-0.703-4.629-1.289
		c-0.156-0.079-0.508-0.313-1.055-0.703c-0.273-0.157-0.547-0.41-0.82-0.762l-0.879-1.348c-0.117-0.156-0.332-0.566-0.645-1.23
		c-0.273-0.82-0.449-1.582-0.527-2.285c-0.156-0.859-0.254-2.187-0.293-3.984c-0.039-1.875-0.117-3.613-0.234-5.215v-0.586
		c0-0.429,0.02-0.703,0.059-0.82c0.078-0.234,0.273-0.352,0.586-0.352c0.938,0,1.484,1.055,1.641,3.164
		c0.039,0.938,0.098,1.563,0.176,1.875c0.039,0.274,0.137,0.41,0.293,0.41c0.391,0,0.957-0.586,1.699-1.758
		c0.664-1.015,1.172-2.051,1.523-3.105c0.273-0.898,0.41-1.503,0.41-1.816c0-0.352-0.098-0.625-0.293-0.82
		c-0.195-0.117-0.313-0.156-0.352-0.117c-0.625,0.234-0.996,0.352-1.113,0.352c-0.078,0-0.352-0.097-0.82-0.293
		c-0.469-0.234-0.703-0.488-0.703-0.762v-0.117c0-0.234,0.117-0.488,0.352-0.762c0.352-0.352,0.664-0.546,0.938-0.586
		C299.388,26.747,299.681,26.707,299.954,26.707z"/>
	<path fill="#FFFFFF" d="M322.642,32.391c0,0.157-0.117,0.391-0.352,0.703l-0.82,0.879c-0.273,0.157-0.41,0.274-0.41,0.352
		c0,0.04-0.293,0.333-0.879,0.879c-0.547,0.469-1.035,0.801-1.465,0.996c-0.508,0.274-0.996,0.41-1.465,0.41
		c-0.273,0-0.488-0.019-0.645-0.059c-0.352-0.039-0.684-0.293-0.996-0.762c-0.234-0.352-0.352-0.664-0.352-0.938
		c0-0.273,0.098-0.469,0.293-0.586c0.117-0.156,0.391-0.293,0.82-0.41c0.313-0.078,0.586-0.214,0.82-0.41
		c0.586-0.273,1.016-0.469,1.289-0.586c0.742-0.39,1.23-0.605,1.465-0.645c0.273-0.156,0.645-0.312,1.113-0.469
		c0.156-0.039,0.371-0.059,0.645-0.059c0.391,0,0.645,0.098,0.762,0.293C322.583,32.098,322.642,32.235,322.642,32.391z
		 M320.415,23.543c0.156,0,0.449,0.176,0.879,0.527c0.547,0.547,0.918,0.996,1.113,1.348c0.391,0.586,0.586,1.113,0.586,1.582v0.352
		c0,0.391-0.098,0.586-0.293,0.586c-0.313,0-0.859-0.352-1.641-1.055c-0.547-0.507-0.859-0.762-0.938-0.762
		c-0.039,0-0.156-0.176-0.352-0.527c-0.117-0.312-0.313-0.527-0.586-0.645c-0.273-0.156-0.41-0.332-0.41-0.527
		c0-0.234-0.039-0.507-0.117-0.82c-0.078-0.234-0.117-0.449-0.117-0.645c0.078-0.078,0.176-0.117,0.293-0.117
		c0.195,0,0.469,0.117,0.82,0.352C319.966,23.426,320.22,23.543,320.415,23.543z M326.333,33.445
		c-0.352,0.743-0.527,1.153-0.527,1.23c0,0.157-0.078,0.391-0.234,0.703c-0.195,0.547-0.332,0.918-0.41,1.113l-0.41,0.82
		c-0.273,0.313-0.43,0.606-0.469,0.879c-0.078,0.117-0.146,0.245-0.205,0.381c-0.059,0.137-0.127,0.264-0.205,0.381
		c-0.117,0.117-0.273,0.43-0.469,0.938c-0.195,0.586-0.293,0.938-0.293,1.055c0,0.04-0.098,0.293-0.293,0.762l-0.645,1.289
		c-0.352,0.782-0.645,1.289-0.879,1.523c-0.195,0.196-0.547,0.293-1.055,0.293c-0.664,0-1.094-0.293-1.289-0.879
		c-0.273-0.586-0.332-0.996-0.176-1.23c0.117-0.273,0.488-0.722,1.113-1.348l1.406-1.523c0.273-0.546,1.094-1.679,2.461-3.398
		c0.859-1.093,1.523-2.011,1.992-2.754c0.195-0.352,0.449-0.683,0.762-0.996c0.195-0.234,0.313-0.352,0.352-0.352l-0.176,0.293
		L326.333,33.445z M338.286,3.914c0,0,0.02,0.157,0.059,0.469c0.117,0.391,0.215,0.625,0.293,0.703
		c0.078,0.157,0.117,0.547,0.117,1.172c0,0.547,0.039,0.899,0.117,1.055c0.156,0.157,0.352,0.234,0.586,0.234
		c0.391,0,0.527,0.157,0.41,0.469c-0.195,0.196-0.371,0.313-0.527,0.352c-0.313,0.117-0.625,0.41-0.938,0.879
		c-0.313,0.43-0.469,0.86-0.469,1.289c0,0.547-0.449,1.739-1.348,3.574c-0.352,0.743-0.684,1.211-0.996,1.406
		c-0.391,0.313-0.625,0.469-0.703,0.469s-0.117-0.039-0.117-0.117l0.234-0.703c0.117-0.469,0.254-1.074,0.41-1.816
		c0.156-0.859,0.293-1.503,0.41-1.934c0.195-0.586,0.234-0.938,0.117-1.055c-0.039-0.039-0.098-0.059-0.176-0.059
		c-0.273,0-0.586,0.079-0.938,0.234l-1.348,0.586c-0.664,0.391-1.855,0.86-3.574,1.406c-0.508,0.234-0.82,0.41-0.938,0.527
		c-0.078,0.117-0.117,0.567-0.117,1.348c0,0.82-0.098,1.387-0.293,1.699c-0.156,0.469-0.234,0.782-0.234,0.938
		c0,0.313-0.098,0.567-0.293,0.762c-0.195,0.196-0.469,0.293-0.82,0.293c-0.195,0-0.332-0.059-0.41-0.176l-0.059-0.176
		c0-0.078,0.059-0.234,0.176-0.469c0.078-0.234,0.117-0.527,0.117-0.879c0-0.469-0.059-1.055-0.176-1.758l-0.234-0.82
		c0-0.117-0.098-0.214-0.293-0.293c-0.195-0.078-0.43-0.078-0.703,0c-1.25,0.079-2.09,0.117-2.52,0.117
		c-0.586,0-0.996-0.019-1.23-0.059c-0.781-0.039-1.348-0.176-1.699-0.41c-0.234-0.117-0.41-0.449-0.527-0.996
		c0-0.234,0.02-0.39,0.059-0.469l0.352-0.234c0.156-0.078,0.43-0.117,0.82-0.117l3.105-0.645c0.352-0.117,0.625-0.176,0.82-0.176
		c0.313,0,0.566-0.078,0.762-0.234c0.234-0.117,0.391-0.253,0.469-0.41c0-0.195-0.078-0.449-0.234-0.762l-0.176-0.762
		c-0.078-0.82-0.176-1.406-0.293-1.758c-0.078-0.195-0.156-0.546-0.234-1.055l-0.176-0.938c-0.039-0.195-0.02-0.332,0.059-0.41
		c0.156-0.078,0.332-0.097,0.527-0.059l0.762,0.527l0.996,1.055c0.273,0.274,0.449,0.527,0.527,0.762
		c0.117,0.196,0.273,0.723,0.469,1.582c0.117,0.625,0.234,1.036,0.352,1.23c0.195,0.117,0.371,0.137,0.527,0.059
		c0.195-0.156,0.391-0.234,0.586-0.234c0.273,0,0.586-0.097,0.938-0.293c0.352-0.156,1.211-0.41,2.578-0.762
		c1.133-0.273,1.895-0.41,2.285-0.41l0.645-0.117l0.41-0.176l0.176-1.055c0.039-0.39,0.078-0.693,0.117-0.908
		c0.039-0.214,0.059-0.361,0.059-0.439c0-0.39-0.02-0.762-0.059-1.113c-0.078-0.586-0.098-0.879-0.059-0.879
		c0.078-0.117,0.156-0.176,0.234-0.176c0.195,0,0.469,0.234,0.82,0.703C338.149,3.778,338.286,3.914,338.286,3.914z M345.962,25.125
		c0.156,0.352,0.156,0.665,0,0.938c-0.195,0.313-0.488,0.489-0.879,0.527c-0.273,0.04-0.645,0.234-1.113,0.586l-1.875,1.582
		c-0.82,0.625-1.367,1.113-1.641,1.465l-0.527,0.41v2.227c0.039,0.938,0.059,1.934,0.059,2.988c0.078,0.508,0.137,0.782,0.176,0.82
		c0.039,0.04,0.137,0.059,0.293,0.059c0.234,0.04,0.469,0.04,0.703,0c0.273-0.078,1.211-0.156,2.813-0.234
		c1.602,0,2.48,0.04,2.637,0.117c0.234,0.079,0.43,0.176,0.586,0.293l0.41,0.41c0.117,0.117,0.176,0.215,0.176,0.293
		c0,0.196-0.156,0.41-0.469,0.645c-0.313,0.313-0.527,0.469-0.645,0.469c-0.352,0-0.664,0.059-0.938,0.176l-1.465,0.352
		c-0.156,0-0.742,0.137-1.758,0.41c-0.703,0.196-1.133,0.293-1.289,0.293c-0.352,0-0.625,0.117-0.82,0.352
		c-0.117,0.234-0.156,0.508-0.117,0.82c0.156,0.274,0.254,2.54,0.293,6.797c0,2.109-0.039,3.281-0.117,3.516
		c-0.117,0.195-0.176,0.703-0.176,1.523c0.039,0.156,0.059,0.39,0.059,0.703c0,0.312-0.039,0.742-0.117,1.289
		c-0.078,0.195-0.234,0.781-0.469,1.758c0,0.39-0.078,0.703-0.234,0.938l-0.762,0.586c-0.352,0.234-0.82,0.39-1.406,0.469h-0.234
		c-0.195,0-0.527-0.079-0.996-0.234c-0.391-0.234-0.488-0.391-0.293-0.469c0.078-0.04,0.234-0.176,0.469-0.41
		c0.586-0.508,0.957-1.387,1.113-2.637c0.156-1.406,0.234-3.164,0.234-5.273c0-5.937-0.098-9.003-0.293-9.199
		c-0.039-0.078-0.254-0.156-0.645-0.234h-0.293c-0.156,0-0.352,0.04-0.586,0.117c-0.469,0.079-1.172,0.117-2.109,0.117
		c-0.977,0-1.621-0.039-1.934-0.117c-0.234-0.117-0.469-0.176-0.703-0.176c-0.273,0-0.527-0.195-0.762-0.586
		c-0.234-0.234-0.352-0.469-0.352-0.703l-0.059-0.293l0.117-0.703c0.117-0.312,0.234-0.566,0.352-0.762
		c0.156-0.156,0.41-0.293,0.762-0.41c0.586-0.195,1.367-0.762,2.344-1.699l2.051-1.934c0.977-0.859,1.523-1.503,1.641-1.934
		c0.039-0.195,0.059-0.469,0.059-0.82l-0.059-0.41l0.059-0.586c0.195-0.938,0.293-1.542,0.293-1.816l0.176-1.172l0.293-1.348
		c0-0.078,0.059-0.117,0.176-0.117s0.352,0.117,0.703,0.352c0.273,0.196,0.43,0.41,0.469,0.645c0,0.079,0.078,0.274,0.234,0.586
		c0.391,0.703,0.508,1.27,0.352,1.699c-0.156,0.313-0.137,0.43,0.059,0.352c0.117-0.078,0.41-0.352,0.879-0.82
		c1.172-1.367,1.758-2.265,1.758-2.695v-0.059c0-0.117,0.078-0.293,0.234-0.527c0.195-0.195,0.41-0.293,0.645-0.293
		c0.117,0,0.332,0.04,0.645,0.117C345.239,24.598,345.845,24.891,345.962,25.125z M341.567,17.566
		c0.039,0.117-0.02,0.254-0.176,0.41c-0.117,0.04-0.586,0.352-1.406,0.938c-0.781,0.703-1.836,1.348-3.164,1.934
		c-1.289,0.547-2.344,0.82-3.164,0.82c-1.211,0-2.07-0.332-2.578-0.996c-0.234-0.195-0.352-0.371-0.352-0.527
		c0-0.117,0.195-0.293,0.586-0.527l1.172-0.703c1.172-0.429,2.285-0.8,3.34-1.113l1.172-0.41c0.117-0.078,0.322-0.156,0.615-0.234
		c0.293-0.078,0.518-0.136,0.674-0.176c0.703-0.078,1.152-0.117,1.348-0.117c0.703,0,1.23,0.117,1.582,0.352
		C341.411,17.332,341.528,17.449,341.567,17.566z M333.013,22.547c0.117,0.04,0.195,0.117,0.234,0.234
		c0.078,0.352,0.469,1.094,1.172,2.227c0.234,0.469,0.41,0.958,0.527,1.465c0.078,0.625,0.176,1.036,0.293,1.23l0.176,1.289
		c0.117,0.625,0.273,0.977,0.469,1.055c0.195,0.04,0.293,0.196,0.293,0.469c0,0.234-0.098,0.45-0.293,0.645
		c-0.234,0.234-0.449,0.313-0.645,0.234c-0.156-0.078-0.488-0.429-0.996-1.055c-0.234-0.312-0.352-0.507-0.352-0.586
		c0-0.117-0.117-0.312-0.352-0.586c-0.273-0.469-0.566-1.641-0.879-3.516c-0.078-0.234-0.117-0.605-0.117-1.113
		c0-0.39,0.02-0.683,0.059-0.879c0.078-0.625,0.137-0.957,0.176-0.996C332.778,22.586,332.856,22.547,333.013,22.547z
		 M337.056,32.977c-0.078-0.078-0.391,0.157-0.938,0.703c-0.508,0.43-0.898,0.723-1.172,0.879c-0.273,0.117-0.605,0.45-0.996,0.996
		c-0.664,0.977-0.996,1.543-0.996,1.699c0,0.04,0.215,0.059,0.645,0.059h2.93c0.352-0.078,0.566-0.176,0.645-0.293
		c0.039-0.117,0.059-0.645,0.059-1.582c0-0.703-0.01-1.201-0.029-1.494s-0.029-0.478-0.029-0.557
		C337.173,33.192,337.134,33.055,337.056,32.977z"/>
</g>
</svg>
