<?xml version="1.0" encoding="utf-8"?>
<!-- Generator: Adobe Illustrator 16.0.0, SVG Export Plug-In . SVG Version: 6.00 Build 0)  -->
<!DOCTYPE svg PUBLIC "-//W3C//DTD SVG 1.1//EN" "http://www.w3.org/Graphics/SVG/1.1/DTD/svg11.dtd">
<svg version="1.1" id="圖層_1" xmlns="http://www.w3.org/2000/svg" xmlns:xlink="http://www.w3.org/1999/xlink" x="0px" y="0px"
	 width="237px" height="60.5px" viewBox="0 0 237 60.5" enable-background="new 0 0 237 60.5" xml:space="preserve">
<g>
	<path fill="#FFFFFF" d="M17.346,6.344c0,1.797,0.059,3.047,0.176,3.75c0,0.04,0.059,0.059,0.176,0.059s0.566-0.097,1.348-0.293
		c3.007-0.898,5.371-1.348,7.09-1.348c0.352,0,0.8,0.04,1.348,0.117c0.429,0.079,0.664,0.176,0.703,0.293
		c0.078,0.079-0.04,0.196-0.352,0.352c-0.157,0.117-1.094,0.547-2.813,1.289l-2.051,0.996c-0.665,0.391-1.289,0.684-1.875,0.879
		c-1.719,0.547-2.715,0.958-2.988,1.23l-0.059,0.586c0,1.289,0.097,3.105,0.293,5.449l0.293,4.16
		c0.234,4.063,0.39,6.133,0.469,6.211c0.117,0.079,0.449-0.214,0.996-0.879c1.093-1.132,2.07-2.089,2.93-2.871
		c0.938-0.82,1.562-1.23,1.875-1.23c0.234,0,0.352,0.079,0.352,0.234c0,0.196-0.215,0.606-0.645,1.23l-0.527,0.645
		c-0.157,0.157-0.469,0.586-0.938,1.289c-0.508,0.82-1.329,1.875-2.461,3.164c-0.703,0.82-1.192,1.446-1.465,1.875
		c-0.196,0.391-0.215,0.684-0.059,0.879c0.117,0.234,0.82,0.645,2.109,1.23c0.703,0.313,1.152,0.567,1.348,0.762
		c0.312,0.234,0.507,0.352,0.586,0.352c0.234,0,1.074,0.372,2.52,1.113c0.703,0.391,1.66,0.86,2.871,1.406l1.23,0.645l0.703,0.176
		c0.117,0,0.312,0.079,0.586,0.234l1.641,0.703c0.938,0.391,1.621,0.703,2.051,0.938l2.52,1.172
		c2.695,1.172,4.199,1.915,4.512,2.227c0.273,0.234,0.39,0.547,0.352,0.938c-0.079,0.352-0.157,0.586-0.234,0.703
		c-0.04,0.039-0.41,0.097-1.113,0.176h-0.586c-0.43,0-0.723-0.02-0.879-0.059l-1.055-0.352c-1.563-0.312-3.653-1.132-6.27-2.461
		l-1.758-0.762c-0.391-0.078-0.645-0.176-0.762-0.293l-2.109-1.113l-1.875-0.879c-0.079,0-0.254-0.078-0.527-0.234
		c-1.485-1.015-2.578-1.718-3.281-2.109c-0.547-0.195-0.86-0.39-0.938-0.586c-0.352-0.234-0.606-0.39-0.762-0.469l-0.586-0.293
		l-0.293,0.293c-0.117,0.313-0.196,0.879-0.234,1.699c-0.04,0.313-0.059,0.723-0.059,1.23c0,0.313,0.019,0.508,0.059,0.586
		c0.117,0.234,0.176,1.211,0.176,2.93v2.051c-0.04,2.695-0.176,4.707-0.41,6.035c-0.274,1.875-1.113,2.813-2.52,2.813
		c-0.43,0-0.743-0.079-0.938-0.234c-0.313-0.196-0.43-0.41-0.352-0.645c0-0.234,0.156-0.313,0.469-0.234
		c0.352,0,0.546-0.117,0.586-0.352c0.078-0.313,0.117-1.406,0.117-3.281c0-1.837-0.02-3.379-0.059-4.629
		c-0.117-4.882-0.234-7.421-0.352-7.617c-0.079-0.078-0.234-0.039-0.469,0.117c-0.079,0.04-0.41,0.352-0.996,0.938
		c-0.274,0.274-0.684,0.762-1.23,1.465c-0.899,1.094-2.09,2.422-3.574,3.984c-1.68,1.758-2.559,2.637-2.637,2.637
		c-0.196,0-0.43-0.098-0.703-0.293c-0.274-0.157-0.41-0.312-0.41-0.469c-0.196-0.664,1.093-2.382,3.867-5.156
		c0.898-0.898,1.835-1.934,2.813-3.105l2.168-2.52c0.429-0.546,0.645-0.938,0.645-1.172c0-0.273,0.117-0.488,0.352-0.645
		l0.352-0.352l-0.059-2.871c-0.04-3.203-0.157-4.922-0.352-5.156l-0.234-0.059l-0.469,0.117c-0.274,0.117-0.606,0.176-0.996,0.176
		c-0.899,0-1.856-0.312-2.871-0.938c-0.586-0.352-1.113-0.722-1.582-1.113c-0.508-0.507-0.84-0.722-0.996-0.645
		c-0.196,0.117-0.489,0.782-0.879,1.992c-0.469,1.368-0.879,2.227-1.23,2.578c-0.157,0.157-0.333,0.234-0.527,0.234
		c-0.274,0-0.508-0.097-0.703-0.293c-0.234-0.195-0.352-0.645-0.352-1.348c0-1.21,0.352-2.656,1.055-4.336l0.527-2.051l0.469-1.523
		l-0.352-0.293c-0.234-0.156-0.665-0.214-1.289-0.176h-0.41c-0.469,0-0.84-0.078-1.113-0.234c-0.391-0.156-0.586-0.449-0.586-0.879
		c0-0.781,0.469-1.308,1.406-1.582c0.156-0.078,0.332-0.146,0.527-0.205c0.195-0.059,0.39-0.146,0.586-0.264l1.113-0.41
		c0.156-0.078,0.566-0.273,1.23-0.586c0.312-0.195,0.566-0.293,0.762-0.293c0.312-0.039,1.172-0.352,2.578-0.938l0.996-0.352
		c0.195,0,0.645-0.136,1.348-0.41c0.742-0.273,1.191-0.527,1.348-0.762c0.078-0.156,0.117-0.332,0.117-0.527l-0.059-0.645
		c-0.079-0.625-0.117-1.113-0.117-1.465c0-0.938,0.117-2.011,0.352-3.223C15.139,4.469,15.314,4,15.588,3.766
		c0.195-0.195,0.39-0.293,0.586-0.293c0.234,0,0.488,0.137,0.762,0.41l0.41,0.469V6.344z M14.358,14.957
		c0,0-0.762,0.391-2.285,1.172c-0.352,0.234-0.84,0.45-1.465,0.645c-0.508,0.157-0.918,0.333-1.23,0.527
		c-0.352,0.196-0.567,0.567-0.645,1.113c-0.04,0.234-0.059,0.547-0.059,0.938c0,0.43,0.039,0.743,0.117,0.938
		c0.117,0.508,0.332,0.762,0.645,0.762c0.234,0,0.645,0.176,1.23,0.527c0.586,0.43,1.113,0.84,1.582,1.23
		c0.625,0.625,0.976,0.938,1.055,0.938c0,0.04,0.039,0.059,0.117,0.059h0.234c0.078,0.04,0.195,0.059,0.352,0.059
		c0.117,0.04,0.293,0.059,0.527,0.059s0.41-0.039,0.527-0.117l0.469-0.117l-0.059-1.23l-0.176-2.93v-1.641l-0.117-1.465
		c0-0.898-0.098-1.348-0.293-1.348C14.534,14.997,14.358,14.957,14.358,14.957z M26.135,16.715c0,0.234-0.137,0.469-0.41,0.703
		c-0.352,0.196-0.625,0.567-0.82,1.113c-0.157,0.508-0.215,0.938-0.176,1.289c0.156,0.274,0.352,0.489,0.586,0.645
		c0.234,0.157,0.527,0.333,0.879,0.527c0.273,0.157,0.586,0.274,0.938,0.352c0.586,0.079,1.015,0.274,1.289,0.586
		c0.156,0.196,0.234,0.41,0.234,0.645c0,0.117-0.04,0.293-0.117,0.527c-0.157,0.469-0.762,0.743-1.816,0.82
		C26.096,24,25.744,24.02,25.667,23.98c-0.352-0.117-0.703-0.273-1.055-0.469l-0.527-0.293l-0.352-0.234l-0.293-0.293l-0.586-0.879
		c-0.43-0.781-0.645-1.386-0.645-1.816c0-0.976,0.273-1.972,0.82-2.988c0.156-0.273,0.488-0.566,0.996-0.879
		c0.469-0.273,0.839-0.41,1.113-0.41c0.234,0,0.449,0.098,0.645,0.293C26.018,16.246,26.135,16.48,26.135,16.715z"/>
	<path fill="#FFFFFF" d="M51.023,28.023c0,1.446-0.352,2.969-1.055,4.57c-0.274,0.665-0.567,1.143-0.879,1.436
		c-0.313,0.293-0.586,0.401-0.82,0.322h-0.176c-0.196,0-0.372,0.04-0.527,0.117c-0.234,0.157-0.372,0.352-0.41,0.586H46.57
		c-0.625-0.039-1.23-0.703-1.816-1.992c-0.547-1.055-0.958-2.187-1.23-3.398c-0.04-0.352-0.196-1.055-0.469-2.109
		c-0.234-0.546-0.352-1.21-0.352-1.992c-0.079-0.898-0.157-1.542-0.234-1.934c-0.04-0.156-0.059-0.371-0.059-0.645
		c0-0.352,0.097-0.664,0.293-0.938c0.195-0.39,0.312-0.605,0.352-0.645l0.059-0.176c-0.04-0.039-0.01-0.078,0.088-0.117
		c0.097-0.039,0.205-0.039,0.322,0c0.507,0.157,0.938,0.352,1.289,0.586c0.234,0.196,0.586,0.41,1.055,0.645
		c0.078,0.04,0.156,0.196,0.234,0.469c0.039,0.547,0.117,0.879,0.234,0.996c0.234,0.274,0.762,0.41,1.582,0.41
		c0.664,0,1.23,0.098,1.699,0.293c0.352,0.117,0.645,0.469,0.879,1.055C50.848,26.071,51.023,26.891,51.023,28.023z M47.859,28.434
		c0-0.352-0.059-0.762-0.176-1.23c-0.313-0.742-0.586-1.093-0.82-1.055c-0.352,0.04-0.527,0.45-0.527,1.23
		c0,0.977,0.029,1.641,0.088,1.992s0.166,0.586,0.322,0.703c0.117,0.117,0.234,0.176,0.352,0.176c0.234,0,0.41-0.195,0.527-0.586
		c0.039-0.078,0.078-0.176,0.117-0.293c0.039-0.117,0.059-0.253,0.059-0.41C47.839,28.844,47.859,28.668,47.859,28.434z
		 M76.727,19.762v1.758c-0.04,0.079-0.176,0.333-0.41,0.762l-0.527,1.289c0,0.079-0.04,0.157-0.117,0.234
		c0,0.079-0.04,0.137-0.117,0.176c-0.117,0.391-0.645,1.113-1.582,2.168c-1.055,0.938-1.954,1.563-2.695,1.875
		c-0.782,0.352-1.368,0.586-1.758,0.703c-0.274,0.079-0.508,0.205-0.703,0.381c-0.196,0.176-0.313,0.342-0.352,0.498
		c-0.079,0.234-0.117,0.527-0.117,0.879l0.059,1.699l0.176,3.574l0.176,3.164c0.078,1.211,0.019,2.149-0.176,2.813
		c-0.117,0.782-0.157,1.387-0.117,1.816c0.039,0.665,0,1.504-0.117,2.52c-0.196,1.328-0.391,2.323-0.586,2.988l-0.41,1.113
		c-0.274,0.038-0.567,0.272-0.879,0.703c-0.196,0.195-0.362,0.322-0.498,0.381c-0.137,0.059-0.284,0.067-0.439,0.029l-0.117-0.059
		h-0.234l0.117-0.117c0.273-0.508,0.429-1.348,0.469-2.52l-0.059-3.281v-2.285c-0.04-0.742-0.059-2.031-0.059-3.867
		c-0.079-3.32-0.167-5.664-0.264-7.031c-0.098-1.367-0.264-2.128-0.498-2.285c-0.196-0.078-0.723-0.136-1.582-0.176
		c-1.329-0.039-2.344-0.214-3.047-0.527c-0.117-0.039-0.254-0.059-0.41-0.059c-0.274,0-0.469,0.079-0.586,0.234
		c-0.157,0.079-0.333,0.117-0.527,0.117c-0.547,0-1.124-0.615-1.729-1.846c-0.606-1.23-1.201-2.998-1.787-5.303
		c-0.196-0.859-0.352-2.402-0.469-4.629c-0.079-1.055-0.117-1.846-0.117-2.373s0-0.85,0-0.967v-0.059
		c0-0.156,0.097-0.234,0.293-0.234c0.273,0,0.645,0.176,1.113,0.527c0.898,0.43,1.465,1.016,1.699,1.758
		c0.117,0.157,0.195,1.075,0.234,2.754c0.078,1.875,0.156,3.105,0.234,3.691l0.176,1.758c0.078,0.703,0.332,1.055,0.762,1.055
		c0.156,0.04,0.781-0.078,1.875-0.352c2.265-0.742,3.476-1.25,3.633-1.523l0.059-0.234l-0.117-1.055c0-0.469-0.02-0.839-0.059-1.113
		l-0.117-3.34c0-0.781,0.039-1.289,0.117-1.523c0.156-0.507,0.293-0.722,0.41-0.645c0.234,0.079,0.664,0.372,1.289,0.879
		c0.273,0.196,0.566,0.469,0.879,0.82v0.059l0.117,0.176c0.039,0,0.068,0.108,0.088,0.322c0.019,0.215,0.048,0.557,0.088,1.025
		c0.078,0.977,0.176,1.699,0.293,2.168c0.078,0.547,0.117,0.879,0.117,0.996c0.039,0.079,0.059,0.196,0.059,0.352
		c0.117,0.352,0.469,0.527,1.055,0.527c0.312,0,0.742-0.059,1.289-0.176l0.234-0.117l0.996-0.352c0.507,0,0.976-0.39,1.406-1.172
		c0.429-0.938,0.645-1.894,0.645-2.871c0-0.429-0.098-1.035-0.293-1.816c-0.313-1.172-0.743-1.953-1.289-2.344
		c-0.508-0.273-1.25-0.41-2.227-0.41c-0.86,0-1.836,0.079-2.93,0.234c-0.117,0.079-0.352,0.117-0.703,0.117
		c-0.234,0-0.41-0.019-0.527-0.059c-0.079-0.039-0.167-0.068-0.264-0.088c-0.098-0.019-0.225-0.068-0.381-0.146
		c-0.313-0.312-0.645-0.488-0.996-0.527h-0.059c0.117-0.117,0.293-0.234,0.527-0.352c0.156-0.078,0.273-0.117,0.352-0.117
		c0.117-0.117,0.195-0.185,0.234-0.205c0.039-0.019,0.097-0.009,0.176,0.029h0.059h0.059c0.273-0.117,0.527-0.195,0.762-0.234h0.176
		l0.586-0.176l0.176-0.059H67c0.156,0,0.253-0.019,0.293-0.059h0.059c0.117-0.039,0.527-0.059,1.23-0.059
		c1.758,0,2.832,0.098,3.223,0.293c1.718,0.508,3.066,1.622,4.043,3.34c0.234,0.391,0.429,0.801,0.586,1.23
		c0.117,0.274,0.195,0.586,0.234,0.938C76.707,18.219,76.727,18.824,76.727,19.762z M64.949,27.086c0-0.273-0.02-0.429-0.059-0.469
		c-0.274-0.273-0.508-0.41-0.703-0.41c-0.352,0-1.172,0.313-2.461,0.938c-0.04-0.039-0.098-0.029-0.176,0.029
		c-0.079,0.059-0.157,0.108-0.234,0.146h-0.059c-0.157,0-0.313,0.059-0.469,0.176c-0.313,0-0.469,0.098-0.469,0.293
		c0,0.196,0.097,0.391,0.293,0.586c0.117,0.157,0.234,0.234,0.352,0.234c0.234,0.117,0.527,0.176,0.879,0.176
		c0.312,0,0.859-0.078,1.641-0.234c0.898-0.234,1.386-0.645,1.465-1.23V27.086z M60.965,28.609l-0.234-0.117h0.234V28.609z
		 M63.602,13.258l0.234,0.117h-0.059l-0.234,0.117l-0.117-0.176l0.059-0.059H63.602z M64.188,13.785h0.059l0.645,0.117l-0.117,0.176
		L64.188,13.785z"/>
	<path fill="#FFFFFF" d="M95.798,7.633c0.078,0.157,0.117,0.313,0.117,0.469c0,0.117-0.01,0.274-0.029,0.469
		c-0.02,0.196,0.029,0.352,0.146,0.469c0.234,0.157,0.39,0.234,0.469,0.234c0.117,0,0.332-0.078,0.645-0.234l0.879-0.176
		c0.352,0,0.546,0.059,0.586,0.176l0.059,0.234l-0.117,0.469c-0.079,0.313-0.157,0.489-0.234,0.527
		c-0.04,0.04-0.372,0.234-0.996,0.586L95.798,11.5c-0.157,0.157-0.372,0.45-0.645,0.879c-0.352,0.625-0.567,1.055-0.645,1.289
		c0,0.079-0.196,0.606-0.586,1.582l-0.352,0.879c0,0.04,0.039,0.059,0.117,0.059c0.195,0,0.546-0.136,1.055-0.41
		c0.507-0.273,0.859-0.41,1.055-0.41c0.234,0,0.762-0.136,1.582-0.41c0.781-0.273,1.348-0.41,1.699-0.41
		c0.39,0,0.625,0.157,0.703,0.469v0.117c0,0.274-0.176,0.527-0.527,0.762c-0.352,0.157-0.684,0.41-0.996,0.762
		c-0.313,0.313-0.84,0.684-1.582,1.113c-0.938,0.625-1.426,0.938-1.465,0.938c-0.625,0.508-1.875,1.094-3.75,1.758
		c-0.469,0.157-1.055,0.234-1.758,0.234c-1.211-0.078-1.836-0.449-1.875-1.113c0-0.234,0.078-0.488,0.234-0.762
		c0.117-0.234,0.273-0.352,0.469-0.352c0.625,0,1.289-0.39,1.992-1.172c0.429-0.429,0.703-0.898,0.82-1.406l0.234-1.523
		c0.195-0.82,0.176-1.23-0.059-1.23c-0.196,0-0.586,0.137-1.172,0.41c-0.703,0.274-1.192,0.41-1.465,0.41
		c-0.157,0-0.625,0.098-1.406,0.293c-0.743,0.196-1.446,0.274-2.109,0.234c-1.523-0.195-2.344-0.429-2.461-0.703l-0.059-0.234
		c0-0.273,0.253-0.429,0.762-0.469c0.469-0.117,2.227-0.879,5.273-2.285c0.507-0.234,0.938-0.352,1.289-0.352
		c0.312,0,0.488-0.059,0.527-0.176c0.078-0.078,0.253-0.117,0.527-0.117c0.312,0,0.527-0.078,0.645-0.234
		c0.117-0.156,0.253-0.722,0.41-1.699c0.117-0.859,0.214-1.425,0.293-1.699c0.078-0.078,0.195-0.117,0.352-0.117
		c0.273,0,0.645,0.059,1.113,0.176C94.978,6.735,95.563,7.086,95.798,7.633z M103.767,40.387c0.664,0,0.996,0.215,0.996,0.645
		c0,0.586-0.762,1.113-2.285,1.582l-1.758,0.469c-1.172,0.352-3.36,1.133-6.563,2.344c-1.563,0.547-3.398,1.153-5.508,1.816
		c-1.915,0.586-3.105,0.879-3.574,0.879c-0.665,0-1.192-0.176-1.582-0.527c-0.469-0.43-0.625-0.781-0.469-1.055
		c0.039-0.117,0.273-0.214,0.703-0.293c0.469-0.078,1.132-0.312,1.992-0.703c1.093-0.352,1.738-0.546,1.934-0.586
		c0.273-0.039,0.683-0.176,1.23-0.41c0.352-0.195,0.859-0.41,1.523-0.645c2.344-0.781,3.554-1.21,3.633-1.289
		c0.117-0.117,0.312-0.176,0.586-0.176c0.195,0,0.332-0.039,0.41-0.117c0.078-0.039,0.664-0.214,1.758-0.527l2.695-0.703
		c0.781-0.234,1.542-0.41,2.285-0.527C102.672,40.445,103.336,40.387,103.767,40.387z M98.61,33.004
		c0.546,0.157,0.898,0.352,1.055,0.586c0.039,0.079,0.059,0.215,0.059,0.41c0,0.234-0.04,0.43-0.117,0.586
		c-0.079,0.43-0.293,0.801-0.645,1.113c-0.352,0.508-0.547,0.82-0.586,0.938c-0.157,0.234-0.352,0.469-0.586,0.703l-0.879,0.879
		c-0.234,0.196-0.547,0.41-0.938,0.645c-0.469,0.274-0.82,0.527-1.055,0.762c-0.274,0.274-0.684,0.527-1.23,0.762l-1.582,0.879
		l-0.996,0.469c-0.157,0-0.372,0.098-0.645,0.293c-0.899,0.665-1.387,0.86-1.465,0.586l-0.059-0.117
		c0-0.195,0.234-0.429,0.703-0.703c0.39-0.234,0.605-0.41,0.645-0.527v-0.059c0-0.078-0.157-0.371-0.469-0.879
		c-0.352-0.546-0.547-0.957-0.586-1.23c-0.079-0.273-0.157-0.879-0.234-1.816l-0.059-1.055l0.059-0.586
		c0.039-0.117,0.117-0.234,0.234-0.352c0.039-0.039,0.234-0.059,0.586-0.059c1.328,0.079,2.128,0.274,2.402,0.586
		c0.117,0.117,0.214,0.352,0.293,0.703c0,0.313,0.039,0.508,0.117,0.586h0.059c0.195,0,0.507-0.273,0.938-0.82
		c0.39-0.507,0.82-1.152,1.289-1.934l0.703-1.406l0.762-0.059l1.055-0.117C97.711,32.77,98.102,32.848,98.61,33.004z M92.81,22.398
		c-0.196,0.274-0.41,0.645-0.645,1.113c-0.157,0.391-0.157,0.625,0,0.703c0.156,0.117,0.371,0.176,0.645,0.176
		c0.234,0,0.488-0.078,0.762-0.234c0.312-0.195,1.093-0.293,2.344-0.293c1.015,0,1.679,0.059,1.992,0.176
		c0.234,0.117,0.507,0.45,0.82,0.996c0.117,0.234,0.176,0.645,0.176,1.23c0,1.719-0.489,3.067-1.465,4.043
		c-0.508,0.508-0.762,0.782-0.762,0.82c0,0.117-0.137,0.254-0.41,0.41c-0.508,0.313-0.82,0.527-0.938,0.645
		c-0.274,0.274-0.508,0.41-0.703,0.41c-0.234,0-0.547,0.137-0.938,0.41c-0.469,0.234-0.879,0.41-1.23,0.527l-0.645,0.059
		l-0.469-0.82c-0.352-0.664-0.547-1.367-0.586-2.109c-0.079-1.015-0.117-2.265-0.117-3.75c0-1.562,0.039-2.539,0.117-2.93
		c0.078-0.234,0.293-0.507,0.645-0.82l0.879-1.055c0.469-0.546,0.762-0.683,0.879-0.41C93.161,21.813,93.044,22.047,92.81,22.398z
		 M96.501,48.824c-0.079,0.313-0.02,0.507,0.176,0.586c0.195,0.078,0.429,0.097,0.703,0.059l1.582-0.176h0.469
		c0.507,0,0.898,0.078,1.172,0.234c0.742,0.469,1.113,1.386,1.113,2.754v1.348l-0.645,0.586c-0.82,0.781-1.758,1.25-2.813,1.406
		l-1.23,0.176c-0.274,0.078-0.489,0.293-0.645,0.645c-0.079,0.234-0.137,0.371-0.176,0.41l-0.234,0.117
		c-0.079,0.038-0.254,0.059-0.527,0.059c-0.352,0-0.743-0.117-1.172-0.352c-0.743-0.352-1.113-1.055-1.113-2.109
		c0-0.273,0.019-0.489,0.059-0.645c0.078-0.859,0.097-1.816,0.059-2.871c-0.04-2.266,0.039-3.614,0.234-4.043
		c0.117-0.195,0.293-0.293,0.527-0.293c0.273,0,0.664,0.176,1.172,0.527C96.149,47.828,96.579,48.355,96.501,48.824z M93.981,29.195
		c0.117,0.117,0.195,0.157,0.234,0.117c0.156-0.312,0.312-0.683,0.469-1.113c0.195-0.625,0.273-0.957,0.234-0.996
		c-0.04-0.117-0.117-0.176-0.234-0.176c-0.196,0-0.41,0.333-0.645,0.996l-0.059,0.352C93.864,28.844,93.864,29.118,93.981,29.195z
		 M97.907,51.695c-0.117-0.079-0.333,0.195-0.645,0.82c-0.313,0.586-0.45,0.917-0.41,0.996c0.078,0.117,0.176,0.176,0.293,0.176
		c0.195,0,0.41-0.176,0.645-0.527c0.195-0.391,0.293-0.703,0.293-0.938C98.043,51.949,97.985,51.773,97.907,51.695z M113.317,7.984
		c0.703-0.703,1.21-1.132,1.523-1.289c0.312-0.195,0.469-0.253,0.469-0.176l-0.059,0.352v0.117c0,0.157,0.059,0.352,0.176,0.586
		c0.195,0.274,0.293,0.469,0.293,0.586c0,0.508,0.332,0.665,0.996,0.469c0.313-0.117,0.957-0.214,1.934-0.293h0.527
		c0.703,0,1.172,0.079,1.406,0.234c0.273,0.196,0.313,0.41,0.117,0.645c-0.078,0.234-0.234,0.391-0.469,0.469
		c-0.938,0.352-2.09,0.86-3.457,1.523l-1.875,0.82c-0.703,0.274-1.133,0.527-1.289,0.762c-0.079,0.157-0.117,0.293-0.117,0.41
		c0,0.157,0.059,0.352,0.176,0.586c0.273,0.508,0.664,0.762,1.172,0.762c0.234,0,0.41-0.019,0.527-0.059
		c0.781-0.312,1.738-0.82,2.871-1.523c0.547-0.273,1.035-0.41,1.465-0.41c0.781,0,1.289,0.079,1.523,0.234
		c0.234,0.157,0.352,0.391,0.352,0.703c0,0.469-0.234,0.938-0.703,1.406c-0.391,0.43-0.918,0.801-1.582,1.113
		c-1.055,0.508-2.148,0.762-3.281,0.762c-0.899,0-1.797-0.176-2.695-0.527c-0.665-0.312-1.348-0.82-2.051-1.523l-0.879-1.055
		l-0.703,0.234c-0.43,0.157-1.016,0.234-1.758,0.234c-1.329,0-2.168-0.176-2.52-0.527c-0.157-0.039-0.234-0.136-0.234-0.293
		c0-0.078,0.059-0.176,0.176-0.293l0.469-0.293l0.762-0.293l1.641-0.762c0.39-0.195,0.645-0.293,0.762-0.293
		c0.117-0.078,0.469-0.214,1.055-0.41l0.527-0.293l0.586-0.234c0.195-0.078,0.449-0.352,0.762-0.82
		C112.146,9.313,112.614,8.766,113.317,7.984z M121.11,30.25c0.273-0.195,0.859-0.273,1.758-0.234c0.977,0,1.621,0.079,1.934,0.234
		c0.313,0.196,0.469,0.469,0.469,0.82c0.117,1.055-1.094,2.285-3.633,3.691c-0.781,0.469-1.25,0.782-1.406,0.938
		c-0.352,0.274-0.703,0.489-1.055,0.645c-2.539,1.25-3.906,1.992-4.101,2.227c-0.196,0.196-0.176,0.293,0.059,0.293l0.879-0.234
		c1.796-0.625,3.71-1.172,5.742-1.641c0.195-0.078,1.074-0.293,2.637-0.645c1.406-0.352,2.246-0.527,2.52-0.527l1.406-0.117
		c0.273-0.078,0.645-0.117,1.113-0.117s0.801,0.04,0.996,0.117c0.703,0.079,1.074,0.196,1.113,0.352
		c0.039,0.157,0.039,0.352,0,0.586c-0.039,0.274-0.176,0.45-0.41,0.527c-1.25,0.625-2.266,0.938-3.047,0.938
		c-0.469,0-1.055,0.098-1.758,0.293l-1.582,0.41c-0.43,0.04-0.898,0.157-1.406,0.352l-3.867,1.055l-2.051,0.645l-2.988,0.879
		c-1.406,0.43-2.598,0.86-3.574,1.289c-0.977,0.352-1.778,0.527-2.402,0.527c-0.625,0-1.055-0.059-1.289-0.176
		c-0.157-0.078-0.293-0.176-0.41-0.293c-0.04-0.039-0.059-0.253-0.059-0.645c0.078-0.39,0.136-0.605,0.176-0.645
		c0.078-0.078,0.253-0.176,0.527-0.293c0.312-0.078,0.996-0.371,2.051-0.879c1.093-0.469,1.816-0.839,2.168-1.113
		c0.312-0.195,0.469-0.371,0.469-0.527c0-0.039-0.157-0.469-0.469-1.289c-0.313-1.055-0.586-2.207-0.82-3.457
		c-0.157-0.664-0.157-1.074,0-1.23c0.156-0.078,0.41-0.117,0.762-0.117c0.82,0,1.465,0.079,1.934,0.234
		c0.234,0.157,0.449,0.391,0.645,0.703c0.078,0.196,0.214,0.723,0.41,1.582c0.078,0.469,0.136,0.723,0.176,0.762
		c0.078,0.157,0.214,0.254,0.41,0.293l0.234,0.059c0.234,0,0.507-0.156,0.82-0.469l2.402-2.637c1.016-1.132,1.602-1.855,1.758-2.168
		C120.622,30.739,120.875,30.407,121.11,30.25z M114.606,20.875c0.273,0.234,0.625,0.293,1.055,0.176
		c0.39-0.078,1.113-0.156,2.167-0.234c0.859,0,1.445,0.04,1.758,0.117c0.977,0.508,1.582,1.543,1.816,3.105v0.527
		c0,0.665-0.02,1.211-0.059,1.641c-0.078,0.938-0.195,1.543-0.352,1.816c-0.391,0.547-1.191,1.211-2.402,1.992
		c-0.781,0.547-2.012,0.938-3.691,1.172c-0.665,0.079-1.075,0.157-1.23,0.234c-0.079,0.079-0.117,0.079-0.117,0
		c-0.04,0-0.04-0.059,0-0.176c0-0.117,0.332-0.352,0.996-0.703c1.055-0.546,1.835-1.328,2.343-2.344
		c0.625-1.25,0.938-2.382,0.938-3.398c0-0.546-0.059-1.015-0.176-1.406c-0.117-0.39-0.254-0.586-0.41-0.586
		c-0.078,0-0.273,0.157-0.586,0.469c-0.273,0.196-0.625,0.645-1.054,1.348c-0.391,0.625-0.586,1.113-0.586,1.465
		c0,0.117-0.04,0.254-0.117,0.41c-0.234,0.234-0.527,1.192-0.879,2.871c-0.04,0.352-0.117,0.645-0.234,0.879
		c-0.117,0.157-0.313,0.234-0.586,0.234c-0.313,0-0.547-0.195-0.703-0.586c-0.157-0.273-0.234-0.917-0.234-1.934
		c0-2.187,0.097-3.593,0.293-4.219c0.429-1.718,0.781-2.813,1.055-3.281c0.156-0.195,0.283-0.312,0.381-0.352
		c0.097-0.039,0.166,0.02,0.205,0.176C114.196,20.523,114.333,20.719,114.606,20.875z M119.293,43.902
		c0.078,0.157,0.156,0.703,0.234,1.641l0.117,1.406l0.938-0.059c0.586,0,0.977-0.059,1.172-0.176
		c0.234-0.117,0.703-0.176,1.406-0.176c0.703,0.079,1.191,0.196,1.465,0.352c0.625,0.273,1.172,0.859,1.641,1.758
		c0.195,0.39,0.293,0.8,0.293,1.23c0,0.547-0.137,1.113-0.41,1.699c-0.234,0.507-0.664,0.957-1.289,1.348l-1.348,0.82
		c-0.938,0.624-2.402,1.133-4.395,1.523c-0.82,0.155-1.563,0.254-2.227,0.293h-0.41c-0.585,0-1.074-0.098-1.464-0.293
		c-0.391-0.234-0.645-0.566-0.762-0.996c-0.079-0.234-0.117-0.391-0.117-0.469c0-0.156,0.078-0.313,0.234-0.469
		c0.156-0.039,0.293,0.038,0.41,0.234c0.312,0.43,0.488,0.41,0.527-0.059v-0.527c0-0.352,0.039-0.684,0.117-0.996
		c0.117-0.234,0.214-1.134,0.293-2.695c0.195-3.828,0.429-5.878,0.703-6.152c0.039-0.078,0.176-0.117,0.41-0.117
		c0.352,0,0.82,0.117,1.406,0.352C118.825,43.571,119.176,43.747,119.293,43.902z M119.997,49.762
		c-0.469,0.469-0.82,1.034-1.055,1.699c-0.234,0.82-0.254,1.289-0.059,1.406c0.195,0.078,0.781-0.117,1.758-0.586
		c0.898-0.431,1.465-0.82,1.699-1.172c0.234-0.391,0.352-0.801,0.352-1.23c0-0.313-0.059-0.625-0.176-0.938
		c-0.039-0.234-0.176-0.352-0.41-0.352C121.598,48.59,120.895,48.979,119.997,49.762z"/>
	<path fill="#FFFFFF" d="M140.962,32.477c0,0,0.41-0.214,1.23-0.645c0.624-0.312,1.151-0.41,1.582-0.293l0.938,0.117
		c0.078,0.079,0.117,0.157,0.117,0.234c0,0.234-0.255,0.665-0.762,1.289c-0.313,0.391-0.724,0.938-1.23,1.641
		c-0.196,0.352-0.469,0.703-0.82,1.055c-0.273,0.274-0.41,0.508-0.41,0.703l-0.293,0.527l-0.645,0.938l-0.762,0.879
		c-0.391,0.274-0.742,0.45-1.055,0.527h-0.234c-0.313,0-0.703-0.059-1.172-0.176c-0.508-0.156-0.841-0.312-0.996-0.469
		c-0.156-0.117-0.273-0.352-0.352-0.703l-0.059-0.527l2.578-2.637C140.18,33.297,140.962,32.477,140.962,32.477z M148.228,33.297
		c0.155,0,0.43-0.253,0.82-0.762c0.39-0.507,0.645-0.683,0.762-0.527c0.038,0.04-0.117,0.45-0.469,1.23
		c-0.313,0.703-0.645,1.329-0.996,1.875c-0.273,0.391-0.41,0.684-0.41,0.879c0,0.196-0.039,0.333-0.117,0.41
		c-0.079,0.04-0.391,0.508-0.938,1.406c-0.431,0.703-0.742,1.309-0.938,1.816c-0.117,0.352-0.234,0.586-0.352,0.703
		c-0.156,0.157-0.431,0.645-0.82,1.465c-0.431,0.899-0.762,1.504-0.996,1.816c-0.234,0.352-0.391,0.665-0.469,0.938
		c-0.196,0.665-0.527,1.25-0.996,1.758c-0.352,0.352-0.724,0.527-1.113,0.527c-0.431,0-0.82-0.059-1.172-0.176
		c-0.234-0.195-0.431-0.41-0.586-0.645c-0.156-0.273-0.215-0.527-0.176-0.762c0.078-0.273,0.547-1.015,1.406-2.227l1.816-2.52
		c0.234-0.352,0.703-0.976,1.406-1.875c0.078-0.117,0.41-0.546,0.996-1.289c0.469-0.586,0.703-0.917,0.703-0.996l1.406-1.641
		l0.879-1.055C147.994,33.414,148.111,33.297,148.228,33.297z M140.787,21.93c0.547,0,1.074,0.059,1.582,0.176
		c0.898,0.117,1.582,0.508,2.051,1.172c0.038,0.079,0.195,0.333,0.469,0.762c0.507,0.665,0.84,1.68,0.996,3.047v0.234
		c0,0.313-0.079,0.547-0.234,0.703c-0.196,0.117-0.313,0.157-0.352,0.117c-0.156-0.156-0.313-0.352-0.469-0.586
		c-0.859-1.289-1.72-2.109-2.578-2.461c-1.134-0.546-1.934-1.074-2.402-1.582c-0.117-0.117-0.176-0.312-0.176-0.586
		c0-0.429,0.059-0.703,0.176-0.82C139.927,21.988,140.239,21.93,140.787,21.93z M166.392,24.859c0,0.547,0.078,0.84,0.234,0.879
		c0.038,0.079,0.39,0.157,1.055,0.234c1.055,0.04,2.03,0.293,2.93,0.762c1.327,0.703,2.206,1.446,2.637,2.227
		c0.117,0.352,0.272,0.665,0.469,0.938c0.39,0.391,0.586,1.055,0.586,1.992c0,0.86-0.138,1.816-0.41,2.871l-0.938,2.754
		c-0.469,1.289-0.782,2.012-0.938,2.168c-0.196,0.391-0.332,0.703-0.41,0.938c-0.196,0.547-0.372,0.938-0.527,1.172
		c-0.156,0.157-0.332,0.41-0.527,0.762c-0.196,0.313-0.431,0.586-0.703,0.82c-0.234,0.234-0.352,0.43-0.352,0.586
		c0,0.508-0.489,0.958-1.465,1.348c-0.625,0.274-1.017,0.527-1.172,0.762c-0.079,0.079-0.391,0.313-0.938,0.703
		c0.155-0.117-0.391,0.253-1.641,1.113c-0.508,0.313-0.82,0.488-0.938,0.527c-0.234,0.078-0.566,0.117-0.996,0.117
		c-0.899,0-1.544-0.098-1.934-0.293c-0.352-0.234-0.586-0.645-0.703-1.23v-0.117c0-0.312,0.155-0.566,0.469-0.762
		c0.155-0.156,0.527-0.41,1.113-0.762l1.758-0.879c0.507-0.273,0.858-0.41,1.055-0.41c0.43,0,0.645-0.117,0.645-0.352
		c0-0.117-0.079-0.176-0.234-0.176c-0.156,0-0.645-0.429-1.465-1.289c-0.938-0.859-1.485-1.269-1.641-1.23
		c-0.196,0-0.527-0.059-0.996-0.176c-0.431-0.039-0.742-0.253-0.938-0.645c-0.156-0.273-0.234-0.527-0.234-0.762
		c0-0.352,0.272-0.8,0.82-1.348c0.547-0.469,1.113-1.308,1.699-2.52c0.586-1.172,1.055-2.461,1.406-3.867
		c0.195-0.703,0.293-1.328,0.293-1.875c0-0.312-0.039-0.488-0.117-0.527h-0.059c-0.196,0-0.41,0.157-0.645,0.469
		c-0.352,0.352-0.586,0.703-0.703,1.055c-0.196,0.391-0.293,0.918-0.293,1.582c0,0.703-0.039,1.172-0.117,1.406
		c-0.117,0.196-0.313,0.293-0.586,0.293c-0.273,0-0.469-0.078-0.586-0.234c-0.117-0.117-0.234-0.156-0.352-0.117
		c-0.273,0.157-0.645,1.192-1.113,3.105c-0.234,1.172-0.431,1.875-0.586,2.109c-0.196,0.547-0.684,2.051-1.465,4.512
		c-0.234,0.82-0.41,1.25-0.527,1.289c-0.156,0.157-0.41,0.176-0.762,0.059c-0.313-0.039-0.625-0.195-0.938-0.469
		c-0.469-0.352-0.938-1.542-1.406-3.574c-0.313-1.055-0.566-2.91-0.762-5.566c-0.079-1.328-0.117-2.148-0.117-2.461
		c0-1.172,0.097-1.894,0.293-2.168c0.155-0.078,0.371-0.117,0.645-0.117c0.469,0,0.82,0.196,1.055,0.586
		c0.234,0.508,0.371,1.368,0.41,2.578c0.078,2.149,0.272,4.083,0.586,5.801c0.117,0.938,0.234,1.622,0.352,2.051
		c0.078,0.547,0.155,0.82,0.234,0.82c0.117,0,0.254-0.253,0.41-0.762c0.117-0.469,0.352-1.055,0.703-1.758
		c0.586-1.132,0.898-2.128,0.938-2.988l0.527-1.641c0.234-0.664,0.352-1.113,0.352-1.348c0-0.273,0.137-0.8,0.41-1.582l0.352-1.465
		l-0.059-1.875v-0.996c0-0.703,0.038-1.21,0.117-1.523c0.195-0.312,0.488-0.469,0.879-0.469c0.352,0,0.586,0.059,0.703,0.176
		s0.234,0.352,0.352,0.703c0.117,0.469,0.293,0.703,0.527,0.703c0.155-0.156,0.469-0.371,0.938-0.645
		c0.469-0.234,0.781-0.488,0.938-0.762c0.155-0.195,0.293-0.683,0.41-1.465c0.078-0.742,0.137-1.132,0.176-1.172
		c0.155-0.156,0.39-0.234,0.703-0.234C166.02,23.219,166.392,23.766,166.392,24.859z M167.388,14.195
		c0,0.469-0.079,0.703-0.234,0.703c-0.117,0-0.273-0.117-0.469-0.352c-0.196-0.234-0.489-0.273-0.879-0.117
		c-1.485,0.43-3.555,1.582-6.211,3.457c-0.938,0.508-1.563,0.84-1.875,0.996c-0.977,0.43-1.778,0.645-2.402,0.645
		c-0.899,0-1.348-0.371-1.348-1.113c0-0.586,0.313-1.132,0.938-1.641c0.507-0.429,1.719-1.132,3.633-2.109
		c2.461-1.25,4.022-1.934,4.688-2.051c0.155-0.039,0.448-0.059,0.879-0.059c0.507,0,0.917,0.04,1.23,0.117
		C166.705,12.868,167.388,13.375,167.388,14.195z M166.275,28.375c-0.273,0.196-0.489,0.684-0.645,1.465
		c-0.548,2.5-1.055,4.024-1.523,4.57c-0.234,0.234-0.41,0.508-0.527,0.82c-0.117,0.391-0.234,0.625-0.352,0.703l-0.117,0.234
		c-0.039,0.079-0.059,0.176-0.059,0.293c-0.039,0.117-0.039,0.176,0,0.176l0.82-0.293c0.43-0.156,0.858-0.234,1.289-0.234
		c0.195,0,0.488,0.04,0.879,0.117l0.762,0.352c0.117,0.04,0.176,0.196,0.176,0.469c0,0.43-0.372,0.958-1.113,1.582
		c-0.782,0.743-1.621,1.329-2.52,1.758c-0.665,0.313-0.82,0.645-0.469,0.996c0.155,0.157,0.605,0.391,1.348,0.703
		c0.624,0.313,1.151,0.508,1.582,0.586h0.293c0.313,0,0.605-0.078,0.879-0.234c1.093-0.82,2.147-2.637,3.164-5.449
		c0.664-1.796,1.093-3.164,1.289-4.102c0.078-0.469,0.117-0.781,0.117-0.938c0-0.352-0.079-0.8-0.234-1.348
		c-0.039-0.39-0.196-0.742-0.469-1.055c-0.156-0.195-0.431-0.449-0.82-0.762c-0.234-0.195-0.548-0.371-0.938-0.527
		c-0.508-0.117-0.958-0.176-1.348-0.176C166.88,28.161,166.392,28.258,166.275,28.375z"/>
	<path fill="#FFFFFF" d="M181.995,26.852c0-0.938,0.137-1.484,0.41-1.641c0.155-0.117,0.41-0.176,0.762-0.176
		c0.234,0.04,0.448,0.157,0.645,0.352c0.703,0.782,1.289,2.325,1.758,4.629c0.117,0.586,0.214,0.879,0.293,0.879
		c0.117-0.078,0.176-0.546,0.176-1.406c0-1.406,0.234-2.187,0.703-2.344c0.234-0.117,0.507-0.176,0.82-0.176
		c0.507,0,1.113,0.176,1.816,0.527c1.133,0.469,1.699,1.329,1.699,2.578c0,0.625-0.059,1.211-0.176,1.758
		c-0.234,0.665-0.548,1.348-0.938,2.051c-0.548,0.86-1.017,1.485-1.406,1.875c-0.469,0.469-0.801,0.879-0.996,1.23
		c-0.156,0.352-0.449,0.527-0.879,0.527c-0.273,0-0.489-0.039-0.645-0.117c-0.82-0.312-1.23-0.722-1.23-1.23
		c0-0.195-0.156-0.645-0.469-1.348c-0.313-0.664-0.606-1.348-0.879-2.051c-0.703-1.953-1.055-3.261-1.055-3.926
		c0-0.195-0.059-0.429-0.176-0.703C182.073,27.672,181.995,27.243,181.995,26.852z M188.528,29.605
		c-0.059,0-0.108-0.019-0.146-0.059h-0.352c-0.156-0.078-0.332-0.019-0.527,0.176c-0.234,0.234-0.372,0.508-0.41,0.82
		c-0.117,0.391-0.176,0.918-0.176,1.582c0,0.665,0.078,1.016,0.234,1.055l0.117,0.059c0.234,0,0.547-0.117,0.938-0.352
		c0.781-0.429,1.172-0.976,1.172-1.641c0-0.938-0.234-1.465-0.703-1.582C188.635,29.625,188.586,29.605,188.528,29.605z
		 M196.76,25.738c0.155,0.04,0.39,0.313,0.703,0.82l0.352,0.469l0.176,0.586l0.176,0.996l0.176,1.758
		c0.117,1.485,0.234,2.383,0.352,2.695c0.078,0.391,0.117,0.665,0.117,0.82c0,0.703,0.313,1.661,0.938,2.871
		c0.117,0.313,0.43,0.665,0.938,1.055c0.507,0.43,0.917,0.703,1.23,0.82l1.23,0.527c1.641,0.743,4.257,1.172,7.852,1.289h3.926
		l2.402,0.059c5.039,0.079,7.754,0.196,8.145,0.352c0.234,0.04,0.488,0.293,0.762,0.762c0.234,0.352,0.352,0.645,0.352,0.879
		c0,0.391-0.234,0.703-0.703,0.938c-0.469,0.196-5.859,0.293-16.172,0.293c-0.859,0-1.445-0.059-1.758-0.176
		c-0.234-0.117-0.724-0.214-1.465-0.293c-1.875-0.234-3.712-0.917-5.508-2.051c-0.313-0.195-0.645-0.352-0.996-0.469
		c-0.313-0.156-0.82-0.586-1.523-1.289c-1.172-1.132-1.855-2.344-2.051-3.633c-0.039-0.507-0.138-0.938-0.293-1.289
		c-0.079-0.195-0.138-0.703-0.176-1.523c-0.079-0.586-0.156-1.425-0.234-2.52c-0.079-0.859-0.098-1.308-0.059-1.348v-0.176
		l-0.059-1.23c-0.117-0.742-0.138-1.23-0.059-1.465c0.078-0.195,0.254-0.352,0.527-0.469C196.33,25.68,196.564,25.661,196.76,25.738
		z M205.139,19.879c0.469-0.117,1.151-0.176,2.051-0.176c0.898,0,1.66,0.176,2.285,0.527c0.781,0.352,1.348,0.743,1.699,1.172
		c0.234,0.352,0.352,0.938,0.352,1.758c0,1.329-0.234,2.266-0.703,2.813c-0.313,0.391-0.762,1.133-1.348,2.227
		c-0.548,1.016-1.523,2.09-2.93,3.223c-0.586,0.43-1.035,0.899-1.348,1.406c-0.313,0.508-0.684,0.899-1.113,1.172
		c-0.508,0.352-0.958,0.527-1.348,0.527c-0.665,0-1.152-0.273-1.465-0.82c-0.156-0.273-0.196-0.527-0.117-0.762l0.527-1.172
		c1.055-1.679,1.758-3.144,2.109-4.395c0.234-1.055,0.469-1.758,0.703-2.109c0.234-0.312,0.547-0.469,0.938-0.469
		c0.352,0,0.664,0.117,0.938,0.352c0.313,0.234,0.469,0.508,0.469,0.82c0,0.196-0.196,0.489-0.586,0.879
		c-0.273,0.352-0.508,0.703-0.703,1.055c-0.196,0.43-0.234,0.665-0.117,0.703c0.038,0.04,0.117,0.059,0.234,0.059
		c0.234,0,0.41-0.019,0.527-0.059c0.39-0.039,0.762-0.234,1.113-0.586c0.195-0.273,0.547-0.898,1.055-1.875
		c0.547-1.289,0.858-2.246,0.938-2.871v-0.176c0-0.39-0.234-0.703-0.703-0.938c-0.117-0.078-0.332-0.117-0.645-0.117
		c-0.391,0-0.703,0.04-0.938,0.117c-0.548,0.117-1.23,0.293-2.051,0.527c-0.742,0.234-1.368,0.489-1.875,0.762
		c-0.625,0.352-0.977,0.567-1.055,0.645c-0.079,0.196-0.196,0.293-0.352,0.293c-0.196,0-0.508,0.117-0.938,0.352
		c-0.431,0.234-0.82,0.333-1.172,0.293c-0.117,0-0.196-0.019-0.234-0.059c-0.079,0-0.117-0.039-0.117-0.117
		c-0.039-0.039-0.059-0.097-0.059-0.176c0-0.078-0.021-0.156-0.059-0.234c-0.079-0.742,0.39-1.503,1.406-2.285
		c0.352-0.352,1.016-0.781,1.992-1.289c0.976-0.507,1.543-0.762,1.699-0.762C204.397,20.113,204.708,20.036,205.139,19.879z"/>
	<path fill="#FFFFFF" d="M231.548,39.566c0.155,0,0.41,0.176,0.762,0.527c0.39,0.313,0.605,0.723,0.645,1.23v0.352
		c0,0.313-0.021,0.508-0.059,0.586c-0.117,0.196-0.391,0.352-0.82,0.469c-0.079,0.04-0.215,0.059-0.41,0.059
		c-0.352,0-0.684-0.078-0.996-0.234c-0.469-0.273-0.938-0.605-1.406-0.996c-0.391-0.429-0.625-0.898-0.703-1.406v-0.234
		c0-0.39,0.078-0.664,0.234-0.82c0.272-0.195,0.527-0.293,0.762-0.293c0.272,0,0.645,0.137,1.113,0.41
		C231.099,39.449,231.392,39.566,231.548,39.566z M232.369,20.641c0.352,0,0.624,0.079,0.82,0.234
		c0.624,0.391,0.938,1.075,0.938,2.051c0,1.094-0.273,2.52-0.82,4.277c-0.391,1.016-0.606,1.68-0.645,1.992
		c-0.548,1.915-0.996,2.969-1.348,3.164l-0.234,0.117c-0.156,0-0.293-0.097-0.41-0.293c-0.156-0.273-0.215-1.191-0.176-2.754v-3.223
		c0-0.625,0.117-1.25,0.352-1.875c0.234-0.664,0.352-1.21,0.352-1.641c0-0.742,0.155-1.328,0.469-1.758
		C231.861,20.739,232.095,20.641,232.369,20.641z"/>
</g>
</svg>
