<?xml version="1.0" encoding="utf-8"?>
<!-- Generator: Adobe Illustrator 16.0.0, SVG Export Plug-In . SVG Version: 6.00 Build 0)  -->
<!DOCTYPE svg PUBLIC "-//W3C//DTD SVG 1.1//EN" "http://www.w3.org/Graphics/SVG/1.1/DTD/svg11.dtd">
<svg version="1.1" id="圖層_1" xmlns="http://www.w3.org/2000/svg" xmlns:xlink="http://www.w3.org/1999/xlink" x="0px" y="0px"
	 width="451px" height="99px" viewBox="0 0 451 99" enable-background="new 0 0 451 99" xml:space="preserve">
<g>
	<path fill="#040000" d="M14.434,33.484c0.064-0.064,0.228-0.098,0.488-0.098c0.391,0,0.684,0.034,0.879,0.098
		c0.977,0.131,1.692,0.293,2.148,0.488l0.879,0.293c0.586,0,1.465,0.847,2.637,2.539c0.391,0.456,0.586,0.913,0.586,1.367
		c-0.131,3.647,0,5.6,0.391,5.859c0.391,0.131,0.911,0.195,1.563,0.195c0.716,0,1.106,0.131,1.172,0.391
		c0.064,0.065,0.032,0.261-0.098,0.586c-0.195,0.261-0.424,0.488-0.684,0.684l-0.977,0.684c-0.781,0.456-1.53,0.977-2.246,1.563
		c-0.913,0.781-1.596,1.303-2.051,1.563c-0.456,0.327-0.717,0.62-0.781,0.879c-0.195,0.781-0.781,2.116-1.758,4.004
		c-0.977,2.019-2.214,3.32-3.711,3.906c-0.391,0.131-0.684,0.195-0.879,0.195c-0.522,0-1.074-0.098-1.66-0.293
		c-1.108-0.325-1.889-0.748-2.344-1.27l-0.879-0.879l0.586-0.977c0.325-0.586,0.423-1.236,0.293-1.953
		c-0.522-1.431-0.847-2.734-0.977-3.906L6.426,46.57l-0.488-4.492c-0.131-2.212-0.229-3.548-0.293-4.004
		c-0.065-0.195-0.098-0.423-0.098-0.684c0-0.977,0.455-1.563,1.367-1.758h0.391c0.325,0,0.716,0.131,1.172,0.391
		c0.586,0.456,0.911,0.913,0.977,1.367c0.325,1.303,0.618,1.921,0.879,1.855c0.13-0.13,0.488-0.813,1.074-2.051
		c0.455-1.106,1.074-2.017,1.855-2.734C13.716,33.94,14.107,33.616,14.434,33.484z M16.289,70.594
		c0.195,0.261,0.293,0.651,0.293,1.172c-0.131,0.651-0.261,1.14-0.391,1.465c-0.456,0.781-0.977,2.019-1.563,3.711
		c-0.586,1.758-1.042,2.93-1.367,3.516c-0.327,0.391-0.62,1.106-0.879,2.148c-0.391,1.106-0.781,2.115-1.172,3.027
		c-0.651,1.432-0.847,2.148-0.586,2.148h0.098c0.195,0,0.521-0.163,0.977-0.488c0.521-0.261,0.845-0.326,0.977-0.195v0.098
		c0,0.26-0.261,0.748-0.781,1.465c-0.586,0.911-1.108,1.497-1.563,1.758c-0.522,0.325-1.108,0.488-1.758,0.488
		c-0.717,0-1.108-0.033-1.172-0.098c-0.195-0.131-0.391-0.456-0.586-0.977c-0.391-0.717-0.554-1.367-0.488-1.953
		c0.195-2.084,0.845-4.199,1.953-6.348c0.911-1.889,1.497-3.256,1.758-4.102c1.367-3.384,2.376-5.469,3.027-6.25
		c0.716-0.521,1.367-0.781,1.953-0.781S16.028,70.464,16.289,70.594z M13.262,52.039c-0.261,0-0.456,0.034-0.586,0.098l-0.391,0.195
		c-0.261,0.261-0.358,0.456-0.293,0.586c0.13,0.195,0.259,0.293,0.391,0.293c0.195,0,0.455-0.162,0.781-0.488
		c0.259-0.259,0.391-0.455,0.391-0.586C13.555,52.073,13.457,52.039,13.262,52.039z M16.484,37.586h-0.195
		c-0.261,0-0.62,0.163-1.074,0.488c-0.651,0.456-0.977,0.749-0.977,0.879c0,0.261-0.229,0.651-0.684,1.172
		c-0.586,0.977-0.977,2.507-1.172,4.59v0.684c0,0.586,0.098,0.944,0.293,1.074h0.195l1.172-0.195
		c1.041-0.259,1.822-0.488,2.344-0.684c0.716-0.259,1.138-0.455,1.27-0.586c0.195-0.195,0.293-0.748,0.293-1.66
		c0-2.212-0.195-3.711-0.586-4.492C17.037,38.074,16.744,37.651,16.484,37.586z M69.121,71.473c1.236,0.065,2.376,0.327,3.418,0.781
		c0.845,0.456,1.855,0.847,3.027,1.172l2.246,0.684l1.367,0.488c0.455,0.195,0.977,0.684,1.563,1.465
		c0.455,0.913,0.684,1.431,0.684,1.563c0,0.325-0.229,0.488-0.684,0.488h-0.293c-0.391,0-0.977,0.162-1.758,0.488
		c-0.586,0.195-1.27,0.293-2.051,0.293c-0.522,0-0.913-0.033-1.172-0.098c-0.977-0.131-1.921-0.358-2.832-0.684l-2.344-0.879
		c-0.195-0.259-1.433-0.716-3.711-1.367c-2.148-0.65-3.452-0.977-3.906-0.977c-0.781,0-1.53,0.131-2.246,0.391
		c-0.913,0.327-2.182,1.108-3.809,2.344c-2.344,1.822-3.874,2.994-4.59,3.516c-0.651,0.391-1.66,0.586-3.027,0.586
		c-1.237,0-1.953-0.033-2.148-0.098c-0.456-0.131-0.913-0.391-1.367-0.781c-0.977-0.651-1.889-1.4-2.734-2.246
		c-0.717-0.717-1.206-1.074-1.465-1.074h-0.098c-0.391,0-0.781,0.357-1.172,1.074c-0.456,0.781-1.042,1.595-1.758,2.441
		c-0.781,1.041-1.206,1.692-1.27,1.953c-0.065,0.26-0.522,0.716-1.367,1.367c-1.108,0.781-2.051,1.204-2.832,1.27h-0.586
		c-0.651,0-1.14-0.131-1.465-0.391c-0.522-0.456-1.01-0.717-1.465-0.781c-0.586-0.131-1.01-0.424-1.27-0.879
		c-0.522-0.651-1.01-1.4-1.465-2.246c-0.913-1.823-1.53-3.842-1.855-6.055c-0.131-0.845-0.229-1.302-0.293-1.367
		c-0.195-0.13-0.293-0.423-0.293-0.879c0-0.521,0.195-0.911,0.586-1.172c0.325-0.325,0.684-0.488,1.074-0.488
		s1.106,0.293,2.148,0.879c0.977,0.522,1.595,0.913,1.855,1.172c0.259,0.522,0.488,0.879,0.684,1.074
		c0.455,0.391,0.716,1.042,0.781,1.953c0.65,2.994,1.236,4.492,1.758,4.492c0.845,0,2.017-0.847,3.516-2.539
		c1.888-2.278,2.832-3.711,2.832-4.297c0-0.064,0.098-0.195,0.293-0.391l0.781-0.391c0.391-0.13,0.716-0.195,0.977-0.195
		l0.391-0.098c0.455,0,1.236,0.327,2.344,0.977c1.041,0.586,1.919,1.303,2.637,2.148c0.781,1.106,1.563,1.563,2.344,1.367
		c1.302-0.261,3.125-1.27,5.469-3.027c2.148-1.563,4.134-2.603,5.957-3.125c1.302-0.325,2.408-0.488,3.32-0.488
		c0.521,0,1.172,0.065,1.953,0.195L69.121,71.473z M52.324,13.953l1.367,0.879c0.13,0.195,0.423,0.391,0.879,0.586
		c0.521,0.195,1.302,0.62,2.344,1.27c0.716,0.586,1.074,0.977,1.074,1.172c0,0.327,0.195,0.781,0.586,1.367s0.586,1.401,0.586,2.441
		c0,1.042-0.195,1.921-0.586,2.637c-0.327,0.586-0.554,1.108-0.684,1.563c-0.195,0.391-0.62,0.913-1.27,1.563
		c-0.717,0.717-1.367,1.237-1.953,1.563c-0.781,0.391-1.694,0.586-2.734,0.586c-1.042,0-1.823-0.098-2.344-0.293l-0.879-0.293
		l-1.758,1.758c-3.647,3.776-5.698,6.25-6.152,7.422v0.195c0,0.391,0.13,0.847,0.391,1.367c0.325,0.913,0.586,2.148,0.781,3.711
		c0.195,1.758,0.325,2.702,0.391,2.832h0.098c0.325,0,0.943-0.455,1.855-1.367c0.781-0.845,1.822-1.692,3.125-2.539
		c1.172-0.455,2.278-0.65,3.32-0.586c2.212,0.261,3.613,0.944,4.199,2.051c0.064,0.131,0.098,0.456,0.098,0.977
		c0,0.586-0.034,1.074-0.098,1.465c-0.195,1.172-0.391,1.987-0.586,2.441c-0.391,0.651-0.62,1.074-0.684,1.27
		c-0.195,0.391-0.293,0.684-0.293,0.879s0.064,0.358,0.195,0.488c0.13,0.131,0.357,0.195,0.684,0.195
		c0.455,0,1.074,0.195,1.855,0.586c0.781,0.522,1.204,0.944,1.27,1.27c0.13,0.261,0.064,0.522-0.195,0.781
		c-0.195,0.261-0.488,0.391-0.879,0.391c-0.847,0-1.855,0.717-3.027,2.148c-1.433,1.628-3.159,2.604-5.176,2.93h-0.586
		c-0.651,0-1.108-0.098-1.367-0.293c-0.847-0.845-1.27-1.79-1.27-2.832c0-0.391,0.259-0.911,0.781-1.563
		c0.455-0.586,1.106-1.074,1.953-1.465c1.822-0.781,3.125-1.919,3.906-3.418c0.716-1.431,1.074-2.474,1.074-3.125
		c0-0.65-0.229-1.074-0.684-1.27c-0.261-0.195-1.401,0.261-3.418,1.367c-1.953,1.108-3.647,3.027-5.078,5.762l-1.465,2.832
		c-0.327,0.391-0.815,0.456-1.465,0.195c-0.781-0.195-1.367-0.586-1.758-1.172c-0.327-0.521-0.684-3.45-1.074-8.789
		c-0.065-3.125-0.163-5.044-0.293-5.762l-0.098-1.465l1.27-1.465c1.953-2.212,3.58-4.263,4.883-6.152
		c1.497-2.212,2.798-4.849,3.906-7.91c0.521-1.302,1.172-2.083,1.953-2.344c0.13-0.064,0.293-0.098,0.488-0.098
		c0.586,0,1.138,0.358,1.66,1.074l0.684,1.074l-0.488,0.684c-1.433,2.28-1.987,3.581-1.66,3.906c0.195,0.065,0.423,0.065,0.684,0
		c0.325,0,0.618-0.098,0.879-0.293c0.325-0.195,0.586-0.488,0.781-0.879c0.977-1.172,1.497-2.832,1.563-4.98l0.098-1.758
		l-0.879-0.586c-1.237-0.845-3.711-1.27-7.422-1.27c-1.823-0.064-2.93-0.259-3.32-0.586c-0.456-0.259-0.684-0.552-0.684-0.879
		c0-0.325,0.325-0.716,0.977-1.172c0.65-0.521,1.302-0.977,1.953-1.367c0.781-0.325,1.79-0.488,3.027-0.488
		C49.59,13.172,51.152,13.433,52.324,13.953z"/>
	<path fill="#040000" d="M111.898,12.391c1.172,0.261,1.465,0.684,0.879,1.27c-0.391,0.391-0.977,0.62-1.758,0.684l-1.465,0.098
		l-1.66-0.098c-0.781,0-2.019,0.065-3.711,0.195l-1.66,0.098l-1.074-0.098c-0.522-0.325-0.944-0.488-1.27-0.488
		c-0.391,0-0.749,0.163-1.074,0.488c-0.195,0.195-0.261,0.815-0.195,1.855l0.098,3.027c0.195,1.889,0.357,3.32,0.488,4.297
		c0.13,2.019,0.162,3.093,0.098,3.223c-0.065,0.391,0.098,0.586,0.488,0.586c0.259,0,0.716-0.162,1.367-0.488
		c0.781-0.391,1.27-0.748,1.465-1.074c0.195-0.325,0.259-0.813,0.195-1.465v-0.293c0-1.106,0.521-1.692,1.563-1.758h0.293
		c0.65,0,1.204,0.195,1.66,0.586c1.106,0.977,2.115,1.465,3.027,1.465c1.431,0,2.31,0.261,2.637,0.781
		c0.064,0.131,0.098,0.293,0.098,0.488c0,0.586-0.424,1.108-1.27,1.563c-1.042,0.651-1.726,1.433-2.051,2.344
		c-0.131,0.522-0.195,0.913-0.195,1.172c0,0.391,0.13,1.237,0.391,2.539c0.13,0.327,0.195,0.847,0.195,1.563
		c0,0.586-0.065,1.01-0.195,1.27c-0.131,0.327-0.358,1.921-0.684,4.785c-0.261,2.344-0.391,4.297-0.391,5.859
		c0,0.847,0.098,1.367,0.293,1.563c0.13,0.131,0.684,0.195,1.66,0.195h2.344c1.497,0,2.441,0.098,2.832,0.293
		c0.586,0.327,1.138,0.977,1.66,1.953c0.325,0.781,0.552,2.377,0.684,4.785c0,2.28-0.195,4.102-0.586,5.469
		c-0.456,2.28-1.108,4.004-1.953,5.176c-0.456,0.586-0.815,1.172-1.074,1.758c-0.327,0.717-0.717,1.27-1.172,1.66
		c-0.586,0.456-0.977,0.847-1.172,1.172c-0.195,0.391-0.62,0.781-1.27,1.172c-0.651,0.456-1.206,0.684-1.66,0.684
		c-0.522,0-0.913,0.131-1.172,0.391c-0.651,0.327-1.563,0.684-2.734,1.074c-1.433,0.586-2.312,0.879-2.637,0.879
		c-0.456,0-1.206-0.293-2.246-0.879c-1.172-0.521-1.889-0.781-2.148-0.781c-0.327,0-0.522-0.032-0.586-0.098
		c0-0.13,0.423-0.293,1.27-0.488c0.716-0.13,1.465-0.325,2.246-0.586c0.845-0.455,1.919-1.27,3.223-2.441
		c1.367-1.172,2.408-2.212,3.125-3.125c1.953-2.93,2.93-4.72,2.93-5.371c0-0.391-0.163-0.586-0.488-0.586
		c-0.131,0-0.586,0.131-1.367,0.391c-0.847,0.327-1.401,0.488-1.66,0.488c-0.327,0-2.604,0.651-6.836,1.953
		c-0.977,0.327-1.855,0.684-2.637,1.074c-0.781,0.327-1.335,0.488-1.66,0.488c-0.327,0-0.944,0.261-1.855,0.781
		c-0.977,0.522-2.246,0.879-3.809,1.074c-1.499,0.195-2.344,0.327-2.539,0.391l-0.293,0.098l-0.977-0.195
		c-0.781-0.13-1.303-0.325-1.563-0.586c-0.456-0.391-0.684-0.879-0.684-1.465c0-0.391,0.13-0.716,0.391-0.977
		c0.13-0.13,0.618-0.357,1.465-0.684l2.734-1.172c0.716-0.391,1.465-0.65,2.246-0.781c0.325-0.064,0.879-0.325,1.66-0.781
		c0.586-0.391,1.009-0.586,1.27-0.586l2.93-0.781c1.563-0.586,2.962-0.977,4.199-1.172c1.041-0.13,1.985-0.325,2.832-0.586
		c0.781-0.195,2.181-0.391,4.199-0.586c1.758-0.13,2.798-0.259,3.125-0.391c0.391-0.195,0.684-0.716,0.879-1.563v-0.488
		c0-0.586-0.034-1.041-0.098-1.367c-0.065-0.716-0.229-1.172-0.488-1.367c-0.327-0.13-0.651-0.098-0.977,0.098
		c-0.391,0.131-0.651,0.163-0.781,0.098h-0.293c-0.522,0-0.977,0.034-1.367,0.098c-0.195,0.065-0.488,0.098-0.879,0.098
		c-0.913,0-1.823-0.455-2.734-1.367c-0.651-0.65-1.074-1.399-1.27-2.246c-0.195-0.781-0.293-2.115-0.293-4.004l0.098-3.027
		l-0.684-0.586c-0.391-0.259-0.651-0.586-0.781-0.977c-0.195-0.259-0.391-0.391-0.586-0.391c-0.195,0.065-0.327,0.293-0.391,0.684
		c-0.195,0.717-0.358,3.842-0.488,9.375l-0.098,2.051l-0.684,0.195c-0.456,0-0.847-0.259-1.172-0.781
		c-0.781-1.302-1.465-3.775-2.051-7.422c-0.065-0.521-0.195-1.563-0.391-3.125c-0.391-2.539-0.62-6.966-0.684-13.281l-0.098-6.445
		c0-3.189,0.098-5.306,0.293-6.348c0.195-1.431,0.423-2.31,0.684-2.637c0.325-0.391,0.911-0.781,1.758-1.172
		c0.781-0.325,1.595-0.552,2.441-0.684c0.586-0.064,1.333-0.098,2.246-0.098c1.041,0,1.758,0.065,2.148,0.195
		C107.699,11.414,110.336,12.131,111.898,12.391z M103.109,33.68c0-0.391-0.065-0.716-0.195-0.977
		c-0.261-0.195-0.717-0.325-1.367-0.391c-0.651,0-1.108,0.065-1.367,0.195c-0.131,0.261-0.195,0.815-0.195,1.66
		c0,2.344,0.162,3.613,0.488,3.809h0.098c0.259,0,0.586-0.098,0.977-0.293c0.65-0.195,1.009-0.423,1.074-0.684
		c0.195-0.195,0.325-0.911,0.391-2.148L103.109,33.68z M147.738,13.953c2.083-0.195,3.157-0.325,3.223-0.391
		c0.064-0.064,0.293-0.098,0.684-0.098c0.521,0,0.943,0.034,1.27,0.098l1.172,0.195c0.259,0.065,0.488,0.195,0.684,0.391
		l0.098,0.195c0,0.261-0.522,0.586-1.563,0.977c-0.065,0.065-0.163,0.098-0.293,0.098c-1.303,0.522-2.344,0.944-3.125,1.27
		c-2.734,1.303-4.558,1.953-5.469,1.953c-0.781,0-1.465,0.131-2.051,0.391c-0.781,0.327-1.433,0.488-1.953,0.488
		c-0.586,0-0.977,0.098-1.172,0.293c-0.131,0.131-0.261,1.401-0.391,3.809c-0.065,2.8-0.293,5.698-0.684,8.691
		c-0.131,0.522-0.131,0.781,0,0.781c0.13,0,0.488-0.195,1.074-0.586c1.172-0.977,2.31-1.692,3.418-2.148
		c0.977-0.455,2.408-0.813,4.297-1.074c0.521-0.13,1.106-0.195,1.758-0.195c0.521,0,0.845,0.065,0.977,0.195
		c0.521,0.391,0.781,0.815,0.781,1.27c-0.131,0.781-0.488,1.694-1.074,2.734c-0.847,1.303-1.27,2.051-1.27,2.246
		c0,0.131,0.228,0.424,0.684,0.879c0.455,0.456,0.684,0.781,0.684,0.977c0,0.131-0.684,0.944-2.051,2.441l-2.051,2.051h-1.367
		c-1.563,0-2.67-0.391-3.32-1.172c-0.131-0.259-0.195-0.521-0.195-0.781l0.098-0.879c0.064-0.845,0.552-1.758,1.465-2.734
		c0.911-1.041,1.367-1.626,1.367-1.758c0-0.586-0.261-0.716-0.781-0.391c-0.261,0.195-1.01,0.293-2.246,0.293
		c-1.303,0-2.116,0.163-2.441,0.488c-0.195,0.195-0.358,1.206-0.488,3.027l-0.293,6.836l-0.098,3.418
		c0,1.628-0.034,2.768-0.098,3.418l-0.098,1.66c0,0.717,0.098,1.074,0.293,1.074c0.259,0,0.391-0.357,0.391-1.074
		c0-0.65,0.13-1.106,0.391-1.367c0.195-0.195,0.618-0.228,1.27-0.098c1.692,0.327,2.767,0.913,3.223,1.758
		c0.391,0.717,0.618,1.499,0.684,2.344v0.684c0,0.651-0.098,1.074-0.293,1.27c-0.261,0.327-0.391,1.14-0.391,2.441
		c0,0.913-0.065,2.148-0.195,3.711c-0.261,2.019-0.391,3.549-0.391,4.59c-0.065,0.847,0.032,1.27,0.293,1.27
		c0.13,0,0.293-0.098,0.488-0.293c0.064-0.259,0.228-0.391,0.488-0.391c0.325,0,0.423,0.261,0.293,0.781
		c-0.261,1.433-0.651,2.702-1.172,3.809c-0.522,1.108-1.042,1.66-1.563,1.66h-0.293c-0.327,0-0.684-0.098-1.074-0.293
		c-0.522-0.195-0.944-0.845-1.27-1.953c-0.651-2.017-0.977-4.004-0.977-5.957c0-1.563-0.195-2.344-0.586-2.344
		c-0.456,0-0.749,1.855-0.879,5.566c-0.195,3.386-0.781,5.437-1.758,6.152c-0.456,0.261-0.913,0.391-1.367,0.391
		c-0.522,0-0.944-0.13-1.27-0.391c-0.913-0.586-1.367-1.626-1.367-3.125c0-0.259,0.064-0.845,0.195-1.758
		c0.064-0.259,0.195-1.919,0.391-4.98l0.293-7.715c0.259-4.036,0.423-7.063,0.488-9.082l0.391-7.227l0.195-3.418
		c0-1.822,0.228-3.873,0.684-6.152c0.325-1.888,0.781-4.231,1.367-7.031c0.455-2.083,0.943-3.58,1.465-4.492
		c0.391-0.781,0.488-1.302,0.293-1.563l-1.367-0.488c-0.781-0.195-1.401-0.293-1.855-0.293c-0.327,0-1.074-0.162-2.246-0.488
		c-0.977-0.259-1.53-0.521-1.66-0.781c-0.131-0.13-0.065-0.325,0.195-0.586c0.13-0.13,0.488-0.391,1.074-0.781
		c0.325-0.195,0.813-0.423,1.465-0.684c2.669-0.716,5.208-1.138,7.617-1.27c-0.781,0.065,0.911-0.064,5.078-0.391L147.738,13.953z
		 M173.129,47.059c0.259,0.261,0.716,0.586,1.367,0.977c0.455,0.261,0.684,0.554,0.684,0.879c0,0.327,0.228,1.074,0.684,2.246
		c0.521,1.172,0.845,3.061,0.977,5.664l0.098,2.734c0,0.913-0.065,1.758-0.195,2.539c-0.717,2.67-1.27,4.558-1.66,5.664
		c-0.717,1.953-1.237,3.093-1.563,3.418l-0.879,1.465c-0.391,0.651-1.172,1.433-2.344,2.344c-0.781,0.522-1.499,0.944-2.148,1.27
		c-0.586,0.261-1.628,0.456-3.125,0.586c-0.847,0.065-1.401,0.293-1.66,0.684c-0.261,0.259-0.327,0.977-0.195,2.148v0.977
		c0,0.586-0.065,1.204-0.195,1.855c-0.195,0.65-0.261,1.302-0.195,1.953c0,2.018-0.554,3.743-1.66,5.176
		c-0.651,0.781-1.108,1.465-1.367,2.051c-0.261,0.586-0.781,1.139-1.563,1.66c-0.651,0.455-1.237,0.684-1.758,0.684
		c-0.391,0-0.879-0.131-1.465-0.391c-0.847-0.456-1.352-0.83-1.514-1.123c-0.163-0.293,0.015-0.473,0.537-0.537
		c1.497,0,2.539-2.279,3.125-6.836c0.195-1.237,0.293-3.288,0.293-6.152c-0.131-2.994-0.261-4.654-0.391-4.98
		c-0.065-0.064-0.522-0.488-1.367-1.27c-0.781-0.65-1.465-1.041-2.051-1.172c-0.522-0.325-0.944-0.684-1.27-1.074
		c-0.327-0.325-0.554-0.716-0.684-1.172c-0.261-1.041-0.717-1.399-1.367-1.074c-0.327,0.261-0.651,0.229-0.977-0.098
		c-0.391-0.195-0.847-0.293-1.367-0.293c-1.303,0-1.953-0.488-1.953-1.465c0-0.781,0.943-1.626,2.832-2.539l2.051-1.172
		c0.195-0.259,0.391-0.977,0.586-2.148c0.391-2.539,0.977-3.809,1.758-3.809c0.391,0,0.813,0.229,1.27,0.684
		c0.391,0.456,0.586,0.913,0.586,1.367c0,0.391,0.098,0.749,0.293,1.074c0.064,0.131,0.13,0.229,0.195,0.293
		c0.064,0.065,0.13,0.065,0.195,0l1.172-0.684c0.716-0.521,1.106-0.845,1.172-0.977l0.488-1.172
		c0.064-0.911,0.259-1.626,0.586-2.148c0.195-0.521,0.293-0.977,0.293-1.367c0-1.172,0.521-1.758,1.563-1.758
		c0.845,0,1.79,0.456,2.832,1.367c0.65,0.651,1.172,1.074,1.563,1.27c0.521,0.327,0.813,0.62,0.879,0.879
		c0,0.195-0.163,0.62-0.488,1.27c-0.327,0.522-0.522,1.074-0.586,1.66c-0.261,1.237-0.522,2.344-0.781,3.32
		c-0.456,1.563-0.684,3.288-0.684,5.176c0,1.499-0.098,2.897-0.293,4.199l-0.098,1.172c0,0.327,0.064,0.62,0.195,0.879h0.195
		l0.879-0.879l0.879-1.27c1.692-2.669,3.091-5.892,4.199-9.668c0.391-1.563,0.586-3.189,0.586-4.883
		c0-2.539-0.327-4.458-0.977-5.762c-0.651-1.367-1.499-1.888-2.539-1.563c-0.131,0-1.074,0.229-2.832,0.684l-3.418,0.977
		l-2.637,0.684c-2.539,0.456-4.135,0.684-4.785,0.684c-0.456,0-1.042-0.259-1.758-0.781c-0.717-0.521-1.074-0.943-1.074-1.27
		c0-0.259,0.195-0.586,0.586-0.977c0.391-0.325,0.813-0.521,1.27-0.586l2.344-0.684c1.106-0.391,2.083-0.684,2.93-0.879
		c0.716-0.064,1.66-0.325,2.832-0.781c1.106-0.325,2.017-0.521,2.734-0.586c0.781-0.13,1.529-0.195,2.246-0.195l2.051,0.098
		C169.938,45.594,171.892,46.082,173.129,47.059z M154.477,66.785c-0.327,0.456-0.488,1.172-0.488,2.148s0.064,1.66,0.195,2.051
		c0.259,0.261,0.684,0.586,1.27,0.977s1.041,0.586,1.367,0.586h0.586v-3.418c-0.131-2.278-0.293-3.418-0.488-3.418
		C155.876,65.711,155.063,66.069,154.477,66.785z"/>
	<path fill="#040000" d="M203.168,28.309c0,0.977-0.522,2.019-1.563,3.125c-1.823,1.823-3.386,3.874-4.688,6.152
		c-1.499,2.475-1.889,3.711-1.172,3.711c0.391,0,1.302-0.391,2.734-1.172c1.431-0.781,2.376-1.333,2.832-1.66
		c0.325-0.325,1.172-0.911,2.539-1.758c1.302-0.716,2.115-1.074,2.441-1.074c0.716,0,1.138,0.554,1.27,1.66
		c0,1.042-0.391,2.409-1.172,4.102c-0.391,0.847-0.913,1.758-1.563,2.734c-2.475,3.19-4.069,5.144-4.785,5.859
		c-0.586,0.586-1.01,1.172-1.27,1.758c-0.391,0.651-0.977,1.499-1.758,2.539c-0.913,1.367-1.499,2.28-1.758,2.734l-0.488,0.781
		l0.879,0.488c0.521,0.327,0.911,0.488,1.172,0.488c0.977,0,1.953,0.651,2.93,1.953c1.041,1.303,1.855,4.395,2.441,9.277
		c0.064,1.237,0.228,2.148,0.488,2.734c0.259,0.651,0.716,2.507,1.367,5.566c0.064,0.586,0.325,1.27,0.781,2.051
		c0.259,0.65,0.716,0.977,1.367,0.977c0.521,0.13,0.781,0.391,0.781,0.781v0.195c0,0.391-0.261,0.846-0.781,1.367
		c-0.717,0.521-1.237,0.748-1.563,0.684c-0.456-0.065-1.27-0.554-2.441-1.465l-0.879-0.781l-0.586-0.684
		c-0.065-0.131-0.195-0.456-0.391-0.977l-0.391-1.465l-0.391-2.832l-0.293-3.613v-1.855l-0.195-3.223l-0.684-4.102
		c-0.195-1.041-0.391-1.66-0.586-1.855c-0.327-0.195-1.108-0.325-2.344-0.391c-2.084-0.325-3.354-1.009-3.809-2.051
		c-0.195-0.325-0.293-0.684-0.293-1.074c0-0.455,0.13-0.911,0.391-1.367c0.586-1.172,1.626-2.767,3.125-4.785
		c0.195-0.13,0.455-0.391,0.781-0.781l0.977-1.367c0.13-0.195,0.276-0.406,0.439-0.635c0.162-0.228,0.342-0.439,0.537-0.635
		c1.497-2.148,2.93-4.004,4.297-5.566c1.758-1.953,2.474-3.091,2.148-3.418c-0.065-0.195-1.01,0.456-2.832,1.953
		c-1.694,1.303-2.8,2.084-3.32,2.344c-0.586,0.261-1.335,0.456-2.246,0.586h-0.586c-0.781,0-1.499-0.162-2.148-0.488l-1.074-0.391
		v-1.563v-0.586c0-0.781,0.162-1.563,0.488-2.344c1.172-2.864,2.181-4.751,3.027-5.664c0.521-0.455,1.009-1.074,1.465-1.855
		c0.65-1.041,1.302-1.919,1.953-2.637c0.911-0.911,1.497-1.399,1.758-1.465l1.172-0.098c0.391,0,0.781,0.065,1.172,0.195
		C203.07,27.495,203.168,27.788,203.168,28.309z M241.352,42.664c0,0.327-0.555,0.684-1.66,1.074
		c-1.043,0.261-1.824,0.651-2.344,1.172c-0.652,0.456-1.043,0.684-1.172,0.684c-0.195,0-0.555,0.261-1.074,0.781
		c-2.215,1.889-4.102,3.32-5.665,4.297c-0.391,0.195-0.815,0.456-1.27,0.781l-1.367,0.879c-1.108,0.717-1.823,1.108-2.148,1.172
		c-0.456,0.065-0.815,0.293-1.074,0.684c-0.327,0.586-1.792,1.303-4.395,2.148c-1.172,0.391-2.084,0.586-2.734,0.586
		c-0.913,0-1.367-0.357-1.367-1.074c0-0.65,0.195-1.106,0.586-1.367c0.391-0.391,1.465-1.138,3.223-2.246
		c0.195,0,0.521-0.195,0.977-0.586c0.586-0.325,0.943-0.521,1.074-0.586c0.65-0.521,1.041-0.781,1.172-0.781
		c0.195,0,0.552-0.228,1.074-0.684c0.325-0.325,0.813-0.684,1.465-1.074l1.074-0.586l1.074-0.684l2.441-1.27
		c0.064,0,0.618-0.325,1.661-0.977c0.52-0.391,2.441-1.204,5.762-2.441c1.431-0.521,2.505-0.781,3.223-0.781
		c0.649,0,1.074,0.163,1.27,0.488C241.286,42.405,241.352,42.534,241.352,42.664z M239.497,49.598c0.52,0,1.105,0.391,1.758,1.172
		l1.27,1.855c0.454,1.042,1.691,1.499,3.711,1.367c0.259-0.064,0.586-0.098,0.977-0.098c0.715,0,1.235,0.131,1.563,0.391
		c0.586,0.261,0.879,0.554,0.879,0.879c-0.262,0.261-1.074,0.781-2.441,1.563c-3.32,1.889-5.015,3.027-5.078,3.418
		c0,0.065-0.018,0.163-0.049,0.293c-0.034,0.131-0.049,0.327-0.049,0.586l0.098,1.758l0.195,3.906c0,1.303,0.098,2.051,0.293,2.246
		c0,0.131,0.098,0.195,0.293,0.195c0.129,0,0.454-0.13,0.977-0.391l2.246-0.879c0.586-0.195,1.008-0.293,1.27-0.293l0.586,0.098
		v0.195c0,0.131-0.034,0.229-0.098,0.293l-0.293,0.391c-0.066,0.131-0.229,0.327-0.488,0.586l-0.684,0.781
		c-1.043,1.108-1.89,2.148-2.539,3.125l-1.074,1.563l0.098,4.688l0.098,3.613c0,4.361-0.359,6.966-1.074,7.813
		c-0.195,0.195-0.376,0.439-0.537,0.732c-0.164,0.293-0.342,0.569-0.537,0.83c-0.522,0.716-0.945,1.106-1.27,1.172
		c-0.262,0.064-1.172,0.098-2.734,0.098c-1.238-0.065-2.02-0.163-2.344-0.293c-0.327-0.065-0.945-0.358-1.855-0.879
		c-2.085-1.237-3.386-2.507-3.907-3.809c-0.327-0.977-0.488-1.596-0.488-1.855c0-0.326,0.259-0.944,0.781-1.855
		c1.626-3.386,3.028-5.566,4.2-6.543c0.063-0.131,0.617-0.717,1.66-1.758c0.977-1.041,1.758-1.822,2.344-2.344l1.172-1.27
		l0.098-0.879l-0.195-3.906c-0.195-3.06-0.359-4.654-0.488-4.785c-0.132-0.13-0.488,0.065-1.074,0.586
		c-1.304,1.108-2.378,1.823-3.223,2.148c-0.718,0.456-1.499,0.977-2.344,1.563c-1.043,0.781-1.726,1.172-2.051,1.172
		c-0.391,0-0.847,0.195-1.367,0.586c-0.456,0.391-0.815,0.586-1.074,0.586c-0.261,0-0.944,0.327-2.051,0.977
		c-0.781,0.327-1.401,0.554-1.855,0.684c-0.522,0.131-1.499,0.195-2.93,0.195l-1.855,0.098l-0.977-0.098
		c-0.261,0-0.554-0.162-0.879-0.488c-0.391-0.391-0.586-0.911-0.586-1.563v-1.172l1.563-0.781l2.148-1.172
		c0.325-0.195,0.65-0.195,0.977,0l0.684,0.293c0.521,0,2.051-0.684,4.59-2.051c3.189-1.692,4.883-2.637,5.079-2.832l1.074-0.684
		l2.734-1.758l2.441-1.563c0.715-0.325,0.977-1.79,0.781-4.395c0-1.626,0.161-2.767,0.488-3.418
		C238.388,49.827,238.844,49.598,239.497,49.598z M233.247,10.535h0.586c0.454,0,0.879,0.098,1.27,0.293
		c2.277,1.237,3.774,2.8,4.492,4.688c0.324,1.433,0.488,2.832,0.488,4.199c0,1.237-0.098,2.539-0.293,3.906
		c-0.132,1.042-0.718,2.573-1.758,4.59c-1.108,2.148-2.085,3.776-2.93,4.883c-0.977,1.172-1.922,1.758-2.832,1.758
		c-0.522,0-0.977-0.162-1.367-0.488c-0.066-0.064-0.195-0.098-0.391-0.098c-0.262,0-0.488,0.131-0.684,0.391
		c-0.391,0.391-0.684,0.586-0.879,0.586s-0.488-0.259-0.879-0.781c-1.237-1.367-2.28-2.734-3.125-4.102l-0.781-1.27
		c-0.195-0.391-0.391-1.465-0.586-3.223c-0.195-1.367-0.456-2.896-0.781-4.59c-0.195-0.845-0.424-2.181-0.684-4.004
		c-0.065-0.259-0.098-0.618-0.098-1.074c0-0.65,0.13-1.074,0.391-1.27c0.391-0.325,0.748-0.423,1.074-0.293
		c0.195,0.065,0.748,0.488,1.66,1.27c0.325,0.327,0.748,0.815,1.27,1.465l1.074,1.563c0.259,0.456,0.391,0.847,0.391,1.172
		c0,0.586,0.162,0.879,0.488,0.879c0.455,0,1.497-0.813,3.125-2.441c1.172-1.236,2.148-1.855,2.93-1.855
		c0.91,0,1.172-0.391,0.781-1.172c-0.522-0.911-1.108-1.138-1.758-0.684c-2.02,1.237-3.387,1.823-4.102,1.758
		c-0.327-0.13-0.684-0.391-1.074-0.781c-0.261-0.259-0.391-0.552-0.391-0.879c0-0.325,0.423-0.911,1.27-1.758
		c1.106-1.106,1.919-1.855,2.442-2.246C231.782,10.796,232.333,10.667,233.247,10.535z M235.883,18.348
		c-0.195,0-0.293,0.098-0.293,0.293s-0.262,0.879-0.781,2.051c-0.586,1.042-0.879,1.726-0.879,2.051
		c0,0.327-0.391,0.944-1.172,1.855c-0.781,0.847-1.206,1.401-1.27,1.66v0.781c0,1.563,0.259,2.344,0.781,2.344
		c0.195,0,0.586-0.325,1.172-0.977c1.04-0.845,1.855-2.212,2.441-4.102c0.391-1.302,0.586-2.474,0.586-3.516
		c0-0.586-0.034-1.041-0.098-1.367C236.24,18.706,236.079,18.348,235.883,18.348z M238.52,80.262c-0.327-0.131-0.522,0-0.586,0.391
		l-0.879,1.172c-0.327,0.325-0.815,1.106-1.465,2.344c-0.718,1.236-1.238,2.018-1.563,2.344c-0.391,0.391-0.684,0.911-0.879,1.563
		c-0.262,0.586-0.359,1.009-0.293,1.27c0.324,0.781,1.203,1.172,2.637,1.172c0.845,0,1.465-0.098,1.855-0.293
		c0.324-0.326,0.586-0.814,0.781-1.465c0.324-0.781,0.586-2.084,0.781-3.906l0.195-2.734l-0.098-1.074
		C238.942,80.652,238.779,80.392,238.52,80.262z"/>
	<path fill="#040000" d="M284.403,9.754c0,2.995,0.098,5.078,0.293,6.25c0,0.065,0.098,0.098,0.293,0.098s0.943-0.162,2.246-0.488
		c5.013-1.497,8.951-2.246,11.816-2.246c0.586,0,1.334,0.065,2.246,0.195c0.717,0.131,1.107,0.293,1.172,0.488
		c0.131,0.131-0.064,0.327-0.586,0.586c-0.26,0.195-1.822,0.913-4.688,2.148l-3.417,1.66c-1.107,0.651-2.148,1.14-3.125,1.465
		c-2.865,0.913-4.525,1.596-4.98,2.051l-0.098,0.977c0,2.148,0.162,5.176,0.488,9.082l0.488,6.934
		c0.391,6.772,0.65,10.222,0.781,10.352c0.195,0.131,0.748-0.357,1.66-1.465c1.822-1.888,3.45-3.482,4.883-4.785
		c1.563-1.367,2.604-2.051,3.125-2.051c0.39,0,0.585,0.131,0.585,0.391c0,0.327-0.357,1.01-1.074,2.051l-0.879,1.074
		c-0.261,0.261-0.781,0.977-1.563,2.148c-0.847,1.367-2.214,3.125-4.102,5.273c-1.172,1.367-1.986,2.409-2.441,3.125
		c-0.326,0.651-0.358,1.14-0.098,1.465c0.195,0.391,1.367,1.074,3.516,2.051c1.172,0.522,1.92,0.944,2.246,1.27
		c0.521,0.391,0.846,0.586,0.977,0.586c0.391,0,1.79,0.62,4.199,1.855c1.172,0.651,2.768,1.433,4.785,2.344l2.051,1.074l1.172,0.293
		c0.195,0,0.521,0.131,0.977,0.391l2.734,1.172c1.563,0.651,2.701,1.172,3.418,1.563l4.199,1.953c4.492,1.953,6.998,3.19,7.52,3.711
		c0.455,0.391,0.65,0.913,0.586,1.563c-0.131,0.586-0.26,0.977-0.391,1.172c-0.064,0.064-0.684,0.162-1.855,0.293h-0.977
		c-0.717,0-1.205-0.034-1.465-0.098l-1.758-0.586c-2.604-0.521-6.088-1.888-10.449-4.102l-2.93-1.27
		c-0.65-0.13-1.074-0.293-1.27-0.488l-3.516-1.855l-3.125-1.465c-0.131,0-0.424-0.13-0.879-0.391
		c-2.474-1.692-4.296-2.864-5.468-3.516c-0.912-0.325-1.433-0.65-1.563-0.977c-0.586-0.391-1.01-0.65-1.27-0.781l-0.977-0.488
		l-0.488,0.488c-0.195,0.522-0.326,1.465-0.391,2.832c-0.065,0.522-0.098,1.206-0.098,2.051c0,0.522,0.032,0.847,0.098,0.977
		c0.195,0.391,0.293,2.019,0.293,4.883v3.418c-0.065,4.492-0.293,7.845-0.684,10.059c-0.456,3.125-1.855,4.688-4.199,4.688
		c-0.717,0-1.237-0.131-1.563-0.391c-0.521-0.326-0.717-0.684-0.586-1.074c0-0.391,0.26-0.521,0.781-0.391
		c0.586,0,0.911-0.195,0.977-0.586c0.13-0.521,0.195-2.344,0.195-5.469c0-3.061-0.033-5.632-0.098-7.715
		c-0.195-8.138-0.391-12.369-0.586-12.695c-0.131-0.13-0.391-0.064-0.781,0.195c-0.131,0.065-0.684,0.586-1.66,1.563
		c-0.456,0.456-1.14,1.27-2.051,2.441c-1.498,1.823-3.483,4.038-5.957,6.641c-2.8,2.93-4.265,4.395-4.395,4.395
		c-0.326,0-0.717-0.163-1.172-0.488c-0.456-0.261-0.684-0.521-0.684-0.781c-0.326-1.106,1.822-3.97,6.445-8.594
		c1.497-1.497,3.06-3.223,4.688-5.176l3.613-4.199c0.716-0.911,1.074-1.563,1.074-1.953c0-0.455,0.195-0.813,0.586-1.074
		l0.586-0.586l-0.098-4.785c-0.065-5.337-0.261-8.203-0.586-8.594l-0.391-0.098l-0.781,0.195c-0.456,0.195-1.01,0.293-1.66,0.293
		c-1.498,0-3.093-0.521-4.785-1.563c-0.977-0.586-1.855-1.204-2.637-1.855c-0.847-0.845-1.4-1.204-1.66-1.074
		c-0.326,0.195-0.814,1.303-1.465,3.32c-0.781,2.28-1.465,3.711-2.051,4.297c-0.261,0.261-0.554,0.391-0.879,0.391
		c-0.456,0-0.847-0.162-1.172-0.488c-0.391-0.325-0.586-1.074-0.586-2.246c0-2.017,0.586-4.427,1.758-7.227l0.879-3.418l0.781-2.539
		l-0.586-0.488c-0.391-0.259-1.107-0.357-2.148-0.293h-0.684c-0.781,0-1.4-0.13-1.855-0.391c-0.651-0.259-0.977-0.748-0.977-1.465
		c0-1.302,0.781-2.181,2.344-2.637c0.26-0.13,0.553-0.244,0.879-0.342c0.325-0.098,0.65-0.244,0.977-0.439l1.855-0.684
		c0.26-0.13,0.943-0.455,2.051-0.977c0.521-0.325,0.943-0.488,1.27-0.488c0.521-0.064,1.953-0.586,4.297-1.563l1.66-0.586
		c0.325,0,1.074-0.228,2.246-0.684c1.236-0.455,1.985-0.879,2.246-1.27c0.13-0.259,0.195-0.552,0.195-0.879l-0.098-1.074
		c-0.131-1.041-0.195-1.855-0.195-2.441c0-1.563,0.195-3.353,0.586-5.371c0.13-1.172,0.423-1.953,0.879-2.344
		c0.325-0.325,0.65-0.488,0.977-0.488c0.391,0,0.813,0.229,1.27,0.684l0.684,0.781V9.754z M279.422,24.109
		c0,0-1.27,0.651-3.809,1.953c-0.586,0.391-1.4,0.749-2.441,1.074c-0.847,0.261-1.53,0.554-2.051,0.879
		c-0.586,0.327-0.944,0.944-1.074,1.855c-0.065,0.391-0.098,0.913-0.098,1.563c0,0.717,0.064,1.237,0.195,1.563
		c0.195,0.847,0.553,1.27,1.074,1.27c0.391,0,1.074,0.293,2.051,0.879c0.977,0.717,1.855,1.401,2.637,2.051
		c1.041,1.042,1.627,1.563,1.758,1.563c0,0.065,0.064,0.098,0.195,0.098h0.391c0.13,0.065,0.325,0.098,0.586,0.098
		c0.195,0.065,0.488,0.098,0.879,0.098s0.684-0.064,0.879-0.195l0.781-0.195l-0.098-2.051l-0.293-4.883v-2.734l-0.195-2.441
		c0-1.497-0.163-2.246-0.488-2.246C279.715,24.175,279.422,24.109,279.422,24.109z M299.051,27.039c0,0.391-0.229,0.781-0.684,1.172
		c-0.586,0.327-1.041,0.944-1.367,1.855c-0.261,0.847-0.358,1.563-0.293,2.148c0.26,0.456,0.585,0.815,0.976,1.074
		c0.391,0.261,0.879,0.554,1.465,0.879c0.455,0.261,0.977,0.456,1.563,0.586c0.977,0.131,1.693,0.456,2.148,0.977
		c0.26,0.327,0.391,0.684,0.391,1.074c0,0.195-0.064,0.488-0.195,0.879c-0.26,0.781-1.27,1.237-3.027,1.367
		c-1.041,0.131-1.627,0.163-1.758,0.098c-0.586-0.195-1.171-0.455-1.757-0.781l-0.879-0.488l-0.586-0.391L294.559,37l-0.977-1.465
		c-0.717-1.302-1.074-2.31-1.074-3.027c0-1.626,0.455-3.287,1.367-4.98c0.26-0.455,0.813-0.943,1.66-1.465
		c0.781-0.455,1.399-0.684,1.855-0.684c0.391,0,0.748,0.163,1.074,0.488C298.855,26.258,299.051,26.648,299.051,27.039z"/>
	<path fill="#040000" d="M382.328,22.254c0.912,0.781,1.367,1.237,1.367,1.367c0,0.261,0.131,0.522,0.391,0.781v0.195
		c0,0.261-0.195,0.586-0.586,0.977c-0.65,0.586-1.334,1.042-2.051,1.367c-0.977,0.522-1.822,1.042-2.539,1.563l-4.688,2.93
		c-1.758,0.977-3.613,2.344-5.566,4.102c-1.172,1.172-2.084,1.953-2.734,2.344c-0.586,0.327-1.855,1.465-3.809,3.418
		c-2.084,2.084-3.646,3.776-4.688,5.078l-2.441,2.637c-0.195,0.195-0.521,0.749-0.977,1.66c-0.326,0.847-0.814,1.66-1.465,2.441
		l-1.465,2.148c-0.26,0.651-0.65,1.367-1.172,2.148l-1.172,1.953c-0.26,0.651-0.65,1.367-1.172,2.148
		c-0.455,0.977-0.748,1.66-0.879,2.051L346,65.418c-0.26,0.651-0.455,0.977-0.586,0.977c-0.064,0.065-0.357-0.13-0.879-0.586
		c-0.455-0.455-0.684-1.367-0.684-2.734c0-1.692,0.748-4.231,2.246-7.617l0.879-2.148c0-0.259,0.326-0.748,0.977-1.465
		c0.65-0.716,0.977-1.172,0.977-1.367c0-0.064,0.521-0.716,1.563-1.953c0.977-1.302,1.465-1.985,1.465-2.051
		c0-0.064,1.334-1.431,4.004-4.102c2.994-2.994,4.85-4.817,5.566-5.469c1.953-1.626,3.158-2.669,3.613-3.125
		c3.451-2.734,5.664-4.59,6.641-5.566c0.781-0.781,1.367-1.302,1.758-1.563c0.455-0.325,0.619-0.552,0.488-0.684
		c-0.064-0.064-0.326-0.064-0.781,0l-2.93,0.586c-2.213,0.456-3.451,0.717-3.711,0.781l-4.199,1.074
		c-5.014,1.237-8.301,2.116-9.863,2.637c-1.303,0.456-2.441,0.781-3.418,0.977c-2.604,0.717-4.297,1.27-5.078,1.66
		c-0.26,0.261-0.521,0.391-0.781,0.391c-0.326,0-0.748,0.163-1.27,0.488c-0.717,0.391-1.498,0.684-2.344,0.879l-0.781,0.195
		l-0.879,0.293l-1.074,0.391l-1.074,0.293c-1.627,0.522-2.506,0.879-2.637,1.074l-1.172,0.586c-0.781,0.391-1.367,0.651-1.758,0.781
		c-0.521,0.261-0.879,0.391-1.074,0.391l-0.586-0.293c-0.326-0.195-0.586-0.455-0.781-0.781c-0.26-0.259-0.391-0.488-0.391-0.684
		c0-0.781,0.717-1.692,2.148-2.734l0.586-0.488l0.684-0.586l0.488-0.293c0.521-0.455,1.01-0.716,1.465-0.781l1.563-0.977
		c0.586-0.391,0.977-0.586,1.172-0.586l2.539-1.074c3.516-1.563,7.389-2.896,11.621-4.004l2.832-0.781
		c0.781-0.325,4.102-1.106,9.961-2.344c0.064-0.064,0.391-0.162,0.977-0.293l1.074-0.293l4.98-0.781
		c2.604-0.521,5.111-0.781,7.52-0.781l3.711,0.195L382.328,22.254z M366.801,40.32c0.717,0,1.303,0.488,1.758,1.465
		c0.131,0.261,0.195,1.27,0.195,3.027c0,4.428-0.064,6.901-0.195,7.422c-0.131,0.131-0.162,1.921-0.098,5.371
		c0,4.102,0.064,6.772,0.195,8.008c0.195,1.628,0.293,3.386,0.293,5.273c0,1.042,0.064,1.953,0.195,2.734
		c0.65,2.93,1.041,4.817,1.172,5.664c0,0.716-0.229,1.27-0.684,1.66c-0.26,0.195-0.586,0.293-0.977,0.293
		c-0.131,0-0.455-0.065-0.977-0.195c-1.041-0.326-1.791-0.912-2.246-1.758c-0.65-0.912-1.01-1.758-1.074-2.539
		c-0.064-1.041-0.229-1.985-0.488-2.832c-0.195-1.563-0.391-4.751-0.586-9.57c-0.064-1.626-0.098-3.613-0.098-5.957
		c0-1.758,0.033-2.864,0.098-3.32l0.391-4.492c0.586-5.599,1.236-8.789,1.953-9.57C366.02,40.549,366.41,40.32,366.801,40.32z
		 M378.52,51.746c1.627,0.781,3.061,2.051,4.297,3.809s1.66,3.093,1.27,4.004c-0.131,0.261-0.357,0.391-0.684,0.391
		c-0.131,0-0.65-0.13-1.563-0.391c-1.432-0.521-2.896-1.333-4.395-2.441c-0.912-0.781-1.596-1.236-2.051-1.367l-1.758-1.563
		c-1.303-1.106-1.953-2.148-1.953-3.125c0-0.455,0.162-0.845,0.488-1.172c0.326-0.325,0.717-0.488,1.172-0.488
		c0.586,0,1.334,0.261,2.246,0.781L378.52,51.746z"/>
	<path fill="#040000" d="M412.348,65.906v0.586c0,0.651-0.131,1.237-0.391,1.758c-0.455,0.781-0.977,2.084-1.563,3.906
		c-0.391,1.433-0.814,2.702-1.27,3.809l-0.586,1.66c-0.064,0.586-0.195,0.977-0.391,1.172c-0.195,0.064-0.229,0.162-0.098,0.293
		l0.391,0.098c0.064-0.065,0.162-0.033,0.293,0.098c0.064,0.064,0.098,0.195,0.098,0.391c0,0.391-0.293,0.716-0.879,0.977
		c-0.846,0.325-1.205,0.879-1.074,1.66c0,0.65-0.293,1.106-0.879,1.367c-0.131,0.064-0.293,0.098-0.488,0.098
		c-0.326,0-0.65-0.163-0.977-0.488c-0.391-0.391-0.586-1.172-0.586-2.344c0-0.847,0.098-1.855,0.293-3.027
		c0.195-1.497,0.781-3.287,1.758-5.371c0.326-0.716,0.619-1.626,0.879-2.734c0.977-3.58,1.66-5.533,2.051-5.859
		c0.391-0.259,0.717-0.391,0.977-0.391c0.455,0,0.912,0.195,1.367,0.586C411.795,64.539,412.152,65.125,412.348,65.906z
		 M423.676,14.734c1.303,1.499,2.051,3.776,2.246,6.836v0.586c0,0.651-0.131,1.433-0.391,2.344c-0.326,0.781-0.488,1.335-0.488,1.66
		c0,0.456-0.424,1.303-1.27,2.539l-1.172,1.758c-1.563,2.539-3.287,4.46-5.176,5.762c-1.107,0.781-2.213,1.206-3.32,1.27
		c-0.521,0.131-0.943,0.195-1.27,0.195c-0.65,0-1.4-0.162-2.246-0.488c-1.172-0.391-1.953-0.879-2.344-1.465
		c-0.781-1.106-1.172-2.212-1.172-3.32c0-0.911,0.195-1.79,0.586-2.637c0.131-0.259,0.195-0.748,0.195-1.465
		c0-0.65-0.033-1.138-0.098-1.465c-0.781-3.97-1.303-6.152-1.563-6.543c-0.131-0.586-0.162-1.172-0.098-1.758
		c0-0.716,0.131-1.204,0.391-1.465c0.26-0.325,0.65-0.488,1.172-0.488c0.65,0,1.465,0.261,2.441,0.781
		c0.846,0.391,1.303,0.456,1.367,0.195c1.563-2.734,3.158-4.297,4.785-4.688c0.26-0.064,1.107-0.098,2.539-0.098
		C420.746,12.717,422.373,13.367,423.676,14.734z M423.969,36.316c0,0,0.162,0.065,0.488,0.195c0.064,0.065,0.146,0.131,0.244,0.195
		c0.098,0.065,0.244,0.131,0.439,0.195l0.488,0.488c0.131,0.131-0.098,1.563-0.684,4.297c-0.781,3.776-1.529,6.381-2.246,7.813
		c-0.521,0.847-1.4,3.125-2.637,6.836c-0.521,1.563-0.781,2.539-0.781,2.93c0,0.327,0.229,0.488,0.684,0.488s1.432-0.228,2.93-0.684
		l2.051-0.586l2.051-0.586l1.953-0.488c2.67-0.781,4.688-1.172,6.055-1.172c1.498,0,3.027,0.327,4.59,0.977
		c1.367,0.456,2.506,1.14,3.418,2.051c0.521,0.522,0.977,1.042,1.367,1.563c0.195,0.327,0.424,0.815,0.684,1.465l0.293,2.148
		c0.064,0.261,0.098,0.717,0.098,1.367c0,1.628-0.391,3.483-1.172,5.566c-0.131,0.391-0.391,1.401-0.781,3.027
		c-0.195,0.586-0.879,2.051-2.051,4.395c-1.172,2.408-1.986,3.906-2.441,4.492c-1.432,2.018-2.701,3.548-3.809,4.59
		c-0.912,0.977-1.889,1.79-2.93,2.441c-0.912,0.65-1.822,0.977-2.734,0.977c-0.781,0-1.465-0.195-2.051-0.586
		c-0.65-0.391-1.563-1.205-2.734-2.441c-2.604-2.8-4.102-4.199-4.492-4.199c-0.131,0-0.391,0.293-0.781,0.879
		c-0.846,1.172-1.4,1.888-1.66,2.148c-0.65,0.716-0.977,1.204-0.977,1.465c0,0.195-0.488,0.521-1.465,0.977
		c-1.041,0.521-1.725,0.781-2.051,0.781s-0.748-0.098-1.27-0.293c-0.391-0.195-0.943-0.358-1.66-0.488
		c-1.172,0-1.563-0.521-1.172-1.563c0.26-0.456,0.619-0.781,1.074-0.977c0.391-0.131,0.846-0.424,1.367-0.879
		c0.455-0.456,0.684-0.781,0.684-0.977c0-0.261,0.26-0.586,0.781-0.977c0.586-0.456,0.912-0.847,0.977-1.172
		c0.064-0.391,0.357-0.781,0.879-1.172c0.521-0.651,0.912-1.27,1.172-1.855c0.391-0.847,0.781-1.563,1.172-2.148
		c0.455-0.522,0.879-1.236,1.27-2.148l1.465-3.125c1.236-2.539,1.889-4.622,1.953-6.25c0.064-0.195,0.098-0.423,0.098-0.684
		c0-0.391-0.131-0.684-0.391-0.879c-0.391-0.195-0.748-0.293-1.074-0.293c-0.391,0-1.074-0.195-2.051-0.586
		c-0.912-0.259-1.498-0.521-1.758-0.781c-0.195-0.13-0.455-0.618-0.781-1.465l-0.391-1.172l1.172-3.516l0.977-2.832
		c0.391-1.106,1.107-3.32,2.148-6.641c2.018-7.031,3.32-10.708,3.906-11.035C423.936,36.35,423.969,36.316,423.969,36.316z
		 M409.418,33.289c0,0.131,0.064,0.456,0.195,0.977c0.391,0.847,1.041,1.367,1.953,1.563c0.326-0.13,0.488-0.259,0.488-0.391
		c0-0.195-0.195-0.325-0.586-0.391c-0.391-0.13-0.586-0.293-0.586-0.488l-0.293-1.074c-0.26-0.65-0.586-0.911-0.977-0.781
		C409.482,32.834,409.418,33.03,409.418,33.289z M414.496,17.664c-0.391,0.391-0.846,0.651-1.367,0.781
		c-0.586,0.261-0.943,0.456-1.074,0.586v0.195c0,0.391,0.098,0.977,0.293,1.758c0.195,1.237,0.391,1.889,0.586,1.953
		c0.064,0.131,0.424,0.195,1.074,0.195c1.041,0,2.377-0.13,4.004-0.391l0.977-0.098c0.521,0,0.879,0.098,1.074,0.293l0.293,0.586
		c0,0.261-0.424,0.781-1.27,1.563c-0.781,0.781-1.4,1.237-1.855,1.367c-0.326,0.065-0.586,0.195-0.781,0.391l-1.465,1.172
		c-0.846,0.651-1.27,1.27-1.27,1.855c0,1.172,0.357,2.051,1.074,2.637c0.326,0.195,0.357,0.62,0.098,1.27
		c-0.131,0.586-0.131,0.944,0,1.074h0.098c0.195,0,0.65-0.259,1.367-0.781c0.846-0.65,1.465-1.27,1.855-1.855
		c1.303-1.822,2.344-4.166,3.125-7.031c0.326-1.236,0.488-2.474,0.488-3.711c0-1.041-0.162-1.758-0.488-2.148l-0.781-1.367
		c-0.26-0.521-0.717-0.943-1.367-1.27c-0.455-0.259-0.943-0.391-1.465-0.391C416.678,16.297,415.604,16.753,414.496,17.664z
		 M438.129,60.047l-0.977-0.098c-0.521,0-1.041,0.098-1.563,0.293c-0.781,0.327-1.498,0.522-2.148,0.586l-5.664,2.344l-1.367,0.586
		l0.195,1.953l0.195,2.734c0,1.172-1.27,4.362-3.809,9.57c-1.041,1.953-1.465,3.092-1.27,3.418c0.131,0.325,0.553,0.813,1.27,1.465
		c0.781,0.521,1.4,1.009,1.855,1.465c0.65,0.716,1.66,1.236,3.027,1.563h0.586c0.65,0,1.236-0.131,1.758-0.391
		c0.717-0.391,1.498-1.074,2.344-2.051c0.912-1.237,1.889-2.734,2.93-4.492c1.953-3.45,2.93-5.403,2.93-5.859
		c0-0.259,0.131-0.488,0.391-0.684c0.195-0.13,0.488-0.845,0.879-2.148c0.846-3.06,1.27-5.306,1.27-6.738
		c0-1.367-0.293-2.278-0.879-2.734C439.561,60.374,438.91,60.112,438.129,60.047z"/>
</g>
</svg>
