<?xml version="1.0" encoding="utf-8"?>
<!-- Generator: Adobe Illustrator 16.0.0, SVG Export Plug-In . SVG Version: 6.00 Build 0)  -->
<!DOCTYPE svg PUBLIC "-//W3C//DTD SVG 1.1//EN" "http://www.w3.org/Graphics/SVG/1.1/DTD/svg11.dtd">
<svg version="1.1" id="圖層_1" xmlns="http://www.w3.org/2000/svg" xmlns:xlink="http://www.w3.org/1999/xlink" x="0px" y="0px"
	 width="430px" height="99px" viewBox="0 0 430 99" enable-background="new 0 0 430 99" xml:space="preserve">
<g>
	<path fill="#FFFFFF" d="M27.4,9.363c0.13,0.261,0.195,0.522,0.195,0.781c0,0.195-0.017,0.456-0.049,0.781
		c-0.034,0.327,0.049,0.586,0.244,0.781c0.391,0.261,0.649,0.391,0.781,0.391c0.195,0,0.552-0.13,1.074-0.391l1.465-0.293
		c0.586,0,0.911,0.098,0.977,0.293l0.098,0.391l-0.195,0.781c-0.132,0.522-0.261,0.815-0.391,0.879
		c-0.065,0.065-0.62,0.391-1.66,0.977L27.4,15.809c-0.261,0.261-0.62,0.749-1.074,1.465c-0.586,1.042-0.944,1.758-1.074,2.148
		c0,0.131-0.327,1.01-0.977,2.637l-0.586,1.465c0,0.065,0.063,0.098,0.195,0.098c0.325,0,0.911-0.228,1.758-0.684
		c0.845-0.455,1.431-0.684,1.758-0.684c0.391,0,1.27-0.228,2.637-0.684c1.302-0.455,2.246-0.684,2.832-0.684
		c0.649,0,1.04,0.261,1.172,0.781v0.195c0,0.456-0.293,0.879-0.879,1.27c-0.586,0.261-1.14,0.684-1.66,1.27
		c-0.522,0.522-1.401,1.14-2.637,1.855c-1.563,1.042-2.378,1.563-2.441,1.563c-1.042,0.847-3.125,1.823-6.25,2.93
		c-0.781,0.261-1.758,0.391-2.93,0.391c-2.019-0.13-3.062-0.748-3.125-1.855c0-0.391,0.13-0.813,0.391-1.27
		c0.195-0.391,0.454-0.586,0.781-0.586c1.04,0,2.148-0.65,3.32-1.953c0.716-0.716,1.172-1.497,1.367-2.344l0.391-2.539
		c0.325-1.367,0.293-2.051-0.098-2.051c-0.327,0-0.977,0.229-1.953,0.684c-1.172,0.456-1.987,0.684-2.441,0.684
		c-0.261,0-1.042,0.163-2.344,0.488c-1.237,0.327-2.409,0.456-3.516,0.391c-2.539-0.325-3.906-0.716-4.102-1.172l-0.098-0.391
		c0-0.455,0.423-0.716,1.27-0.781c0.781-0.195,3.711-1.465,8.789-3.809c0.845-0.391,1.563-0.586,2.148-0.586
		c0.521,0,0.813-0.098,0.879-0.293c0.13-0.13,0.423-0.195,0.879-0.195c0.521,0,0.879-0.13,1.074-0.391
		c0.195-0.259,0.423-1.204,0.684-2.832c0.195-1.431,0.356-2.376,0.488-2.832c0.13-0.13,0.325-0.195,0.586-0.195
		c0.454,0,1.074,0.098,1.855,0.293C26.033,7.866,27.01,8.452,27.4,9.363z M40.682,63.953c1.106,0,1.66,0.358,1.66,1.074
		c0,0.977-1.27,1.855-3.809,2.637l-2.93,0.781c-1.953,0.586-5.601,1.889-10.938,3.906c-2.604,0.913-5.664,1.921-9.18,3.027
		c-3.19,0.977-5.176,1.465-5.957,1.465c-1.108,0-1.987-0.293-2.637-0.879c-0.781-0.717-1.042-1.302-0.781-1.758
		c0.063-0.195,0.454-0.357,1.172-0.488c0.781-0.13,1.888-0.521,3.32-1.172c1.821-0.586,2.896-0.911,3.223-0.977
		c0.454-0.064,1.138-0.293,2.051-0.684c0.586-0.325,1.431-0.684,2.539-1.074c3.906-1.302,5.923-2.017,6.055-2.148
		c0.195-0.195,0.521-0.293,0.977-0.293c0.325,0,0.552-0.064,0.684-0.195c0.13-0.064,1.106-0.357,2.93-0.879l4.492-1.172
		c1.302-0.391,2.571-0.684,3.809-0.879C38.858,64.051,39.964,63.953,40.682,63.953z M32.088,51.648
		c0.911,0.261,1.497,0.586,1.758,0.977c0.063,0.131,0.098,0.358,0.098,0.684c0,0.391-0.065,0.717-0.195,0.977
		c-0.132,0.717-0.488,1.335-1.074,1.855c-0.586,0.847-0.913,1.367-0.977,1.563c-0.261,0.391-0.586,0.781-0.977,1.172l-1.465,1.465
		c-0.391,0.327-0.913,0.684-1.563,1.074c-0.781,0.456-1.367,0.879-1.758,1.27c-0.456,0.456-1.14,0.879-2.051,1.27l-2.637,1.465
		l-1.66,0.781c-0.261,0-0.62,0.163-1.074,0.488c-1.499,1.108-2.312,1.433-2.441,0.977l-0.098-0.195c0-0.325,0.391-0.716,1.172-1.172
		c0.649-0.391,1.009-0.684,1.074-0.879V65.32c0-0.13-0.261-0.618-0.781-1.465c-0.586-0.911-0.913-1.595-0.977-2.051
		c-0.132-0.455-0.261-1.465-0.391-3.027l-0.098-1.758l0.098-0.977c0.063-0.195,0.195-0.391,0.391-0.586
		c0.063-0.064,0.391-0.098,0.977-0.098c2.212,0.131,3.548,0.456,4.004,0.977c0.195,0.195,0.356,0.586,0.488,1.172
		c0,0.522,0.063,0.847,0.195,0.977h0.098c0.325,0,0.845-0.455,1.563-1.367c0.649-0.845,1.367-1.919,2.148-3.223l1.172-2.344
		l1.27-0.098l1.758-0.195C30.589,51.258,31.241,51.389,32.088,51.648z M22.42,33.973c-0.327,0.456-0.684,1.074-1.074,1.855
		c-0.261,0.651-0.261,1.042,0,1.172c0.259,0.195,0.618,0.293,1.074,0.293c0.391,0,0.813-0.13,1.27-0.391
		c0.521-0.325,1.821-0.488,3.906-0.488c1.692,0,2.798,0.098,3.32,0.293c0.391,0.195,0.845,0.749,1.367,1.66
		c0.195,0.391,0.293,1.074,0.293,2.051c0,2.866-0.815,5.112-2.441,6.738c-0.847,0.847-1.27,1.303-1.27,1.367
		c0,0.195-0.229,0.424-0.684,0.684c-0.847,0.522-1.367,0.879-1.563,1.074c-0.456,0.456-0.847,0.684-1.172,0.684
		c-0.391,0-0.913,0.229-1.563,0.684c-0.781,0.391-1.465,0.684-2.051,0.879l-1.074,0.098l-0.781-1.367
		c-0.586-1.106-0.913-2.278-0.977-3.516c-0.132-1.692-0.195-3.775-0.195-6.25c0-2.603,0.063-4.231,0.195-4.883
		c0.13-0.391,0.488-0.845,1.074-1.367l1.465-1.758c0.781-0.911,1.27-1.138,1.465-0.684C23.006,32.996,22.811,33.387,22.42,33.973z
		 M28.572,78.016c-0.132,0.521-0.034,0.846,0.293,0.977c0.325,0.13,0.716,0.162,1.172,0.098l2.637-0.293h0.781
		c0.845,0,1.497,0.13,1.953,0.391c1.235,0.781,1.855,2.311,1.855,4.59v2.246L36.189,87c-1.367,1.302-2.93,2.083-4.688,2.344
		l-2.051,0.293c-0.456,0.13-0.815,0.488-1.074,1.074c-0.132,0.391-0.229,0.618-0.293,0.684l-0.391,0.195
		c-0.132,0.064-0.425,0.098-0.879,0.098c-0.586,0-1.237-0.195-1.953-0.586c-1.237-0.586-1.855-1.758-1.855-3.516
		c0-0.456,0.032-0.814,0.098-1.074c0.13-1.433,0.161-3.027,0.098-4.785c-0.065-3.776,0.063-6.022,0.391-6.738
		c0.195-0.325,0.488-0.488,0.879-0.488c0.454,0,1.106,0.293,1.953,0.879C27.986,76.355,28.702,77.234,28.572,78.016z M24.373,45.301
		c0.195,0.195,0.325,0.261,0.391,0.195c0.259-0.521,0.521-1.138,0.781-1.855c0.325-1.041,0.454-1.595,0.391-1.66
		c-0.065-0.195-0.195-0.293-0.391-0.293c-0.327,0-0.684,0.554-1.074,1.66l-0.098,0.586C24.178,44.715,24.178,45.171,24.373,45.301z
		 M30.916,82.801c-0.195-0.131-0.554,0.325-1.074,1.367c-0.522,0.977-0.749,1.529-0.684,1.66c0.13,0.195,0.293,0.293,0.488,0.293
		c0.325,0,0.684-0.293,1.074-0.879c0.325-0.651,0.488-1.172,0.488-1.563C31.144,83.224,31.046,82.931,30.916,82.801z M56.6,9.949
		c1.172-1.172,2.017-1.888,2.539-2.148c0.521-0.325,0.781-0.423,0.781-0.293l-0.098,0.586v0.195c0,0.261,0.098,0.586,0.293,0.977
		c0.325,0.456,0.488,0.781,0.488,0.977c0,0.847,0.552,1.108,1.66,0.781c0.521-0.195,1.595-0.357,3.223-0.488h0.879
		c1.172,0,1.953,0.131,2.344,0.391c0.454,0.327,0.521,0.684,0.195,1.074c-0.132,0.391-0.391,0.651-0.781,0.781
		c-1.563,0.586-3.483,1.433-5.762,2.539l-3.125,1.367c-1.172,0.456-1.89,0.879-2.148,1.27c-0.132,0.261-0.195,0.488-0.195,0.684
		c0,0.261,0.098,0.586,0.293,0.977c0.454,0.847,1.106,1.27,1.953,1.27c0.391,0,0.684-0.032,0.879-0.098
		c1.302-0.521,2.896-1.367,4.785-2.539c0.911-0.455,1.724-0.684,2.441-0.684c1.302,0,2.148,0.131,2.539,0.391
		c0.391,0.261,0.586,0.651,0.586,1.172c0,0.781-0.391,1.563-1.172,2.344c-0.651,0.717-1.53,1.335-2.637,1.855
		c-1.758,0.847-3.581,1.27-5.469,1.27c-1.499,0-2.995-0.293-4.492-0.879c-1.108-0.521-2.246-1.367-3.418-2.539l-1.465-1.758
		l-1.172,0.391c-0.718,0.261-1.694,0.391-2.93,0.391c-2.214,0-3.613-0.293-4.199-0.879c-0.261-0.064-0.391-0.228-0.391-0.488
		c0-0.13,0.098-0.293,0.293-0.488l0.781-0.488l1.27-0.488l2.734-1.27c0.649-0.325,1.074-0.488,1.27-0.488
		c0.195-0.13,0.781-0.357,1.758-0.684l0.879-0.488l0.977-0.391c0.325-0.13,0.747-0.586,1.27-1.367
		C54.646,12.163,55.428,11.252,56.6,9.949z M69.588,47.059c0.454-0.325,1.431-0.455,2.93-0.391c1.626,0,2.7,0.131,3.223,0.391
		c0.521,0.327,0.781,0.781,0.781,1.367c0.195,1.758-1.823,3.809-6.055,6.152c-1.304,0.781-2.085,1.303-2.344,1.563
		c-0.586,0.456-1.172,0.815-1.758,1.074c-4.233,2.084-6.511,3.32-6.836,3.711c-0.327,0.327-0.293,0.488,0.098,0.488l1.465-0.391
		c2.993-1.041,6.185-1.953,9.57-2.734c0.325-0.13,1.79-0.488,4.395-1.074c2.344-0.586,3.743-0.879,4.199-0.879l2.344-0.195
		c0.454-0.13,1.074-0.195,1.855-0.195s1.333,0.065,1.66,0.195c1.172,0.131,1.79,0.327,1.855,0.586c0.063,0.261,0.063,0.586,0,0.977
		c-0.065,0.456-0.293,0.749-0.684,0.879c-2.085,1.042-3.776,1.563-5.078,1.563c-0.781,0-1.758,0.163-2.93,0.488l-2.637,0.684
		c-0.718,0.065-1.499,0.261-2.344,0.586l-6.445,1.758l-3.418,1.074l-4.98,1.465c-2.344,0.717-4.331,1.433-5.957,2.148
		c-1.628,0.586-2.964,0.879-4.004,0.879c-1.042,0-1.758-0.098-2.148-0.293c-0.261-0.13-0.488-0.293-0.684-0.488
		c-0.065-0.064-0.098-0.423-0.098-1.074c0.13-0.65,0.228-1.009,0.293-1.074c0.13-0.13,0.423-0.293,0.879-0.488
		c0.521-0.13,1.66-0.618,3.418-1.465c1.821-0.781,3.027-1.399,3.613-1.855c0.521-0.325,0.781-0.618,0.781-0.879
		c0-0.064-0.261-0.781-0.781-2.148c-0.522-1.758-0.977-3.677-1.367-5.762c-0.261-1.106-0.261-1.79,0-2.051
		c0.259-0.13,0.684-0.195,1.27-0.195c1.367,0,2.441,0.131,3.223,0.391c0.391,0.261,0.747,0.651,1.074,1.172
		c0.13,0.327,0.356,1.206,0.684,2.637c0.13,0.781,0.228,1.206,0.293,1.27c0.13,0.261,0.356,0.424,0.684,0.488l0.391,0.098
		c0.391,0,0.845-0.259,1.367-0.781l4.004-4.395c1.692-1.888,2.669-3.091,2.93-3.613C68.772,47.874,69.197,47.319,69.588,47.059z
		 M58.748,31.434c0.454,0.391,1.04,0.488,1.758,0.293c0.649-0.13,1.855-0.259,3.613-0.391c1.431,0,2.407,0.065,2.93,0.195
		c1.626,0.847,2.637,2.573,3.027,5.176v0.879c0,1.108-0.034,2.019-0.098,2.734c-0.132,1.563-0.327,2.573-0.586,3.027
		c-0.651,0.913-1.987,2.019-4.004,3.32c-1.304,0.913-3.354,1.563-6.152,1.953c-1.108,0.131-1.792,0.261-2.051,0.391
		c-0.132,0.131-0.195,0.131-0.195,0c-0.065,0-0.065-0.098,0-0.293c0-0.195,0.552-0.586,1.66-1.172
		c1.758-0.911,3.06-2.212,3.906-3.906c1.04-2.083,1.563-3.97,1.563-5.664c0-0.911-0.098-1.692-0.293-2.344
		c-0.195-0.65-0.425-0.977-0.684-0.977c-0.132,0-0.456,0.261-0.977,0.781c-0.456,0.327-1.042,1.074-1.758,2.246
		c-0.651,1.042-0.977,1.855-0.977,2.441c0,0.195-0.065,0.424-0.195,0.684c-0.391,0.391-0.879,1.987-1.465,4.785
		c-0.065,0.586-0.195,1.074-0.391,1.465c-0.195,0.261-0.522,0.391-0.977,0.391c-0.522,0-0.913-0.325-1.172-0.977
		c-0.261-0.455-0.391-1.529-0.391-3.223c0-3.646,0.161-5.989,0.488-7.031c0.716-2.864,1.302-4.688,1.758-5.469
		c0.259-0.325,0.472-0.521,0.635-0.586c0.161-0.064,0.276,0.034,0.342,0.293C58.064,30.848,58.292,31.174,58.748,31.434z
		 M66.561,69.813c0.13,0.261,0.259,1.172,0.391,2.734l0.195,2.344l1.563-0.098c0.977,0,1.626-0.098,1.953-0.293
		c0.391-0.195,1.172-0.293,2.344-0.293c1.172,0.131,1.985,0.327,2.441,0.586c1.04,0.455,1.953,1.432,2.734,2.93
		c0.325,0.65,0.488,1.334,0.488,2.051c0,0.911-0.229,1.855-0.684,2.832c-0.391,0.846-1.108,1.595-2.148,2.246l-2.246,1.367
		c-1.563,1.041-4.004,1.888-7.324,2.539c-1.367,0.26-2.604,0.423-3.711,0.488h-0.684c-0.977,0-1.792-0.163-2.441-0.488
		c-0.651-0.391-1.074-0.944-1.27-1.66c-0.132-0.391-0.195-0.651-0.195-0.781c0-0.261,0.13-0.521,0.391-0.781
		c0.259-0.065,0.488,0.064,0.684,0.391c0.521,0.716,0.813,0.684,0.879-0.098v-0.879c0-0.586,0.063-1.14,0.195-1.66
		c0.195-0.391,0.356-1.889,0.488-4.492c0.325-6.38,0.716-9.798,1.172-10.254c0.063-0.13,0.293-0.195,0.684-0.195
		c0.586,0,1.367,0.195,2.344,0.586C65.779,69.26,66.365,69.553,66.561,69.813z M67.732,79.578c-0.781,0.781-1.367,1.725-1.758,2.832
		c-0.391,1.367-0.425,2.148-0.098,2.344c0.325,0.13,1.302-0.195,2.93-0.977c1.497-0.717,2.441-1.367,2.832-1.953
		c0.391-0.651,0.586-1.335,0.586-2.051c0-0.521-0.098-1.042-0.293-1.563c-0.065-0.391-0.293-0.586-0.684-0.586
		C70.401,77.625,69.229,78.275,67.732,79.578z"/>
	<path fill="#FFFFFF" d="M105.342,50.77c0,0,0.684-0.357,2.051-1.074c1.04-0.521,1.919-0.684,2.637-0.488l1.563,0.195
		c0.13,0.131,0.195,0.261,0.195,0.391c0,0.391-0.425,1.108-1.27,2.148c-0.522,0.651-1.206,1.563-2.051,2.734
		c-0.327,0.586-0.781,1.172-1.367,1.758c-0.456,0.456-0.684,0.847-0.684,1.172l-0.488,0.879l-1.074,1.563l-1.27,1.465
		c-0.651,0.456-1.237,0.749-1.758,0.879h-0.391c-0.522,0-1.172-0.098-1.953-0.293c-0.847-0.259-1.401-0.521-1.66-0.781
		c-0.261-0.195-0.456-0.586-0.586-1.172l-0.098-0.879l4.297-4.395C104.038,52.137,105.342,50.77,105.342,50.77z M117.451,52.137
		c0.259,0,0.716-0.423,1.367-1.27c0.649-0.845,1.074-1.138,1.27-0.879c0.063,0.065-0.195,0.749-0.781,2.051
		c-0.522,1.172-1.074,2.214-1.66,3.125c-0.456,0.651-0.684,1.14-0.684,1.465c0,0.327-0.065,0.554-0.195,0.684
		c-0.132,0.065-0.651,0.847-1.563,2.344c-0.718,1.172-1.237,2.182-1.563,3.027c-0.195,0.586-0.391,0.977-0.586,1.172
		c-0.261,0.261-0.718,1.074-1.367,2.441c-0.718,1.499-1.27,2.507-1.66,3.027c-0.391,0.586-0.651,1.108-0.781,1.563
		c-0.327,1.108-0.879,2.084-1.66,2.93c-0.586,0.586-1.206,0.879-1.855,0.879c-0.718,0-1.367-0.098-1.953-0.293
		c-0.391-0.325-0.718-0.684-0.977-1.074c-0.261-0.455-0.358-0.879-0.293-1.27c0.13-0.455,0.911-1.692,2.344-3.711l3.027-4.199
		c0.391-0.586,1.172-1.626,2.344-3.125c0.13-0.195,0.684-0.911,1.66-2.148c0.781-0.977,1.172-1.529,1.172-1.66l2.344-2.734
		l1.465-1.758C117.061,52.332,117.256,52.137,117.451,52.137z M105.049,33.191c0.911,0,1.79,0.098,2.637,0.293
		c1.497,0.195,2.637,0.847,3.418,1.953c0.063,0.131,0.325,0.554,0.781,1.27c0.845,1.108,1.399,2.8,1.66,5.078v0.391
		c0,0.522-0.132,0.913-0.391,1.172c-0.327,0.195-0.522,0.261-0.586,0.195c-0.261-0.259-0.522-0.586-0.781-0.977
		c-1.433-2.148-2.866-3.516-4.297-4.102c-1.89-0.911-3.223-1.79-4.004-2.637c-0.195-0.195-0.293-0.521-0.293-0.977
		c0-0.716,0.098-1.172,0.293-1.367C103.616,33.289,104.136,33.191,105.049,33.191z M147.725,38.074c0,0.913,0.13,1.401,0.391,1.465
		c0.063,0.131,0.649,0.261,1.758,0.391c1.758,0.065,3.384,0.488,4.883,1.27c2.212,1.172,3.677,2.409,4.395,3.711
		c0.195,0.586,0.454,1.108,0.781,1.563c0.649,0.651,0.977,1.758,0.977,3.32c0,1.433-0.229,3.027-0.684,4.785l-1.563,4.59
		c-0.781,2.148-1.304,3.354-1.563,3.613c-0.327,0.651-0.554,1.172-0.684,1.563c-0.327,0.913-0.62,1.563-0.879,1.953
		c-0.261,0.261-0.554,0.684-0.879,1.27c-0.327,0.522-0.718,0.977-1.172,1.367c-0.391,0.391-0.586,0.717-0.586,0.977
		c0,0.847-0.815,1.596-2.441,2.246c-1.042,0.456-1.694,0.879-1.953,1.27c-0.132,0.131-0.651,0.522-1.563,1.172
		c0.259-0.195-0.651,0.423-2.734,1.855c-0.847,0.521-1.367,0.813-1.563,0.879c-0.391,0.13-0.944,0.195-1.66,0.195
		c-1.499,0-2.573-0.163-3.223-0.488c-0.586-0.391-0.977-1.074-1.172-2.051v-0.195c0-0.521,0.259-0.943,0.781-1.27
		c0.259-0.259,0.879-0.684,1.855-1.27l2.93-1.465c0.845-0.455,1.431-0.684,1.758-0.684c0.716,0,1.074-0.195,1.074-0.586
		c0-0.195-0.132-0.293-0.391-0.293c-0.261,0-1.074-0.716-2.441-2.148c-1.563-1.431-2.476-2.115-2.734-2.051
		c-0.327,0-0.879-0.098-1.66-0.293c-0.718-0.064-1.237-0.423-1.563-1.074c-0.261-0.455-0.391-0.879-0.391-1.27
		c0-0.586,0.454-1.333,1.367-2.246c0.911-0.781,1.855-2.181,2.832-4.199c0.977-1.953,1.758-4.102,2.344-6.445
		c0.325-1.172,0.488-2.212,0.488-3.125c0-0.521-0.065-0.813-0.195-0.879h-0.098c-0.327,0-0.684,0.261-1.074,0.781
		c-0.586,0.586-0.977,1.172-1.172,1.758c-0.327,0.651-0.488,1.53-0.488,2.637c0,1.172-0.065,1.953-0.195,2.344
		c-0.195,0.327-0.522,0.488-0.977,0.488c-0.456,0-0.781-0.13-0.977-0.391c-0.195-0.195-0.391-0.259-0.586-0.195
		c-0.456,0.261-1.074,1.987-1.855,5.176c-0.391,1.953-0.718,3.125-0.977,3.516c-0.327,0.913-1.14,3.418-2.441,7.52
		c-0.391,1.367-0.684,2.084-0.879,2.148c-0.261,0.261-0.684,0.293-1.27,0.098c-0.522-0.064-1.042-0.325-1.563-0.781
		c-0.781-0.586-1.563-2.571-2.344-5.957c-0.522-1.758-0.944-4.849-1.27-9.277c-0.132-2.212-0.195-3.58-0.195-4.102
		c0-1.953,0.161-3.157,0.488-3.613c0.259-0.13,0.618-0.195,1.074-0.195c0.781,0,1.367,0.327,1.758,0.977
		c0.391,0.847,0.618,2.28,0.684,4.297c0.13,3.581,0.454,6.804,0.977,9.668c0.195,1.563,0.391,2.702,0.586,3.418
		c0.13,0.913,0.259,1.367,0.391,1.367c0.195,0,0.423-0.423,0.684-1.27c0.195-0.781,0.586-1.758,1.172-2.93
		c0.977-1.888,1.497-3.548,1.563-4.98l0.879-2.734c0.391-1.106,0.586-1.855,0.586-2.246c0-0.455,0.228-1.333,0.684-2.637
		l0.586-2.441l-0.098-3.125v-1.66c0-1.172,0.063-2.017,0.195-2.539c0.325-0.521,0.813-0.781,1.465-0.781
		c0.586,0,0.977,0.098,1.172,0.293s0.391,0.586,0.586,1.172c0.195,0.781,0.488,1.172,0.879,1.172
		c0.259-0.259,0.781-0.618,1.563-1.074c0.781-0.391,1.302-0.813,1.563-1.27c0.259-0.325,0.488-1.138,0.684-2.441
		c0.13-1.236,0.228-1.888,0.293-1.953c0.259-0.259,0.649-0.391,1.172-0.391C147.104,35.34,147.725,36.252,147.725,38.074z
		 M149.385,20.301c0,0.781-0.132,1.172-0.391,1.172c-0.195,0-0.456-0.195-0.781-0.586c-0.327-0.391-0.815-0.455-1.465-0.195
		c-2.476,0.717-5.925,2.637-10.352,5.762c-1.563,0.847-2.604,1.401-3.125,1.66c-1.628,0.717-2.964,1.074-4.004,1.074
		c-1.499,0-2.246-0.618-2.246-1.855c0-0.977,0.521-1.888,1.563-2.734c0.845-0.716,2.864-1.888,6.055-3.516
		c4.102-2.083,6.704-3.223,7.813-3.418c0.259-0.064,0.747-0.098,1.465-0.098c0.845,0,1.528,0.065,2.051,0.195
		C148.245,18.088,149.385,18.934,149.385,20.301z M147.529,43.934c-0.456,0.327-0.815,1.14-1.074,2.441
		c-0.913,4.167-1.758,6.706-2.539,7.617c-0.391,0.391-0.684,0.847-0.879,1.367c-0.195,0.651-0.391,1.042-0.586,1.172l-0.195,0.391
		c-0.065,0.131-0.098,0.293-0.098,0.488c-0.065,0.195-0.065,0.293,0,0.293l1.367-0.488c0.716-0.259,1.431-0.391,2.148-0.391
		c0.325,0,0.813,0.065,1.465,0.195l1.27,0.586c0.195,0.065,0.293,0.327,0.293,0.781c0,0.717-0.62,1.596-1.855,2.637
		c-1.304,1.237-2.702,2.214-4.199,2.93c-1.108,0.522-1.367,1.074-0.781,1.66c0.259,0.261,1.009,0.651,2.246,1.172
		c1.04,0.522,1.919,0.847,2.637,0.977h0.488c0.521,0,1.009-0.13,1.465-0.391c1.821-1.367,3.579-4.395,5.273-9.082
		c1.106-2.994,1.821-5.273,2.148-6.836c0.13-0.781,0.195-1.302,0.195-1.563c0-0.586-0.132-1.333-0.391-2.246
		c-0.065-0.65-0.327-1.236-0.781-1.758c-0.261-0.325-0.718-0.748-1.367-1.27c-0.391-0.325-0.913-0.618-1.563-0.879
		c-0.847-0.195-1.597-0.293-2.246-0.293C148.538,43.577,147.725,43.738,147.529,43.934z"/>
	<path fill="#FFFFFF" d="M208.15,14.441c0,0,0,0.327,0,0.977c0,1.172-0.586,2.539-1.758,4.102c-1.433,1.694-2.051,2.702-1.855,3.027
		c0.13,0.131,1.563-0.032,4.297-0.488c2.539-0.521,5.208-0.781,8.008-0.781c1.367,0,2.375,0.034,3.027,0.098
		c1.367,0.065,2.344,0.229,2.93,0.488c0.454,0.195,0.684,0.586,0.684,1.172c-0.132,0.391-1.043,0.684-2.734,0.879
		c-1.824,0.327-3.062,0.62-3.711,0.879c-0.781,0.391-1.628,0.684-2.539,0.879l-1.66,0.488l-2.051,0.586l-5.859,1.563
		c-2.344,0.586-3.809,1.042-4.395,1.367c-0.391,0.327-1.011,1.172-1.855,2.539l-2.051,3.32c-1.758,2.995-2.507,4.59-2.246,4.785
		l0.391,0.293c0.586,0.065,0.942,0.879,1.074,2.441l0.195,1.66c0.063,0.065,0.098,4.819,0.098,14.258
		c0,10.417-0.034,16.602-0.098,18.555c-0.065,4.297-0.327,6.705-0.781,7.227c-0.327,0.325-0.684,0.521-1.074,0.586
		c-0.522,0-0.913-0.131-1.172-0.391c-0.651-0.391-1.074-1.237-1.27-2.539c-0.132-0.717-0.229-5.99-0.293-15.82
		c-0.195-10.416-0.261-16.666-0.195-18.75c0-1.692-0.098-2.571-0.293-2.637c-0.195-0.064-0.327,0-0.391,0.195
		c-1.433,2.344-2.573,4.004-3.418,4.98c-0.977,1.367-1.823,2.702-2.539,4.004l-2.148,3.613l-1.758,3.223
		c-0.522,0.913-0.913,1.465-1.172,1.66c-0.065,0.065-0.229,0.098-0.488,0.098c-0.327,0-0.718-0.13-1.172-0.391
		c-0.522-0.325-0.781-0.813-0.781-1.465c0-0.586,0.228-1.302,0.684-2.148l1.855-3.418l1.563-2.93
		c0.063-0.391,0.423-0.943,1.074-1.66c0.521-0.716,0.781-1.106,0.781-1.172c0-0.13,0.293-0.618,0.879-1.465
		c0.521-0.845,0.781-1.333,0.781-1.465c0-0.13,0.161-0.455,0.488-0.977c0.391-0.391,0.781-0.977,1.172-1.758
		c0.391-0.845,0.845-1.626,1.367-2.344c0.649-0.716,0.977-1.204,0.977-1.465l1.172-2.051c0.781-1.172,1.172-1.855,1.172-2.051
		c0-0.13,0.195-0.423,0.586-0.879c0.195-0.259,0.423-0.65,0.684-1.172c0.13-0.521,0.356-0.977,0.684-1.367
		c0.454-0.65,0.521-1.106,0.195-1.367l-2.051,0.195l-3.223,0.586c-0.718,0.261-1.953,0.327-3.711,0.195
		c-0.522-0.064-1.27-0.098-2.246-0.098c-1.304,0-2.378,0.098-3.223,0.293c-0.132,0.065-0.358,0.098-0.684,0.098
		c-0.456,0-1.011-0.162-1.66-0.488c-1.367-0.455-1.89-1.041-1.563-1.758c0.391-0.586,2.114-1.236,5.176-1.953
		c2.278-0.521,3.548-0.845,3.809-0.977l1.465-0.391l1.855-0.488c4.427-1.172,7.485-1.888,9.18-2.148
		c0.716-0.13,1.204-0.325,1.465-0.586c0.586-0.391,1.855-2.31,3.809-5.762c0.911-1.563,2.148-2.864,3.711-3.906
		c1.106-0.586,1.888-0.684,2.344-0.293C207.987,14.28,208.15,14.441,208.15,14.441z M220.26,38.66c0,0.977-0.098,2.214-0.293,3.711
		c-0.066,1.237-0.066,1.921,0,2.051c0,0.065,0.161,0.098,0.488,0.098c0.52,0,0.977-0.064,1.367-0.195
		c1.821-0.455,3.027-0.684,3.613-0.684c0.454,0,0.781,0.098,0.977,0.293c0.259,0.195,0.391,0.456,0.391,0.781
		c0,0.456-0.391,0.977-1.172,1.563c-0.977,0.717-1.531,1.237-1.66,1.563c-0.195,0.261-0.75,0.815-1.66,1.66
		c-1.172,0.847-1.89,1.465-2.148,1.855c-0.262,0.327-0.488,0.944-0.684,1.855c-0.066,0.391-0.146,1.091-0.244,2.1
		c-0.098,1.01-0.146,2.036-0.146,3.076c0,1.237,0.129,2.28,0.391,3.125c0.324,1.303,0.684,2.051,1.074,2.246
		c0.324,0.195,0.715,0.293,1.172,0.293c0.781,0,1.789-0.259,3.027-0.781c0.781-0.325,1.66-0.65,2.637-0.977
		c0.586-0.195,1.27-0.488,2.051-0.879c3.384-1.431,5.957-2.148,7.715-2.148l0.977,0.098c0.781,0.065,1.563,0.391,2.344,0.977
		c0.649,0.651,0.977,1.206,0.977,1.66c0,0.261-0.195,0.554-0.586,0.879c-0.262,0.131-1.108,0.522-2.539,1.172
		c-0.977,0.391-1.855,0.815-2.637,1.27l-1.66,0.781c-0.522,0.195-1.172,0.586-1.953,1.172c-0.848,0.586-2.183,1.172-4.004,1.758
		c-1.758,0.586-3.062,0.879-3.906,0.879c-1.172,0-2.93-0.488-5.273-1.465c-0.977-0.521-1.953-1.79-2.93-3.809
		c-0.391-0.977-0.586-2.798-0.586-5.469c0-2.539-0.132-3.841-0.391-3.906c-0.327,0-1.237,0.424-2.734,1.27
		c-2.148,1.172-4.233,1.758-6.25,1.758c-1.367,0-2.051-0.391-2.051-1.172c0-0.391,0.423-1.009,1.27-1.855
		c0.911-1.041,1.724-1.79,2.441-2.246c0.845-0.65,1.479-1.138,1.904-1.465c0.423-0.325,0.698-0.552,0.83-0.684
		c1.563-1.106,2.637-1.822,3.223-2.148c1.106-0.65,1.821-1.138,2.148-1.465c0.195-0.65,0.356-1.626,0.488-2.93
		c0.391-4.688,0.879-7.486,1.465-8.398c0.324-0.521,0.684-0.781,1.074-0.781c0.454,0,0.813,0.261,1.074,0.781
		C220.128,36.448,220.26,37.358,220.26,38.66z"/>
	<path fill="#FFFFFF" d="M250.896,33.094l0.781,1.563l0.586-0.781c0.911-1.172,2.148-1.758,3.711-1.758
		c0.391,0,0.781,0.065,1.172,0.195c0.13,0.065,0.553,0.391,1.27,0.977l1.172,1.172l0.098,1.758c0,1.108-0.131,2.214-0.391,3.32
		c-0.261,1.237-0.619,2.182-1.074,2.832c-0.326,0.456-0.814,1.27-1.465,2.441c-0.651,1.172-1.27,2.116-1.855,2.832
		c-0.456,0.456-0.879,0.944-1.27,1.465c-0.261,0.391-0.684,0.717-1.27,0.977c-0.651,0.261-1.042,0.293-1.172,0.098
		c-0.131-0.064-0.456-0.781-0.977-2.148l-0.781-2.051c0-0.455-0.229-1.563-0.684-3.32c-0.847-3.384-1.4-6.641-1.66-9.766
		c-0.131-0.325-0.131-0.586,0-0.781c0-0.259,0.032-0.423,0.098-0.488l0.586-0.488c0.521-0.586,0.911-0.879,1.172-0.879
		C249.334,30.262,249.984,31.206,250.896,33.094z M256.268,37.781c0-0.521-0.195-0.781-0.586-0.781
		c-0.326,0-0.619,0.131-0.879,0.391c-0.326,0.586-0.651,2.051-0.977,4.395v0.586c0,0.586,0.13,0.879,0.391,0.879
		c0.586-0.13,1.106-1.172,1.563-3.125C256.104,38.953,256.268,38.172,256.268,37.781z M277.557,24.988
		c0.325,0.065,0.521,0.261,0.586,0.586v0.098c0,0.391-0.521,1.042-1.563,1.953c-1.172,1.172-2.182,2.637-3.027,4.395
		c-1.693,3.711-2.344,5.762-1.953,6.152l0.195,0.098c0.26,0,0.521-0.098,0.781-0.293c0.521-0.325,1.367-0.748,2.539-1.27
		c1.172-0.586,1.888-0.879,2.148-0.879c0.455,0,0.684,0.163,0.684,0.488c0,0.456-0.261,0.977-0.781,1.563l-1.27,1.563
		c-0.781,0.717-1.335,1.335-1.66,1.855c-0.065,0.391-0.977,1.465-2.734,3.223c-1.823,1.823-2.963,3.288-3.418,4.395
		c-0.847,1.628-1.596,3.613-2.246,5.957c-0.781,2.475-1.107,3.972-0.977,4.492c0.195,0.586,0.032,0.879-0.488,0.879
		c-0.586-0.13-1.01-0.455-1.27-0.977c-0.195-0.521-0.293-1.236-0.293-2.148c0-0.716,0.032-1.27,0.098-1.66
		c0.064-1.692,0.357-3.091,0.879-4.199c0.391-0.911,0.553-1.563,0.488-1.953c-0.131-0.455-0.488-0.977-1.074-1.563
		c-0.847-0.845-1.27-1.563-1.27-2.148c0-0.325,0.098-0.586,0.293-0.781c0.26-0.391,0.684-0.716,1.27-0.977
		c2.539-1.302,3.809-2.864,3.809-4.688c0-0.521-0.065-0.781-0.195-0.781l-0.391,0.195c-0.065,0.195-0.488,0.293-1.27,0.293
		c-0.651,0-1.335-0.259-2.051-0.781c-0.651-0.455-0.977-1.009-0.977-1.66c0-0.911,0.325-1.79,0.977-2.637
		c0.65-0.845,1.758-1.919,3.32-3.223c3.841-3.06,6.673-4.785,8.496-5.176C276.319,25.12,277.101,24.988,277.557,24.988z
		 M276.58,19.227c0.846,0.327,1.399,0.488,1.66,0.488c0.325,0,0.879,0.488,1.66,1.465l1.953,1.953
		c0.391,0.391,0.748,0.944,1.074,1.66c0.064,0.456,0.325,1.14,0.781,2.051c0.455,0.847,0.716,2.019,0.781,3.516
		c0.064,0.456,0.098,1.042,0.098,1.758c0,0.586-0.033,0.977-0.098,1.172c-0.065,0.327-0.424,1.596-1.074,3.809
		c-0.456,1.889-0.684,2.897-0.684,3.027c-0.065,0.651-0.358,1.563-0.879,2.734c-0.391,1.042-0.814,1.855-1.27,2.441
		c-0.391,0.391-0.619,0.781-0.684,1.172c-0.131,0.261-0.488,0.879-1.074,1.855c-0.391,0.391-0.814,0.977-1.27,1.758
		c-0.651,1.172-1.986,1.758-4.004,1.758c-1.107,0-1.889-0.13-2.344-0.391c-0.326-0.13-0.619-0.423-0.879-0.879
		c-0.261-0.455-0.358-0.781-0.293-0.977c0.13-0.13,0.325-0.195,0.586-0.195c0.26,0,0.455,0.065,0.586,0.195
		c0.13,0.195,0.325,0.293,0.586,0.293c0.325,0,0.748-0.162,1.27-0.488c0.911-0.521,1.79-1.919,2.637-4.199
		c1.041-2.864,1.855-4.883,2.441-6.055c0.391-0.911,0.618-1.692,0.684-2.344l0.293-0.781l0.195-1.074
		c0-0.325,0.032-0.521,0.098-0.586l0.488-3.027v-0.977c0-0.845-0.098-1.758-0.293-2.734c-0.586-2.148-1.303-3.418-2.148-3.809
		c-0.326-0.064-0.814-0.293-1.465-0.684c-0.456-0.325-1.237-0.455-2.344-0.391c-1.303,0.131-2.214,0.195-2.734,0.195h-2.344
		c-0.521,0-0.814,0.034-0.879,0.098c-0.131,0.131-0.293,0.195-0.488,0.195c-0.781,0-1.27-0.162-1.465-0.488
		c-0.391-0.325-0.554-0.748-0.488-1.27c0-0.65,0.228-1.106,0.684-1.367c1.106-0.911,2.539-1.431,4.297-1.563
		c1.627-0.13,2.474-0.195,2.539-0.195C273.227,18.218,274.496,18.511,276.58,19.227z M310.761,8.973l0.781,1.367
		c0.52,1.108,0.879,1.694,1.074,1.758c0.129,0.065,0.195,0.358,0.195,0.879c0,0.651-0.066,1.237-0.195,1.758
		c-0.262,1.303-0.814,2.8-1.66,4.492c-0.262,0.913-0.391,1.433-0.391,1.563c0,0.456,0.422,0.847,1.27,1.172
		c2.148,0.913,3.449,1.53,3.906,1.855c0.781,0.586,1.432,1.303,1.953,2.148c0.52,0.717,0.781,1.53,0.781,2.441
		c0,0.522-0.066,0.944-0.195,1.27c-0.131,0.327-0.195,0.554-0.195,0.684c-0.195,0.195-0.457,0.847-0.781,1.953
		c-0.781,1.889-2.441,3.679-4.98,5.371c-1.693,1.108-3.027,1.66-4.004,1.66c-0.521,0-0.945-0.162-1.27-0.488
		c-0.262-0.259-0.555-0.943-0.879-2.051c-0.391-1.041-0.717-1.563-0.977-1.563c-0.195,0-0.326,0.229-0.391,0.684
		c0,0.065-0.018,0.229-0.049,0.488c-0.033,0.261-0.049,0.651-0.049,1.172l0.098,3.613c0,2.995,0.064,4.624,0.195,4.883
		c0.195,0.261,0.195,0.651,0,1.172c-0.066,0.131-0.098,0.684-0.098,1.66c0,1.303,0.031,2.441,0.098,3.418
		c0.129,2.866,0.195,6.999,0.195,12.402c-0.131,6.577-0.262,10.84-0.391,12.793c-0.131,1.692-0.262,2.734-0.391,3.125
		c-0.262,0.586-0.424,1.172-0.488,1.758c-0.131,0.846-0.359,1.725-0.684,2.637l-0.586,1.66c0,0.13-0.195,0.586-0.586,1.367
		c-0.457,0.521-1.107,0.943-1.953,1.27c-0.457,0.064-1.271,0.391-2.442,0.977c-1.433,0.586-2.084,0.586-1.953,0
		c0-0.586,0.423-1.693,1.27-3.32c0.716-1.303,1.334-3.19,1.855-5.664c0.456-2.279,0.685-6.966,0.685-14.063
		c0-11.523-0.195-17.578-0.587-18.164c-0.065-0.064-0.098-1.138-0.098-3.223v-3.027c0-3.906,0.098-6.348,0.293-7.324
		c0.196-1.626,0.325-3.873,0.392-6.738c0.324-3.58,0.65-5.664,0.977-6.25c0.715-1.302,1.496-1.888,2.344-1.758
		c0.391,0,0.65,0.065,0.781,0.195c0.195,0.131,0.324,0.456,0.391,0.977l0.586,1.953c0.52,1.367,0.781,2.768,0.781,4.199
		l-0.098,1.465l-0.098,2.246l1.074,1.172c0.715,0.781,1.301,1.172,1.758,1.172c0.26,0,0.52-0.13,0.781-0.391
		c0.391-0.391,0.813-0.684,1.27-0.879c0.586-0.455,1.27-1.106,2.051-1.953c0.91-0.977,1.496-1.758,1.758-2.344
		c0.195-0.455,0.26-0.716,0.195-0.781c-0.131-0.13-0.717-0.391-1.758-0.781c-3.451-0.977-5.176-2.539-5.176-4.688
		c0-0.521,0.098-1.074,0.293-1.66c1.041-2.994,1.594-4.915,1.66-5.762c0-0.781-0.066-1.367-0.195-1.758
		c-0.195-0.259-0.521-0.293-0.977-0.098c-1.043,0.195-2.703,1.01-4.98,2.441l-2.051,1.172c-0.652,0.261-1.4,0.717-2.247,1.367
		c-1.303,0.977-2.702,1.53-4.199,1.66h-0.391c-1.303,0-2.148-0.391-2.539-1.172c-0.391-0.65-0.521-1.236-0.391-1.758
		c0.064-0.391,0.618-0.977,1.66-1.758C295.069,13.01,296.339,12,296.6,12c0.13,0,1.172-0.455,3.126-1.367
		c1.758-0.977,2.734-1.465,2.93-1.465s0.52-0.098,0.977-0.293c0.129-0.064,0.586-0.228,1.367-0.488
		c0.91-0.13,1.529-0.195,1.855-0.195c0.715,0,1.594,0.131,2.637,0.391C310.206,8.647,310.63,8.777,310.761,8.973z"/>
	<path fill="#FFFFFF" d="M339.108,19.617c-0.262,0.913-0.717,3.647-1.367,8.203c-0.457,2.8-0.684,4.917-0.684,6.348
		c0,0.522,0.031,0.815,0.098,0.879c0.064,0.065,0.65-0.391,1.758-1.367c2.668-2.669,5.045-4.004,7.129-4.004
		c0.391,0,0.684,0.034,0.879,0.098c0.391,0.065,0.586,0.261,0.586,0.586c0,0.131-0.391,0.749-1.172,1.855
		c-0.977,1.172-1.465,1.823-1.465,1.953c0,0.065-0.262,0.424-0.781,1.074c-0.457,0.651-0.945,1.53-1.465,2.637
		c-0.195,0.781-0.391,1.303-0.586,1.563l-0.586,0.879c-0.195,0.195-0.488,0.358-0.879,0.488l-1.074,0.293
		c-0.781,0.065-1.303,0.229-1.563,0.488c-0.195,0.195-0.391,0.62-0.586,1.27v0.391c0,0.195,0.129,1.14,0.391,2.832
		c0.26,1.433,0.586,2.604,0.977,3.516l0.293,0.781c-0.066,0.195-0.293,0.424-0.684,0.684c-0.457,0.456-0.879,0.651-1.27,0.586
		c-0.586-0.064-1.238-0.552-1.953-1.465c-0.717-0.781-1.205-1.692-1.465-2.734c-0.848-3.255-1.238-7.161-1.172-11.719l0.391-3.027
		c0.064-0.716,0.227-2.017,0.488-3.906c0.26-1.822,0.488-3.189,0.684-4.102c0.195-1.431,0.391-2.441,0.586-3.027l0.586-2.441
		c0.064-0.716,0.26-1.236,0.586-1.563c0.26-0.259,0.553-0.391,0.879-0.391c0.391,0,0.943,0.293,1.66,0.879
		C338.978,18.804,339.237,19.292,339.108,19.617z M365.573,20.008c0,0,0.455,0.327,1.367,0.977c0.977,0.651,1.66,1.237,2.051,1.758
		c0.846,1.237,1.27,3.613,1.27,7.129c0,2.604-0.293,4.785-0.879,6.543c-0.781,2.734-1.563,4.492-2.344,5.273
		c-0.391,0.391-0.879,0.717-1.465,0.977c-0.781,0.327-1.303,0.488-1.563,0.488c-0.457,0-1.107,0.522-1.953,1.563
		c-0.912,1.108-1.66,2.246-2.246,3.418l-1.758,3.223c-1.498,2.344-2.084,3.972-1.758,4.883v0.391l-0.195,2.637
		c-0.457,5.795-0.684,9.506-0.684,11.133c0,2.019,0.162,3.19,0.488,3.516c0.715,0.845,2.344,1.302,4.883,1.367
		c2.082,0,4.883-0.261,8.398-0.781c1.691-0.13,6.803-0.259,15.332-0.391h9.668c1.105,0.131,1.822,0.261,2.148,0.391
		c0.455,0.259,0.684,0.781,0.684,1.563c0.129,0.521,0.129,0.879,0,1.074l-0.879,0.586c-1.498,0.781-4.363,1.172-8.594,1.172
		c-2.801,0-4.785,0.064-5.957,0.195c-0.912,0.26-2.508,0.423-4.785,0.488c-2.605,0.13-4.461,0.325-5.566,0.586
		c-0.848,0.195-2.41,0.357-4.688,0.488c-2.279,0.13-3.451,0.195-3.516,0.195h-0.293c-0.652,0-1.27-0.033-1.855-0.098
		c-1.107-0.065-2.02-0.229-2.734-0.488c-2.148-0.586-3.68-1.237-4.59-1.953c-0.717-0.651-1.205-1.172-1.465-1.563
		c-0.391-0.651-0.652-1.206-0.781-1.66c-0.195-0.781-0.391-1.626-0.586-2.539c-0.066-1.626,0.031-3.613,0.293-5.957l0.586-3.906
		c0-0.325-0.131-0.488-0.391-0.488c-0.131,0-0.359,0.195-0.684,0.586l-0.586,0.879l-0.977,1.074
		c-0.781,1.042-1.238,1.694-1.367,1.953l-1.074,1.66c-1.238,1.758-1.889,2.8-1.953,3.125c-0.391,0.586-0.814,1.108-1.27,1.563
		c-0.586,0.586-1.01,1.206-1.27,1.855c-0.066,0.455-0.293,0.813-0.684,1.074c-0.391,0.325-0.781,0.813-1.172,1.465
		c-1.758,2.864-3.158,4.297-4.199,4.297c-0.326,0-0.652-0.195-0.977-0.586c-0.262-0.586-0.293-1.14-0.098-1.66
		c0.324-0.717,0.553-1.14,0.684-1.27l1.074-1.66c2.277-3.646,4.85-7.356,7.715-11.133c2.604-3.384,4.068-5.435,4.395-6.152
		c0.65-1.236,1.594-2.734,2.832-4.492l1.172-1.758l1.465-2.246c0.324-0.521,0.748-1.302,1.27-2.344
		c0.455-1.041,0.65-1.66,0.586-1.855h-0.098c-0.262,0-0.684,0.261-1.27,0.781c-0.717,0.522-1.434,0.977-2.148,1.367
		c-0.717,0.522-1.498,1.206-2.344,2.051c-0.717,0.847-1.434,1.53-2.148,2.051c-2.605,1.823-4.037,2.734-4.297,2.734l-0.977,0.781
		c-0.586,0.522-1.303,0.684-2.148,0.488c-2.475-0.13-3.711-1.106-3.711-2.93c0-0.455,0.227-0.813,0.684-1.074
		c0.846-0.521,1.465-0.943,1.855-1.27l1.953-1.172c0.586-0.064,1.334-0.455,2.246-1.172l1.855-1.172l3.516-2.246l1.855-1.172
		c1.301-0.781,1.984-1.204,2.051-1.27c1.691-1.172,3.906-2.31,6.641-3.418c0.586-0.195,1.203-0.293,1.855-0.293
		c0.324,0,0.813,0.065,1.465,0.195c0.129,0.065,0.26,0.034,0.391-0.098c0.195-0.195,0.391-0.455,0.586-0.781
		c1.172-2.734,1.953-5.826,2.344-9.277v-0.391c0-0.521-0.131-0.781-0.391-0.781c-0.652,0-1.465,0.879-2.441,2.637
		c-0.912,1.303-1.824,2.507-2.734,3.613c-1.303,1.563-2.148,2.377-2.539,2.441c-0.912,0.131-2.02-0.228-3.32-1.074
		c-0.781-0.586-1.172-1.236-1.172-1.953c0-0.195,0.129-0.552,0.391-1.074c0.586-0.977,2.701-2.505,6.348-4.59
		c1.367-0.781,2.57-1.172,3.613-1.172c0.977,0,1.563-0.13,1.758-0.391c0.064-0.064,0.098-0.228,0.098-0.488
		c0-0.455-0.066-0.879-0.195-1.27c-0.262-0.977-0.652-1.758-1.172-2.344c-0.391-0.65-0.619-1.172-0.684-1.563
		c-0.195-0.521-0.164-0.879,0.098-1.074c0.129-0.13,0.422-0.195,0.879-0.195C365.312,20.008,365.573,20.008,365.573,20.008z"/>
	<path fill="#FFFFFF" d="M421.253,23.914c0,0.261,0.422,0.815,1.27,1.66c0.846,0.913,1.367,1.855,1.563,2.832
		c0.064,0.327,0.098,0.749,0.098,1.27c0,0.391-0.033,0.651-0.098,0.781c-0.195,0.456-0.293,1.53-0.293,3.223
		c0,1.953-0.229,3.516-0.684,4.688c-0.521,1.367-0.945,2.214-1.27,2.539c-0.326,0.327-0.75,1.042-1.27,2.148
		c-0.912,2.019-1.855,3.256-2.832,3.711c-0.326,0.131-0.488,0.034-0.488-0.293c0-0.391,0.195-1.399,0.586-3.027
		c0.455-1.822,0.748-2.93,0.879-3.32l0.586-2.148L419.495,37l0.293-0.977c0.064-0.195,0.098-0.423,0.098-0.684
		c0.129-0.65,0.195-1.66,0.195-3.027c0-2.539-0.586-4.427-1.758-5.664c-0.586-0.781-1.4-1.172-2.441-1.172
		c-0.977,0-2.148,0.391-3.516,1.172c-0.977,0.717-1.693,1.108-2.148,1.172c-1.563,0.651-3.158,2.148-4.785,4.492l-1.563,2.148v1.953
		c0,1.953-0.262,3.093-0.781,3.418h-0.195c-0.326,0-0.652-0.162-0.977-0.488c-0.652-0.65-1.043-2.474-1.172-5.469
		c0-2.603,0.455-4.458,1.367-5.566c0.391-0.391,0.846-0.977,1.367-1.758c0.715-1.106,1.887-2.148,3.516-3.125
		c1.563-0.911,3.156-1.529,4.785-1.855c0.455-0.13,1.074-0.195,1.855-0.195c0.846,0,1.465,0.065,1.855,0.195
		C419.331,22.352,421.253,23.133,421.253,23.914z M413.733,61.902c0.65,0.131,1.105,0.293,1.367,0.488
		c0.586,0.327,0.91,0.684,0.977,1.074c0.129,0.522,0.488,1.237,1.074,2.148c0.715,0.913,1.105,2.116,1.172,3.613
		c0.064,0.456,0.098,1.206,0.098,2.246c0,0.977-0.033,1.758-0.098,2.344c-0.066,1.497-0.293,2.539-0.684,3.125
		c-0.262,0.455-0.684,0.684-1.27,0.684c-0.652,0-1.141-0.261-1.465-0.781c-0.457-0.586-0.879-1.726-1.27-3.418
		c-0.457-1.431-0.684-2.669-0.684-3.711c0-1.172-0.131-2.148-0.391-2.93c-0.195-0.911-0.293-1.626-0.293-2.148
		c0-0.391,0.064-0.845,0.195-1.367c0.26-0.521,0.391-0.845,0.391-0.977C412.983,61.968,413.276,61.838,413.733,61.902z"/>
</g>
</svg>
