<?xml version="1.0" encoding="utf-8"?>
<!-- Generator: Adobe Illustrator 16.0.0, SVG Export Plug-In . SVG Version: 6.00 Build 0)  -->
<!DOCTYPE svg PUBLIC "-//W3C//DTD SVG 1.1//EN" "http://www.w3.org/Graphics/SVG/1.1/DTD/svg11.dtd">
<svg version="1.1" id="圖層_1" xmlns="http://www.w3.org/2000/svg" xmlns:xlink="http://www.w3.org/1999/xlink" x="0px" y="0px"
	 width="606px" height="99px" viewBox="0 0 606 99" enable-background="new 0 0 606 99" xml:space="preserve">
<g>
	<path d="M31.643,58.113c0,0,0,0.391,0,1.172c0,1.108-0.586,2.148-1.758,3.125c-0.456,0.651-0.847,1.433-1.172,2.344
		c-0.391,1.108-0.913,1.792-1.563,2.051c-0.651,0.261-1.042,0.522-1.172,0.781c-0.456,0.586-1.303,1.172-2.539,1.758
		c-0.781,0.327-2.148,0.651-4.102,0.977l-2.051,0.195c-0.195,0-0.815-0.064-1.855-0.195c-1.108-0.391-2.019-1.172-2.734-2.344
		c-0.391-0.716-0.522-1.79-0.391-3.223c0-1.497,0.13-2.474,0.391-2.93c0.521-0.716,0.781-1.204,0.781-1.465
		c0-0.325-0.261-0.586-0.781-0.781c-0.586-0.13-1.433-0.879-2.539-2.246c-1.758-1.626-2.8-2.734-3.125-3.32
		c-0.781-1.302-1.172-2.051-1.172-2.246c0-0.064-0.261-0.423-0.781-1.074c-0.586-1.041-0.913-2.017-0.977-2.93v-2.148
		c0.521-0.325,1.041-0.488,1.563-0.488c0.65,0,1.367,0.488,2.148,1.465l1.953,1.465c0.13,0.065,0.586,0.424,1.367,1.074l1.953,1.953
		c1.953,1.758,3.06,2.67,3.32,2.734c0.13,0.131,0.325-0.064,0.586-0.586c4.166-4.751,6.641-7.227,7.422-7.422l0.586-0.098
		c0.781,0,1.172,0.358,1.172,1.074c0,0.195,0.13,0.522,0.391,0.977c0.781,0.586,1.497,1.792,2.148,3.613
		c0.391,1.433,0.586,2.866,0.586,4.297v0.781c0.13-0.325,0.259-0.488,0.391-0.488c0.325,0,0.65,0.261,0.977,0.781
		c0.325,0.065,0.521,0.261,0.586,0.586C31.511,57.854,31.643,58.113,31.643,58.113z M23.732,63.387l-1.074-0.293
		c-0.195,0-0.327-0.032-0.391-0.098c-0.327,0-0.847-0.13-1.563-0.391l-1.172-0.195c-0.261,0-0.522,0.327-0.781,0.977l-1.172,2.539
		l-0.586,1.172l0.391,0.293c0.259,0.195,0.716,0.327,1.367,0.391h0.586c0.521,0,0.911-0.098,1.172-0.293
		c1.563-0.781,2.603-1.822,3.125-3.125l0.586-0.781L23.732,63.387z M24.025,52.742c0-0.391-0.065-0.781-0.195-1.172l-0.195-0.195
		c-0.195,0-0.327,0.163-0.391,0.488l-0.391,0.879l-0.195,0.684c-0.131,0.261-0.391,0.944-0.781,2.051
		c-0.261,0.522-0.391,0.913-0.391,1.172c0,0.131,0.455,0.358,1.367,0.684c0.65,0.261,1.172,0.261,1.563,0v-1.855L24.025,52.742z
		 M81.838,64.07c-0.261,0.065-0.586,0.065-0.977,0l-0.391-0.195v-0.098c-0.131,0-0.391-0.195-0.781-0.586
		c-0.131-0.13-0.195-0.228-0.195-0.293l-0.391-0.195l-0.391-0.195V62.41h-0.195c-1.303-0.716-2.28-1.302-2.93-1.758
		c-0.261-0.259-0.781-0.586-1.563-0.977l-0.977-0.488l-0.391-0.195c-0.651-0.391-1.694-0.65-3.125-0.781h-0.977
		c-0.781,0-1.237,0.065-1.367,0.195c-0.131,0.131-0.195,0.488-0.195,1.074v2.148c0.13,0.651,0.195,1.335,0.195,2.051
		c0,1.237-0.131,2.214-0.391,2.93c-0.717,2.28-1.758,4.558-3.125,6.836c-1.108,1.694-2.019,2.897-2.734,3.613
		c-0.847,0.327-1.758,0.488-2.734,0.488c-1.758,0-3.386-0.552-4.883-1.66c-0.847-0.716-1.694-2.376-2.539-4.98
		c-0.781-1.888-1.172-4.068-1.172-6.543c0-1.236,0.586-2.767,1.758-4.59c1.302-1.692,3.32-3.223,6.055-4.59l1.953-0.977
		l-0.781-0.977c-0.847-0.716-1.335-1.074-1.465-1.074c-0.195,0-0.424-0.13-0.684-0.391c-0.261-0.195-0.456-0.455-0.586-0.781
		l-1.953-2.051c-0.651-0.65-0.977-1.138-0.977-1.465l-0.195-1.27c-0.131-0.521,0.13-1.563,0.781-3.125
		c1.822-3.711,2.93-7.291,3.32-10.742l0.195-0.781c0-1.106-0.391-1.985-1.172-2.637c-0.522-0.521-1.628,0-3.32,1.563
		c-0.717,0.586-1.628,1.465-2.734,2.637c-1.042,1.237-1.563,1.953-1.563,2.148c0,0.913-0.651,1.758-1.953,2.539
		c-0.586,0.065-1.042,0.327-1.367,0.781c-0.522,0.327-0.977,0.488-1.367,0.488c-0.781,0-1.433-0.391-1.953-1.172
		c-0.261-0.455-0.391-1.041-0.391-1.758c0-0.716,0.13-1.367,0.391-1.953c0.65-1.953,1.888-3.97,3.711-6.055
		c1.692-1.953,3.58-3.384,5.664-4.297c0.911-0.391,1.758-0.586,2.539-0.586c1.692,0,3.189,0.456,4.492,1.367
		c1.302,1.108,2.148,2.214,2.539,3.32c0.325,0.847,0.521,2.214,0.586,4.102v2.441c-0.065,0.586-0.327,1.206-0.781,1.855
		c-0.131,0.131-0.195,0.229-0.195,0.293l-0.586,1.074c0,0.391-0.391,1.563-1.172,3.516c-0.717,2.019-1.108,3.223-1.172,3.613
		l-0.098,0.391c0,0.195,0.098,0.456,0.293,0.781c0,0.065,0.391,0.358,1.172,0.879l1.953,1.66l1.367,0.879
		c0.391,0.131,0.65,0.456,0.781,0.977l0.977,1.465l0.781,0.684l2.93,0.195c3.06,0.131,5.142,0.586,6.25,1.367l0.781,0.586
		c0.325,0,1.041,0.358,2.148,1.074l1.563,1.465l0.977,0.781c2.212,2.604,3.32,4.297,3.32,5.078
		C82.424,63.616,82.229,63.94,81.838,64.07z M62.502,59.578c0-0.195-0.131-0.259-0.391-0.195l-2.93,1.172
		c-2.084,0.913-3.32,1.823-3.711,2.734c-0.781,0.913-1.303,1.401-1.563,1.465c-0.391,0.131-0.651,0.391-0.781,0.781v0.391
		l0.195,1.465c0.455,1.433,0.845,2.441,1.172,3.027c0.391,1.042,0.781,1.66,1.172,1.855c0.391,0.327,1.106,0.522,2.148,0.586h0.391
		c0.586,0,1.106-0.13,1.563-0.391c0.325-0.13,0.716-0.684,1.172-1.66l0.391-0.586c1.041-2.148,1.563-4.427,1.563-6.836
		C62.893,61.824,62.761,60.555,62.502,59.578z"/>
	<path d="M111.838,35.262v0.391c0,0.261-0.098,0.488-0.293,0.684c-0.327,0.261-1.01,0.424-2.051,0.488
		c-1.367,0.195-2.312,0.391-2.832,0.586c-0.651,0.261-1.108,0.358-1.367,0.293h-0.293l-0.781,0.195l-0.684,0.098l-1.27-0.195
		c-0.847-0.325-1.335-0.488-1.465-0.488c-0.065,0-0.651-0.162-1.758-0.488c-0.977-0.455-1.596-1.074-1.855-1.855
		c-0.065-0.064-0.098-0.293-0.098-0.684c0-0.521,0.228-1.009,0.684-1.465l0.586-0.684h3.223c2.278,0,4.134,0.195,5.566,0.586
		C109.885,33.374,111.447,34.221,111.838,35.262z M111.252,48.348l1.465,0.781l0.684,0.488c0,0.195,0.521,1.14,1.563,2.832
		c1.431,2.409,2.148,4.428,2.148,6.055c0,0.522,0.13,0.913,0.391,1.172c0.195,0.261,2.441-1.626,6.738-5.664
		c1.041-0.977,1.724-1.302,2.051-0.977l0.098,0.098c0,0.195-0.293,0.586-0.879,1.172l-4.199,4.883
		c-1.563,1.823-2.344,2.897-2.344,3.223c0,0.065-0.358,0.554-1.074,1.465c-0.717,0.977-1.108,1.694-1.172,2.148
		c-0.131,0.456-0.554,1.14-1.27,2.051c-0.586,0.847-1.303,1.53-2.148,2.051c-1.628,1.108-2.67,2.148-3.125,3.125
		c-0.327,0.717-0.879,1.335-1.66,1.855c-0.781,0.586-1.499,0.879-2.148,0.879c-0.456,0-0.944-0.293-1.465-0.879
		c-0.456-0.455-0.684-0.911-0.684-1.367c0-0.455,0.13-0.911,0.391-1.367c0.259-0.521,0.552-0.845,0.879-0.977l3.32-3.027
		c1.497-1.431,2.441-2.571,2.832-3.418c0.65-1.302,0.977-2.896,0.977-4.785c0-3.06-0.586-5.533-1.758-7.422
		c-0.522-0.781-1.042-1.172-1.563-1.172c-0.456,0-0.781,0.131-0.977,0.391c-0.456,0.261-0.977,1.074-1.563,2.441
		c-0.781,1.889-1.237,3.061-1.367,3.516l-0.293,1.953c0,0.131,0.032,0.195,0.098,0.195c0.13,0,0.618-0.455,1.465-1.367
		c2.017-2.212,3.58-3.06,4.688-2.539c0.391,0.065,0.586,0.456,0.586,1.172c0,0.717-0.131,1.206-0.391,1.465
		c-0.327,0.327-0.62,0.847-0.879,1.563c-0.327,0.651-0.586,1.074-0.781,1.27l-0.879,1.367c-0.913,1.499-2.051,2.573-3.418,3.223
		l-0.586,0.488l-0.195,1.66c0,0.717-0.034,1.14-0.098,1.27c-0.065,0.261-0.131,0.424-0.195,0.488
		c-0.065,0.065-0.229,0.098-0.488,0.098h-0.195c-0.327,0-0.717-0.13-1.172-0.391c-0.456-0.259-0.977-0.977-1.563-2.148
		c-0.717-1.106-1.206-2.246-1.465-3.418c-0.977-3.516-1.53-6.216-1.66-8.105l-0.098-2.148c0-0.195,0.162-0.455,0.488-0.781
		c0.325-0.391,0.586-0.586,0.781-0.586c0.064,0,0.455,0.261,1.172,0.781c0.716,0.456,1.106,0.847,1.172,1.172
		c0.259,0.456,0.455,0.684,0.586,0.684c0.13,0,0.293-0.293,0.488-0.879c0.13-0.586,0.455-1.367,0.977-2.344
		c0.781-1.236,1.333-2.017,1.66-2.344c0.845-0.845,1.497-1.367,1.953-1.563c0.65-0.455,1.172-0.684,1.563-0.684l1.074,0.195
		C110.632,47.991,111.121,48.218,111.252,48.348z M143.283,27.547c0.845,0.391,1.919,1.335,3.223,2.832
		c1.106,1.499,1.724,2.409,1.855,2.734c0.13,0.456,0.943,1.53,2.441,3.223c1.106,1.172,2.278,3.159,3.516,5.957l1.172,2.539v3.711
		c0,2.475-0.195,4.265-0.586,5.371c-0.391,1.042-0.684,1.726-0.879,2.051c-0.261,0.195-0.586,0.781-0.977,1.758
		c-0.456,0.847-0.684,1.465-0.684,1.855c0,0.131,0.195,0.586,0.586,1.367c0.325,0.717,0.521,1.596,0.586,2.637
		c0,0.327,0.064,1.01,0.195,2.051l0.195,0.879c0,0.717-0.131,1.303-0.391,1.758c-0.195,0.522-0.424,0.815-0.684,0.879
		c-0.261,0.261-0.586,0.391-0.977,0.391c-0.456,0-0.717-0.13-0.781-0.391c-0.195-0.195-0.327-0.684-0.391-1.465
		c-0.065-0.977-0.293-1.66-0.684-2.051c-0.327-0.259-0.586-0.391-0.781-0.391c-0.261,0-0.554,0.261-0.879,0.781
		c-0.651,1.172-1.465,2.246-2.441,3.223c-0.586,0.586-0.944,1.14-1.074,1.66c-0.261,0.847-1.01,1.563-2.246,2.148
		c-1.237,0.651-2.214,0.847-2.93,0.586c-0.586-0.391-1.401-1.399-2.441-3.027c-0.913-1.692-1.53-3.353-1.855-4.98l-0.195-1.66
		c0-0.586,0.098-0.879,0.293-0.879s0.943,1.335,2.246,4.004c0.521,1.172,0.943,1.823,1.27,1.953l0.586,0.195
		c0.455,0,1.009-0.423,1.66-1.27l1.66-1.855c0.65-0.781,1.138-1.529,1.465-2.246l1.172-1.855c0.325-0.521,0.488-0.977,0.488-1.367
		c-0.065-0.325-0.749-1.041-2.051-2.148c-0.977-0.845-2.019-1.563-3.125-2.148c-0.261-0.13-1.108-0.781-2.539-1.953
		c-1.237-1.172-2.051-1.758-2.441-1.758h-0.293c-0.327,0-0.717,0.163-1.172,0.488c-0.781,0.717-1.27,0.749-1.465,0.098
		c-0.261-0.716-0.391-1.27-0.391-1.66c0-0.65,0.195-1.302,0.586-1.953l0.586-0.879c0.13-0.13,0.488-0.162,1.074-0.098
		c0.845,0.065,2.701,0.749,5.566,2.051c2.864,1.303,5.208,2.734,7.031,4.297c0.65,0.651,1.106,0.977,1.367,0.977
		c0.064,0,0.325-0.586,0.781-1.758c0.455-0.977,0.716-1.758,0.781-2.344l0.488-1.758c0.325-0.521,0.521-1.497,0.586-2.93v-0.684
		c0-0.977-0.163-1.888-0.488-2.734c-0.195-0.977-0.62-1.953-1.27-2.93c-0.651-1.041-1.206-1.758-1.66-2.148
		c-0.131-0.13-0.327-0.455-0.586-0.977l-1.953-2.539c-1.628-2.017-2.604-3.45-2.93-4.297c-0.327-0.716-0.684-1.138-1.074-1.27
		c-0.131-0.064-0.391-0.098-0.781-0.098c-0.717,0-1.499,0.261-2.344,0.781c-0.586,0.131-0.913,0.163-0.977,0.098
		c-0.327,0-0.488-0.162-0.488-0.488c0-0.195,0.13-0.423,0.391-0.684l0.879-0.977c0.259-0.259,0.455-0.423,0.586-0.488l0.488-0.293
		c0.65-0.455,1.27-0.684,1.855-0.684C141.818,26.831,142.566,27.092,143.283,27.547z"/>
	<path d="M184.529,45.906c0.716,0.717,1.041,1.367,0.977,1.953l-1.074,1.953c-0.781,1.367-1.53,2.475-2.246,3.32
		c-0.651,1.237-1.367,2.344-2.148,3.32l-1.367,1.953c-1.563,2.214-2.8,3.32-3.711,3.32c-0.456,0-0.717-0.13-0.781-0.391
		l-0.098-0.391l0.098-0.781c0.13-0.781,0.65-2.148,1.563-4.102c2.734-6.25,4.849-9.766,6.348-10.547
		c0.521-0.391,0.879-0.586,1.074-0.586L184.529,45.906z"/>
	<path d="M253.979,37.02c0,0-0.327,0.327-0.977,0.977c-0.651,0.651-1.53,1.237-2.637,1.758c-1.172,0.522-1.921,0.749-2.246,0.684
		c-0.261,0-0.456-0.032-0.586-0.098l-0.293-0.195c0-0.325,0.488-0.716,1.465-1.172c1.692-0.977,2.376-1.724,2.051-2.246
		c-0.131-0.13-0.391-0.195-0.781-0.195c-0.651,0-1.66,0.195-3.027,0.586c-3.581,0.847-7.585,2.084-12.012,3.711
		c-0.391,0.261-1.303,0.586-2.734,0.977c-0.977,0.261-1.499,0.522-1.563,0.781v0.195l0.391,1.758
		c0.455,1.758,0.65,4.233,0.586,7.422c-0.065,0.651-0.098,1.855-0.098,3.613c0,2.084,0.162,3.19,0.488,3.32
		c0.259,0,0.845-0.357,1.758-1.074c2.798-2.474,5.469-4.395,8.008-5.762c4.427-2.474,8.072-3.711,10.938-3.711
		c1.236,0,2.278,0.163,3.125,0.488c0.716,0.391,1.302,1.074,1.758,2.051c0.391,1.042,0.586,2.409,0.586,4.102
		c0,2.019-0.391,4.004-1.172,5.957c-0.391,1.042-0.586,1.792-0.586,2.246c0,0.391,0.553,0.944,1.66,1.66l2.637,1.563
		c1.692,0.847,2.767,1.499,3.223,1.953c0.26,0.261,0.488,0.424,0.684,0.488l0.586,0.293c1.497,0.847,3.58,2.409,6.25,4.688
		c1.692,1.499,2.571,2.246,2.637,2.246c0.455,0,0.684,0.261,0.684,0.781l-0.195,1.074c-0.131,0.977-0.261,1.499-0.391,1.563
		c-0.391,0.13-0.847,0.195-1.367,0.195c-0.977,0-2.409-0.781-4.297-2.344c-2.084-1.497-4.948-3.45-8.594-5.859
		c-0.912-0.65-1.433-1.041-1.563-1.172c-0.131-0.259-0.456-0.521-0.977-0.781l-1.66-1.172c-0.651-0.65-1.27-0.911-1.855-0.781
		c-0.522,0.261-1.433,1.042-2.734,2.344l-1.66,1.66l-1.074,0.781l-1.758,0.781c-0.977,0.456-1.953,0.684-2.93,0.684
		c-0.781,0-1.303-0.195-1.563-0.586c-0.717-0.977-0.847-1.595-0.391-1.855c0.259,0,0.521,0.131,0.781,0.391
		c0.781,0.586,1.953,0.098,3.516-1.465c0.586-0.586,0.977-1.041,1.172-1.367L248.705,67l1.27-1.66l0.488-0.879
		c0-0.064-0.424-0.391-1.27-0.977c-1.172-0.716-2.051-1.563-2.637-2.539c-0.717-1.106-1.074-1.919-1.074-2.441
		c0-0.325,0.064-0.552,0.195-0.684c0.13-0.13,0.455-0.195,0.977-0.195c0.845,0,1.985,0.62,3.418,1.855
		c0.65,0.651,1.27,0.977,1.855,0.977c0.325,0,0.586-0.13,0.781-0.391c0.586-1.041,0.977-2.637,1.172-4.785
		c0.064-0.325,0.098-0.911,0.098-1.758c0-1.106-0.163-1.758-0.488-1.953c-0.131-0.13-0.358-0.195-0.684-0.195
		c-0.327,0-1.074,0.163-2.246,0.488c-1.628,0.456-3.386,1.237-5.273,2.344l-3.516,1.855c-2.67,1.499-4.785,2.93-6.348,4.297
		c-1.889,1.563-3.125,2.897-3.711,4.004c-0.261,0.522-0.391,3.223-0.391,8.105v4.883c0,7.617-0.195,11.914-0.586,12.891
		c-0.195,0.586-0.293,1.041-0.293,1.367c0,0.195-0.163,0.684-0.488,1.465c-0.522,1.041-1.792,1.595-3.809,1.66h-0.488
		c-0.847,0-1.465-0.195-1.855-0.586c-0.456-0.456-0.847-0.684-1.172-0.684c-0.195,0-0.586-0.293-1.172-0.879
		s-0.977-1.108-1.172-1.563l-0.293-1.27c-0.065-0.195-0.098-0.586-0.098-1.172c0-0.327,0.064-0.488,0.195-0.488
		c0.064,0,0.325,0.391,0.781,1.172c0.845,1.172,1.724,1.888,2.637,2.148l0.488,0.098c0.781-0.065,1.27-0.488,1.465-1.27
		c0.195-0.261,0.423-1.499,0.684-3.711l0.195-3.125l-0.195-1.367c-0.065-0.327-0.098-1.01-0.098-2.051l-0.098-1.953l-0.098-2.637
		c0-1.758-0.034-2.669-0.098-2.734c-0.131-0.13-0.229-0.195-0.293-0.195c-0.327,0-0.781,0.456-1.367,1.367
		c-0.586,0.977-1.108,1.726-1.563,2.246c-0.456,0.456-0.879,1.237-1.27,2.344c-0.456,1.042-0.847,1.758-1.172,2.148
		c-0.391,0.521-0.586,0.845-0.586,0.977l-1.074,2.148c-0.781,1.172-1.367,1.953-1.758,2.344c-0.847,1.106-1.823,1.497-2.93,1.172
		c-0.261-0.065-0.554-0.327-0.879-0.781c-0.391-0.456-0.586-0.879-0.586-1.27s0.748-1.53,2.246-3.418l1.758-2.441
		c0.781-1.367,1.465-2.376,2.051-3.027l1.563-2.246c0.195-0.521,0.748-1.236,1.66-2.148c1.758-2.017,2.539-3.125,2.344-3.32
		c-0.195-0.064-0.977-0.162-2.344-0.293h-1.074c-0.651,0-1.01,0.034-1.074,0.098c-0.131,0.131-0.131,0.261,0,0.391l0.391,0.195
		c0.064,0.065,0.293,0.098,0.684,0.098c0.325-0.13,0.521-0.13,0.586,0c0.064,0.065,0.098,0.261,0.098,0.586
		c0,0.456-0.195,0.847-0.586,1.172c-0.456,0.391-0.944,0.586-1.465,0.586c-0.327,0-0.749-0.162-1.27-0.488
		c-1.042-0.521-1.889-1.595-2.539-3.223c-0.261-0.586-0.717-1.27-1.367-2.051c-0.522-0.521-0.781-0.911-0.781-1.172l0.488-1.367
		c0.259-0.716,0.391-1.399,0.391-2.051c0-1.822,0.032-2.93,0.098-3.32l0.488-2.832c0.13-1.626,0.521-3.548,1.172-5.762
		c0.13-0.716,0.13-1.172,0-1.367c-0.261-0.391-1.465-0.228-3.613,0.488l-3.32,0.684c-0.977,0.065-1.758,0.229-2.344,0.488
		c-2.409,0.651-4.004,0.977-4.785,0.977c-0.717,0-1.286-0.098-1.709-0.293c-0.424-0.195-0.635-0.455-0.635-0.781
		c0-0.325,0.195-0.618,0.586-0.879l1.758-1.074c0.259-0.13,0.635-0.276,1.123-0.439c0.488-0.162,1.123-0.439,1.904-0.83
		c0.716-0.391,1.465-0.65,2.246-0.781l1.27-0.488c0.455-0.195,1.106-0.423,1.953-0.684c1.106-0.325,1.724-0.586,1.855-0.781
		c0.13-0.13,0.325-0.195,0.586-0.195c0.195,0,0.716-0.195,1.563-0.586c0.716-0.455,1.465-0.716,2.246-0.781
		c1.236-0.325,2.212-0.65,2.93-0.977c1.106-0.455,1.79-0.684,2.051-0.684c0.195,0,0.716-0.195,1.563-0.586
		c0.977-0.521,5.044-1.855,12.207-4.004c4.166-1.236,7.649-2.017,10.449-2.344c0.259-0.064,0.845-0.098,1.758-0.098
		c1.302,0,2.539,0.195,3.711,0.586c1.431,0.456,2.31,1.303,2.637,2.539l0.195,0.195C253.979,36.824,253.979,37.02,253.979,37.02z
		 M219.018,62.41c0.521,0,1.204,0.229,2.051,0.684c0.845,0.456,1.367,0.684,1.563,0.684c0.325,0,0.716,0.195,1.172,0.586
		c0.586,0.391,1.009,0.586,1.27,0.586c0.391,0,0.65-0.259,0.781-0.781c0.13-0.391,0.13-0.781,0-1.172
		c-0.195-0.391-0.195-0.813,0-1.27c0.064-0.195,0.098-0.977,0.098-2.344c0-1.172-0.098-1.855-0.293-2.051
		c-0.131-0.195-0.358-0.228-0.684-0.098h-0.195c-0.261,0-0.684-0.13-1.27-0.391c-0.651-0.195-1.27-0.293-1.855-0.293
		c-0.717,0-1.206-0.13-1.465-0.391c-0.781-0.521-1.335-0.521-1.66,0c-0.391,0.717-0.62,2.214-0.684,4.492
		C217.846,61.824,218.236,62.41,219.018,62.41z M222.631,45.125c-0.456,0.131-0.913,0.424-1.367,0.879
		c-0.327,0.327-0.749,1.108-1.27,2.344c-0.522,1.433-0.781,2.246-0.781,2.441c0,0.391,1.041,0.847,3.125,1.367
		c1.367,0.391,2.344,0.749,2.93,1.074c0.391,0.327,0.618,0.456,0.684,0.391c0.13-0.13,0.195-1.724,0.195-4.785
		c0-3.189-0.163-4.849-0.488-4.98c-0.131,0-0.554,0.195-1.27,0.586L222.631,45.125z M240.99,6.063
		c1.367,1.889,2.051,4.135,2.051,6.738c0,2.539-0.229,4.233-0.684,5.078l-0.488,1.953c-0.261,3.061-1.66,5.209-4.199,6.445
		c-0.781,0.391-1.465,0.586-2.051,0.586c-0.456,0-0.847-0.162-1.172-0.488c-0.261-0.259-0.554-0.391-0.879-0.391
		c-0.261,0-0.522,0.131-0.781,0.391c-0.261,0.261-0.358,0.944-0.293,2.051v1.66l-0.781,0.098h-0.293
		c-0.456,0-0.913-0.228-1.367-0.684c-0.847-0.911-1.499-2.376-1.953-4.395c-0.391-1.626-0.717-2.571-0.977-2.832
		c-0.195-0.521-0.391-1.529-0.586-3.027l-0.488-3.613c-0.065-0.325-0.098-1.758-0.098-4.297c0-2.148,0.098-3.548,0.293-4.199
		c0.13-0.65,0.455-1.106,0.977-1.367c0.391-0.195,0.845-0.228,1.367-0.098c0.455,0.065,0.879,0.358,1.27,0.879
		c0.391,0.586,0.521,1.042,0.391,1.367l-0.098,0.586c0,0.327,0.098,0.781,0.293,1.367c0.195,0.781,0.293,1.465,0.293,2.051
		c0.195,0.456,0.391,0.717,0.586,0.781c0.13-0.13,0.259-0.684,0.391-1.66c0.13-1.172,0.391-2.246,0.781-3.223
		c0.325-1.041,0.716-1.888,1.172-2.539c0.455-0.586,0.845-0.911,1.172-0.977c0.65-0.13,1.302-0.195,1.953-0.195
		C238.679,4.109,240.078,4.761,240.99,6.063z M234.643,17.977c-1.172,0-1.823,0.456-1.953,1.367c-0.065,0.522,0,0.847,0.195,0.977
		l0.391,0.098c0.259,0,0.586-0.098,0.977-0.293c1.106-0.195,1.888-0.325,2.344-0.391c1.041,0,1.66-0.195,1.855-0.586
		c0.064-0.259,0.098-0.586,0.098-0.977s-0.131-0.716-0.391-0.977l-1.367,0.293C236.205,17.749,235.488,17.913,234.643,17.977z
		 M233.959,10.457c-0.717,1.889-0.815,2.832-0.293,2.832c0.391,0,0.845-0.13,1.367-0.391c0.716-0.195,1.431-0.293,2.148-0.293
		c0.716,0,1.172-0.13,1.367-0.391c0.13-0.13,0.195-0.423,0.195-0.879c0-0.781-0.229-1.66-0.684-2.637
		c-0.586-0.977-1.27-1.302-2.051-0.977C235.097,8.049,234.414,8.96,233.959,10.457z M235.326,25.105
		c0.325-0.064,0.748-0.488,1.27-1.27c0.521-0.716,0.716-1.106,0.586-1.172c-0.065-0.259-0.358-0.228-0.879,0.098
		c-1.108,0.717-1.596,1.433-1.465,2.148C234.902,25.171,235.065,25.237,235.326,25.105z"/>
	<path d="M318.807,19.441c0,0,0.162,0.034,0.488,0.098c1.563,0.131,2.571,0.293,3.027,0.488c1.563,0.522,2.962,1.206,4.199,2.051
		c1.236,0.847,1.855,1.628,1.855,2.344c0,0.586-0.098,0.944-0.293,1.074l-0.195,0.098c-0.195,0-0.424-0.228-0.684-0.684
		c-0.651-0.977-1.498-1.595-2.539-1.855c-0.586-0.195-1.303-0.293-2.148-0.293c-1.498,0-3.256,0.293-5.273,0.879l-5.176,1.27
		l-4.199,1.172c-0.195,0.065-0.293,0.391-0.293,0.977c0,0.522,0.13,1.66,0.391,3.418c0.26,0.847,0.325,1.53,0.195,2.051
		c-0.131,0.522-0.195,1.074-0.195,1.66v0.586c0,0.522,0.064,0.847,0.195,0.977c0.13,0.195,0.943,0.586,2.441,1.172
		c1.563,0.456,2.539,0.944,2.93,1.465l1.172,1.465c0.781,0.847,1.172,2.148,1.172,3.906c0,1.694-0.391,2.995-1.172,3.906
		c-0.391,0.391-0.781,0.944-1.172,1.66l-2.637,2.93c-0.391,0.456-0.912,1.108-1.563,1.953c-0.261,0.456-0.424,1.01-0.488,1.66
		l-0.098,1.563l0.098,2.441c0,1.889,0.098,3.093,0.293,3.613c0.13,0.522,0.488,0.847,1.074,0.977l1.563,0.391
		c0.391,0.261,0.879,0.554,1.465,0.879c1.172,0.522,2.018,1.465,2.539,2.832c0.13,0.391,0.195,0.913,0.195,1.563
		c0,1.108-0.326,2.28-0.977,3.516c-0.261,0.717-0.814,1.499-1.66,2.344l-2.93,2.93c-0.391,0.391-1.596,1.302-3.613,2.734
		c-0.326,0.325-0.488,0.521-0.488,0.586c0,0.259,0.423,0.423,1.27,0.488c0.586,0,0.977-0.034,1.172-0.098
		c2.864-0.195,6.705-1.108,11.523-2.734c1.432-0.455,2.669-0.716,3.711-0.781l2.93-0.488c1.432-0.325,2.701-0.488,3.809-0.488
		c1.367,0,3.255,0.261,5.664,0.781c0.586,0.195,1.236,0.586,1.953,1.172c0.716,0.521,1.074,0.943,1.074,1.27
		c0,0.325-0.131,0.521-0.391,0.586c-0.521,0.13-1.205,0.195-2.051,0.195c-1.563,0.064-3.386,0.325-5.469,0.781
		c-2.279,0.391-3.906,0.781-4.883,1.172c-0.717,0.325-1.303,0.521-1.758,0.586l-2.637,0.684c-1.303,0.391-2.084,0.552-2.344,0.488
		h-0.195c-0.131,0-0.749,0.162-1.855,0.488c-2.539,0.845-4.265,1.27-5.176,1.27c-1.628,0-2.702,0.032-3.223,0.098h-0.781
		c-0.847,0-1.498-0.098-1.953-0.293c-0.977-0.327-1.791-0.488-2.441-0.488c-0.912,0-1.758-0.195-2.539-0.586
		c-1.433-0.651-2.116-1.563-2.051-2.734c0.26-1.433,0.977-2.507,2.148-3.223c0.65-0.456,1.041-0.815,1.172-1.074v-0.195
		c0-0.13-0.163-0.586-0.488-1.367c-0.521-1.172-0.651-1.79-0.391-1.855c0.325,0.065,0.684,0.293,1.074,0.684
		c0.325,0.327,0.586,0.488,0.781,0.488s0.325-0.228,0.391-0.684v-2.344c-0.131-1.953-0.326-3.125-0.586-3.516
		c-0.065-0.064-0.195-0.098-0.391-0.098c-0.456,0-0.977,0.293-1.563,0.879c-0.717,0.586-1.303,0.847-1.758,0.781l-0.488-0.098
		c-0.261,0-0.586,0.098-0.977,0.293l-1.27,0.195c-0.391,0-0.847-0.098-1.367-0.293c-1.107-0.716-1.66-1.595-1.66-2.637
		c0-0.65,0.391-1.204,1.172-1.66c0.65-0.391,2.181-1.009,4.59-1.855c1.367-0.455,2.295-0.765,2.783-0.928
		c0.488-0.162,0.765-0.276,0.83-0.342c0.13-0.13,0.228-1.302,0.293-3.516v-1.563c0-0.977-0.065-1.724-0.195-2.246
		c-0.065-0.259-0.554-0.391-1.465-0.391c-0.847,0-1.433-0.162-1.758-0.488c-0.261-0.259-0.391-0.911-0.391-1.953
		c0-1.236,0.716-2.962,2.148-5.176c0.846-1.236,1.27-2.278,1.27-3.125c0-1.888-0.195-3.06-0.586-3.516
		c-0.195-0.195-0.424-0.259-0.684-0.195c-0.586,0.261-1.433,1.921-2.539,4.98c-1.172,3.061-1.855,5.437-2.051,7.129
		c-0.065,0.847-0.261,1.563-0.586,2.148c-0.391,0.586-0.749,0.879-1.074,0.879c-1.107,0-1.953-1.236-2.539-3.711
		c-0.261-0.781-0.391-3.125-0.391-7.031c0-3.06-0.065-5.306-0.195-6.738l-0.195-1.27c0-0.521,0.13-0.943,0.391-1.27
		c0.325-0.325,0.846-0.488,1.563-0.488c0.65,0,1.139,0.261,1.465,0.781c0.325,0.781,0.488,2.702,0.488,5.762
		c0,3.386,0.13,5.078,0.391,5.078c0.13,0,0.423-0.716,0.879-2.148c1.236-3.841,2.767-6.771,4.59-8.789
		c0.325-0.325,0.521-0.716,0.586-1.172l-0.098-4.98l-0.195-2.246l-0.195-1.172c-0.065-0.259-0.195-0.357-0.391-0.293l-0.781,0.195
		c-0.781,0.327-2.182,0.815-4.199,1.465c-2.084,0.781-3.256,1.27-3.516,1.465l-1.66,0.684l-1.953,0.781
		c-0.456,0.195-1.107,0.424-1.953,0.684c-0.391,0.131-1.4,0.391-3.027,0.781l-1.953,0.293c-0.521,0-1.433,0.195-2.734,0.586
		c-1.237,0.391-2.279,0.586-3.125,0.586c-0.781,0-1.303-0.13-1.563-0.391c-0.391-0.391-0.586-0.781-0.586-1.172
		c0-0.65,0.325-1.302,0.977-1.953c0.65-0.65,3.841-1.919,9.57-3.809l2.148-0.781c1.041-0.325,1.79-0.618,2.246-0.879
		c0.716-0.391,1.725-0.748,3.027-1.074l4.492-1.66c3.125-1.041,6.38-1.919,9.766-2.637l2.246-0.586
		c0.586-0.259,2.832-0.618,6.738-1.074c0.13-0.064,0.488-0.098,1.074-0.098C318.351,19.441,318.807,19.441,318.807,19.441z
		 M304.354,12.117c0.391,0,0.813,0.195,1.27,0.586c0.716,0.586,1.236,0.944,1.563,1.074c0.586,0.261,0.813,0.586,0.684,0.977
		c-0.131,0.456-0.391,0.62-0.781,0.488l-4.297-0.195c-1.693,0-3.354,0.098-4.98,0.293l-3.027,0.195l-1.172-0.098
		c-0.651-0.064-1.172-0.064-1.563,0c-0.456,0.195-0.977,0.293-1.563,0.293c-0.651,0-1.205-0.13-1.66-0.391
		c-0.586-0.195-0.879-0.521-0.879-0.977c0-0.455,0.13-0.813,0.391-1.074c0.195-0.325,0.586-0.618,1.172-0.879
		c0.781-0.325,1.27-0.488,1.465-0.488l2.148-0.488c0.781-0.195,1.822-0.293,3.125-0.293c2.734,0,4.688,0.195,5.859,0.586
		C302.953,11.987,303.702,12.117,304.354,12.117z M309.529,43.66c0.26,0,0.455,0.163,0.586,0.488c0,0.327-0.195,0.684-0.586,1.074
		c-0.326,0.391-0.554,0.847-0.684,1.367l-0.098,1.074l0.098,1.563c0.13,1.172,0.228,1.792,0.293,1.855
		c0.195,0,0.488-0.195,0.879-0.586c0.586-0.845,0.911-1.333,0.977-1.465c0.064-0.195,0.13-0.342,0.195-0.439
		c0.064-0.098,0.13-0.179,0.195-0.244l0.293-0.586c0.455-1.106,0.684-2.181,0.684-3.223c0-0.586-0.033-0.977-0.098-1.172
		c-0.391-1.302-1.042-2.148-1.953-2.539l-0.879-0.195c-0.717,0-1.074,0.456-1.074,1.367v0.293
		C308.357,43.206,308.748,43.66,309.529,43.66z M308.748,73.543c0,1.367,0.195,2.051,0.586,2.051h0.098
		c0.325,0,1.009-0.521,2.051-1.563c1.041-1.041,1.692-1.985,1.953-2.832c0.325-0.716,0.325-1.27,0-1.66
		c-0.195-0.259-0.554-0.586-1.074-0.977c-0.456-0.259-0.944-0.391-1.465-0.391l-1.172,0.195c-0.195,0.065-0.424,0.229-0.684,0.488
		l-0.195,1.27C308.78,70.452,308.748,71.59,308.748,73.543z"/>
	<path d="M382.463,47.469c0,0-0.619,0.781-1.855,2.344l-1.758,2.344c-0.717,1.042-1.921,2.539-3.613,4.492
		c-2.019,2.604-2.995,4.102-2.93,4.492l2.734,0.195c5.143,0.065,9.31,0.327,12.5,0.781c4.297,0.586,9.961,1.042,16.992,1.367
		c2.864,0.065,4.915,0.391,6.152,0.977c0.586,0.261,0.879,0.717,0.879,1.367c0,0.261-0.098,0.651-0.293,1.172
		c-0.326,0.391-0.814,0.781-1.465,1.172h-0.586l-0.879,0.195l-0.879,0.391c-0.912,0.131-1.628,0.195-2.148,0.195l-6.348-0.586
		c-0.521-0.13-1.107-0.195-1.758-0.195l-2.734-0.391c-4.362-0.65-8.203-0.977-11.523-0.977c-0.651,0-1.042,0.261-1.172,0.781
		l-0.586,2.344c-0.261,0.781-0.326,1.367-0.195,1.758c0.064,0.065,1.009,0.456,2.832,1.172c3.711,1.237,5.566,2.409,5.566,3.516
		c0,0.391,0.098,0.781,0.293,1.172c0.064,0.065,0.098,0.261,0.098,0.586c0,0.522-0.391,1.042-1.172,1.563
		c-0.456,0.259-0.847,0.391-1.172,0.391c-0.391,0-0.651-0.261-0.781-0.781c-0.195-0.521-0.912-0.911-2.148-1.172h-0.684
		l-0.879-0.195l-1.074-0.195l-0.977-0.195l-2.344-0.586l-0.684,0.781l-0.879,0.879c-0.326,0.327-0.586,0.684-0.781,1.074
		c-1.498,1.888-3.418,3.775-5.762,5.664c-1.303,1.236-3.32,2.669-6.055,4.297c-2.409,1.172-4.135,1.692-5.176,1.563l-3.711,0.195
		h-2.246c-0.717,0-1.27-0.065-1.66-0.195c-0.521-0.131-0.781-0.261-0.781-0.391c0-0.261,0.684-0.456,2.051-0.586
		c0.846-0.065,1.953-0.327,3.32-0.781c3.775-1.172,7.291-3.386,10.547-6.641l2.246-2.539l2.637-2.93
		c0.716-0.911,1.074-1.431,1.074-1.563c-0.065-0.455-1.172-1.302-3.32-2.539c-0.521-0.391-1.074-1.041-1.66-1.953
		c-0.717-1.302-1.172-2.148-1.367-2.539c-0.326-0.781-0.651-1.236-0.977-1.367c-0.131-0.13-0.424-0.195-0.879-0.195
		c-0.521,0-1.107,0.065-1.758,0.195l-3.125,0.586c-0.261,0.261-0.814,0.391-1.66,0.391l-1.855,0.195
		c-0.847,0.195-3.256,0.456-7.227,0.781c-1.498,0.065-2.995,0.327-4.492,0.781c-0.717,0.261-1.498,0.391-2.344,0.391
		c-0.781,0-1.303-0.13-1.563-0.391c-0.391-0.13-0.586-0.455-0.586-0.977c0-0.911,0.911-1.692,2.734-2.344l2.734-0.977
		c3.32-1.431,6.836-2.344,10.547-2.734c1.172-0.064,2.408-0.259,3.711-0.586l2.93-0.586l3.32-0.195
		c0.977-0.13,1.692-0.325,2.148-0.586c0.26,0,0.586-0.259,0.977-0.781c0.455-0.521,2.539-3.516,6.25-8.984
		c1.888-2.669,3.255-4.427,4.102-5.273c1.106-0.911,1.888-1.367,2.344-1.367l0.977,0.195l-0.098,1.172h0.098
		C382.527,47.014,382.463,47.469,382.463,47.469z M376.799,7.43c2.734,0,4.134,0.131,4.199,0.391
		c0.521,0.131,0.879,0.195,1.074,0.195c0.13,0,0.455,0.065,0.977,0.195c0.195,0.131,0.781,0.391,1.758,0.781
		c0.911,0.327,1.758,0.847,2.539,1.563c0.716,0.651,1.106,1.433,1.172,2.344v0.391c0,0.586-0.131,1.108-0.391,1.563
		c-0.261,0.261-0.521,0.391-0.781,0.391c-0.195,0-0.358-0.064-0.488-0.195c-0.065-0.064-0.098-0.259-0.098-0.586
		c0-0.781-0.195-1.302-0.586-1.563c-0.326-0.195-1.433-0.455-3.32-0.781c-0.781-0.259-1.693-0.391-2.734-0.391l-2.148,0.195
		c-1.628,0.065-2.734,0.261-3.32,0.586l-1.758,0.586c-0.651,0.065-1.986,0.327-4.004,0.781c-1.953,0.456-3.027,0.847-3.223,1.172
		l-1.758,0.586c-0.326,0-1.172,0.327-2.539,0.977c-1.107,0.391-2.084,0.847-2.93,1.367c-8.659,4.558-13.542,6.836-14.648,6.836
		c-0.261,0-0.651-0.162-1.172-0.488c-0.521-0.325-0.781-0.813-0.781-1.465c0-0.521,0.064-0.845,0.195-0.977
		c0.064-0.259,0.716-0.911,1.953-1.953l3.809-2.734c1.041-0.845,1.985-1.497,2.832-1.953c3.775-1.953,6.575-3.255,8.398-3.906
		l1.758-0.586c0.391-0.391,1.692-0.911,3.906-1.563l4.98-1.172c0.977,0,1.758-0.13,2.344-0.391
		C372.925,7.495,374.52,7.43,376.799,7.43z M376.213,23.055c0.521,0,1.074,0.195,1.66,0.586c0.391,0.391,0.586,0.847,0.586,1.367
		c0,0.391-0.163,0.977-0.488,1.758c-0.261,0.456-0.391,0.847-0.391,1.172c0,0.195,0.113,0.327,0.342,0.391
		c0.228,0.065,0.504,0.065,0.83,0c0.846-0.391,1.399-0.65,1.66-0.781c0.65-0.13,1.204-0.195,1.66-0.195
		c0.521,0,1.009-0.13,1.465-0.391h0.781l2.051,0.195c1.953,0.065,3.58,0.554,4.883,1.465c1.236,0.847,1.855,1.855,1.855,3.027
		c0,1.563-0.424,2.67-1.27,3.32l-1.758,1.367c-0.781,0.651-1.53,1.172-2.246,1.563c-0.717,0.391-1.465,0.913-2.246,1.563
		c-0.847,0.651-1.367,1.172-1.563,1.563c-0.195,0.522-0.619,0.781-1.27,0.781c-0.456,0-1.01,0.261-1.66,0.781
		c-0.521,0.651-1.14,1.172-1.855,1.563c-0.651,0.327-1.107,0.651-1.367,0.977c-0.977,1.108-2.475,2.084-4.492,2.93
		c-0.521,0.327-0.814,0.586-0.879,0.781l-1.855,0.977c-1.172,0.586-1.986,0.913-2.441,0.977h-0.781c-1.042,0-2.019-0.455-2.93-1.367
		c-0.717-0.845-1.042-1.431-0.977-1.758c0-0.325,0.357-0.911,1.074-1.758c1.041-1.041,1.399-1.953,1.074-2.734
		c-0.261-0.391-0.424-0.845-0.488-1.367c-0.065-0.65-0.229-0.977-0.488-0.977l-0.098-0.098v-0.098c-0.131,0-0.358,0.261-0.684,0.781
		c-1.107,1.758-2.116,4.492-3.027,8.203c-0.261,1.172-0.847,1.758-1.758,1.758c-0.391,0-0.847-0.259-1.367-0.781
		c-0.456-0.391-0.944-0.977-1.465-1.758c-0.456-0.65-0.847-1.431-1.172-2.344l-0.488-1.367c-0.456-1.106-0.684-1.758-0.684-1.953
		c-0.781-2.734-1.205-4.297-1.27-4.688c-0.261-1.041-0.619-2.278-1.074-3.711l-0.488-1.563l0.586-0.586
		c0.455-0.259,0.879-0.391,1.27-0.391c1.041,0,1.985,0.977,2.832,2.93c0.65,1.172,1.529,3.972,2.637,8.398
		c0.26,1.367,0.488,2.148,0.684,2.344h0.098c0.26,0,0.521-0.521,0.781-1.563c0.846-2.93,2.115-5.533,3.809-7.813l0.781-1.172v-2.93
		c0-1.302-0.065-2.734-0.195-4.297c-0.065-0.195-0.098-0.552-0.098-1.074c0-0.455,0.064-0.748,0.195-0.879
		c0.325-0.391,0.846-0.586,1.563-0.586c0.846,0,1.399,0.195,1.66,0.586c0.13,0.391,0.195,0.717,0.195,0.977l-0.098,1.172
		l-0.195,1.953c0,1.042,0.195,1.758,0.586,2.148h0.195c0.391,0,0.813-0.13,1.27-0.391c1.888-0.911,2.832-1.563,2.832-1.953
		l0.195-1.563c0.26-0.325,0.488-1.041,0.684-2.148c0.391-1.692,0.943-2.734,1.66-3.125C375.432,23.12,375.822,23.055,376.213,23.055
		z M368.4,39.852c0.13,0,0.293-0.195,0.488-0.586c0.13-0.455,0.162-0.716,0.098-0.781c-0.261-0.13-0.456-0.13-0.586,0
		c-0.261,0.131-0.326,0.391-0.195,0.781C368.205,39.656,368.27,39.852,368.4,39.852z M371.33,68.953
		c1.497,0.651,2.311,0.977,2.441,0.977c0.846,0.261,1.465,0.327,1.855,0.195c0.195-0.064,0.455-0.521,0.781-1.367
		c0.325-1.106,0.423-1.692,0.293-1.758c-0.326-0.259-1.433-0.391-3.32-0.391c-2.604,0-3.906,0.195-3.906,0.586l0.195,0.391
		C369.8,67.977,370.354,68.433,371.33,68.953z M380.412,33.016c-1.498,0.391-3.354,1.172-5.566,2.344
		c-0.717,0.391-1.205,0.781-1.465,1.172l-1.367,2.344c-1.172,1.889-1.53,2.866-1.074,2.93L371.33,42
		c0.586,0,1.236-0.325,1.953-0.977c1.563-1.367,3.255-2.278,5.078-2.734c0.781-0.259,1.465-0.391,2.051-0.391
		s1.139-0.064,1.66-0.195l2.246-1.953c2.018-1.953,3.027-3.255,3.027-3.906c0-0.391-0.163-0.586-0.488-0.586
		c-1.563,0.065-3.093,0.456-4.59,1.172C381.551,32.82,380.933,33.016,380.412,33.016z"/>
	<path d="M430.783,35.262v0.391c0,0.261-0.098,0.488-0.293,0.684c-0.326,0.261-1.01,0.424-2.051,0.488
		c-1.367,0.195-2.312,0.391-2.832,0.586c-0.651,0.261-1.107,0.358-1.367,0.293h-0.293l-0.781,0.195l-0.684,0.098l-1.27-0.195
		c-0.847-0.325-1.335-0.488-1.465-0.488c-0.065,0-0.651-0.162-1.758-0.488c-0.977-0.455-1.596-1.074-1.855-1.855
		c-0.065-0.064-0.098-0.293-0.098-0.684c0-0.521,0.228-1.009,0.684-1.465l0.586-0.684h3.223c2.278,0,4.134,0.195,5.566,0.586
		C428.83,33.374,430.393,34.221,430.783,35.262z M430.197,48.348l1.465,0.781l0.684,0.488c0,0.195,0.521,1.14,1.563,2.832
		c1.432,2.409,2.148,4.428,2.148,6.055c0,0.522,0.13,0.913,0.391,1.172c0.195,0.261,2.441-1.626,6.738-5.664
		c1.041-0.977,1.725-1.302,2.051-0.977l0.098,0.098c0,0.195-0.293,0.586-0.879,1.172l-4.199,4.883
		c-1.563,1.823-2.344,2.897-2.344,3.223c0,0.065-0.358,0.554-1.074,1.465c-0.717,0.977-1.107,1.694-1.172,2.148
		c-0.131,0.456-0.554,1.14-1.27,2.051c-0.586,0.847-1.303,1.53-2.148,2.051c-1.628,1.108-2.67,2.148-3.125,3.125
		c-0.326,0.717-0.879,1.335-1.66,1.855c-0.781,0.586-1.498,0.879-2.148,0.879c-0.456,0-0.944-0.293-1.465-0.879
		c-0.456-0.455-0.684-0.911-0.684-1.367c0-0.455,0.13-0.911,0.391-1.367c0.26-0.521,0.553-0.845,0.879-0.977l3.32-3.027
		c1.497-1.431,2.441-2.571,2.832-3.418c0.65-1.302,0.977-2.896,0.977-4.785c0-3.06-0.586-5.533-1.758-7.422
		c-0.521-0.781-1.042-1.172-1.563-1.172c-0.456,0-0.781,0.131-0.977,0.391c-0.456,0.261-0.977,1.074-1.563,2.441
		c-0.781,1.889-1.237,3.061-1.367,3.516l-0.293,1.953c0,0.131,0.032,0.195,0.098,0.195c0.13,0,0.618-0.455,1.465-1.367
		c2.018-2.212,3.58-3.06,4.688-2.539c0.391,0.065,0.586,0.456,0.586,1.172c0,0.717-0.131,1.206-0.391,1.465
		c-0.326,0.327-0.619,0.847-0.879,1.563c-0.326,0.651-0.586,1.074-0.781,1.27l-0.879,1.367c-0.912,1.499-2.051,2.573-3.418,3.223
		l-0.586,0.488l-0.195,1.66c0,0.717-0.033,1.14-0.098,1.27c-0.065,0.261-0.131,0.424-0.195,0.488
		c-0.065,0.065-0.229,0.098-0.488,0.098h-0.195c-0.326,0-0.717-0.13-1.172-0.391c-0.456-0.259-0.977-0.977-1.563-2.148
		c-0.717-1.106-1.205-2.246-1.465-3.418c-0.977-3.516-1.53-6.216-1.66-8.105l-0.098-2.148c0-0.195,0.162-0.455,0.488-0.781
		c0.325-0.391,0.586-0.586,0.781-0.586c0.064,0,0.455,0.261,1.172,0.781c0.716,0.456,1.106,0.847,1.172,1.172
		c0.26,0.456,0.455,0.684,0.586,0.684c0.13,0,0.293-0.293,0.488-0.879c0.13-0.586,0.455-1.367,0.977-2.344
		c0.781-1.236,1.334-2.017,1.66-2.344c0.846-0.845,1.497-1.367,1.953-1.563c0.65-0.455,1.172-0.684,1.563-0.684l1.074,0.195
		C429.578,47.991,430.066,48.218,430.197,48.348z M462.229,27.547c0.846,0.391,1.92,1.335,3.223,2.832
		c1.106,1.499,1.725,2.409,1.855,2.734c0.13,0.456,0.943,1.53,2.441,3.223c1.106,1.172,2.278,3.159,3.516,5.957l1.172,2.539v3.711
		c0,2.475-0.195,4.265-0.586,5.371c-0.391,1.042-0.684,1.726-0.879,2.051c-0.261,0.195-0.586,0.781-0.977,1.758
		c-0.456,0.847-0.684,1.465-0.684,1.855c0,0.131,0.195,0.586,0.586,1.367c0.325,0.717,0.521,1.596,0.586,2.637
		c0,0.327,0.064,1.01,0.195,2.051l0.195,0.879c0,0.717-0.131,1.303-0.391,1.758c-0.195,0.522-0.424,0.815-0.684,0.879
		c-0.261,0.261-0.586,0.391-0.977,0.391c-0.456,0-0.717-0.13-0.781-0.391c-0.195-0.195-0.326-0.684-0.391-1.465
		c-0.065-0.977-0.293-1.66-0.684-2.051c-0.326-0.259-0.586-0.391-0.781-0.391c-0.261,0-0.554,0.261-0.879,0.781
		c-0.651,1.172-1.465,2.246-2.441,3.223c-0.586,0.586-0.944,1.14-1.074,1.66c-0.261,0.847-1.01,1.563-2.246,2.148
		c-1.237,0.651-2.214,0.847-2.93,0.586c-0.586-0.391-1.4-1.399-2.441-3.027c-0.912-1.692-1.53-3.353-1.855-4.98l-0.195-1.66
		c0-0.586,0.098-0.879,0.293-0.879s0.943,1.335,2.246,4.004c0.521,1.172,0.943,1.823,1.27,1.953l0.586,0.195
		c0.455,0,1.009-0.423,1.66-1.27l1.66-1.855c0.65-0.781,1.139-1.529,1.465-2.246l1.172-1.855c0.325-0.521,0.488-0.977,0.488-1.367
		c-0.065-0.325-0.749-1.041-2.051-2.148c-0.977-0.845-2.019-1.563-3.125-2.148c-0.261-0.13-1.107-0.781-2.539-1.953
		c-1.237-1.172-2.051-1.758-2.441-1.758h-0.293c-0.326,0-0.717,0.163-1.172,0.488c-0.781,0.717-1.27,0.749-1.465,0.098
		c-0.261-0.716-0.391-1.27-0.391-1.66c0-0.65,0.195-1.302,0.586-1.953l0.586-0.879c0.13-0.13,0.488-0.162,1.074-0.098
		c0.846,0.065,2.701,0.749,5.566,2.051c2.864,1.303,5.208,2.734,7.031,4.297c0.65,0.651,1.106,0.977,1.367,0.977
		c0.064,0,0.325-0.586,0.781-1.758c0.455-0.977,0.716-1.758,0.781-2.344l0.488-1.758c0.325-0.521,0.521-1.497,0.586-2.93v-0.684
		c0-0.977-0.163-1.888-0.488-2.734c-0.195-0.977-0.619-1.953-1.27-2.93c-0.651-1.041-1.205-1.758-1.66-2.148
		c-0.131-0.13-0.326-0.455-0.586-0.977l-1.953-2.539c-1.628-2.017-2.604-3.45-2.93-4.297c-0.326-0.716-0.684-1.138-1.074-1.27
		c-0.131-0.064-0.391-0.098-0.781-0.098c-0.717,0-1.498,0.261-2.344,0.781c-0.586,0.131-0.912,0.163-0.977,0.098
		c-0.326,0-0.488-0.162-0.488-0.488c0-0.195,0.13-0.423,0.391-0.684l0.879-0.977c0.26-0.259,0.455-0.423,0.586-0.488l0.488-0.293
		c0.65-0.455,1.27-0.684,1.855-0.684C460.764,26.831,461.512,27.092,462.229,27.547z"/>
	<path d="M506.889,16.609c0,0,0.098,0.586,0.293,1.758h0.293c0.391,0,1.139-0.13,2.246-0.391c5.013-1.563,8.951-2.344,11.816-2.344
		c0.325,0,1.074,0.065,2.246,0.195c0.716,0.131,1.106,0.327,1.172,0.586c0.13,0.131-0.065,0.327-0.586,0.586l-4.688,2.148
		l-3.418,1.563c-0.912,0.586-1.953,1.108-3.125,1.563c-3.125,1.108-4.785,1.758-4.98,1.953l-0.098,0.977l0.098,1.953l0.879,14.063
		c0.325,6.706,0.586,10.156,0.781,10.352c0.13,0.131,0.684-0.325,1.66-1.367c2.344-2.474,3.971-4.102,4.883-4.883
		c1.627-1.302,2.669-1.953,3.125-1.953c0.391,0,0.586,0.131,0.586,0.391c0,0.195-0.358,0.847-1.074,1.953l-0.879,1.172
		c-0.391,0.261-0.912,0.977-1.563,2.148c-0.781,1.367-2.148,3.125-4.102,5.273c-0.977,1.108-1.791,2.148-2.441,3.125
		c-0.261,0.717-0.293,1.172-0.098,1.367c0.064,0.456,1.236,1.172,3.516,2.148c1.236,0.522,1.985,0.913,2.246,1.172
		c0.455,0.391,0.781,0.586,0.977,0.586c0.325,0,1.725,0.651,4.199,1.953L525.639,67l2.051,0.977l1.172,0.391
		c0.195,0,0.521,0.131,0.977,0.391l2.734,1.172c1.953,0.847,3.092,1.367,3.418,1.563l4.199,1.953
		c4.361,2.019,6.868,3.256,7.52,3.711c0.455,0.391,0.65,0.913,0.586,1.563l-0.391,1.172l-1.855,0.195h-0.977h-1.465L541.85,79.5
		c-2.604-0.716-6.088-2.083-10.449-4.102l-2.93-1.367c-0.456-0.064-0.879-0.195-1.27-0.391l-3.516-1.953l-3.125-1.367
		c-0.131,0-0.424-0.13-0.879-0.391c-2.214-1.497-4.037-2.669-5.469-3.516c-0.977-0.455-1.498-0.781-1.563-0.977
		c-0.717-0.455-1.14-0.716-1.27-0.781l-0.977-0.586l-0.488,0.586c-0.131,0.391-0.261,1.303-0.391,2.734
		c-0.065,0.327-0.098,1.042-0.098,2.148c0,0.586,0.032,0.913,0.098,0.977c0.195,0.391,0.293,2.019,0.293,4.883v3.32
		c0,4.688-0.229,8.072-0.684,10.156c-0.521,3.125-1.921,4.688-4.199,4.688c-0.781,0-1.303-0.131-1.563-0.391
		c-0.456-0.391-0.651-0.781-0.586-1.172c0-0.391,0.26-0.522,0.781-0.391c0.586,0,0.911-0.195,0.977-0.586
		c0.13-0.651,0.195-2.28,0.195-4.883l-0.098-8.203c-0.065-8.138-0.261-12.369-0.586-12.695c-0.131-0.13-0.391-0.064-0.781,0.195
		c-0.131,0-0.684,0.522-1.66,1.563c-0.456,0.391-1.14,1.172-2.051,2.344c-1.693,2.148-3.679,4.362-5.957,6.641
		c-2.8,2.995-4.265,4.492-4.395,4.492c-0.261,0-0.651-0.195-1.172-0.586c-0.456-0.261-0.684-0.521-0.684-0.781
		c-0.261-1.041,1.888-3.906,6.445-8.594c1.627-1.626,3.189-3.32,4.688-5.078l3.613-4.297c0.716-0.911,1.074-1.563,1.074-1.953
		s0.195-0.716,0.586-0.977l0.586-0.586l-0.098-4.883c-0.065-5.337-0.261-8.203-0.586-8.594h-0.391l-0.781,0.195
		c-0.651,0.131-1.205,0.195-1.66,0.195c-1.563,0-3.158-0.521-4.785-1.563c-0.977-0.521-1.855-1.106-2.637-1.758
		c-0.847-0.845-1.4-1.236-1.66-1.172c-0.326,0.327-0.814,1.433-1.465,3.32c-0.781,2.409-1.465,3.842-2.051,4.297
		c-0.261,0.261-0.554,0.391-0.879,0.391c-0.521,0-0.912-0.13-1.172-0.391c-0.391-0.391-0.586-1.172-0.586-2.344
		c0-2.017,0.586-4.427,1.758-7.227l0.879-3.32l0.781-2.539l-0.586-0.586c-0.326-0.259-1.042-0.325-2.148-0.195H485.6
		c-0.781,0-1.4-0.13-1.855-0.391c-0.651-0.259-0.977-0.781-0.977-1.563c0-1.302,0.781-2.148,2.344-2.539l0.879-0.391l0.977-0.391
		l1.855-0.781l2.051-0.977c0.455-0.259,0.879-0.391,1.27-0.391l4.297-1.563l1.66-0.586c0.26,0,1.009-0.259,2.246-0.781
		c1.172-0.391,1.92-0.781,2.246-1.172c0.13-0.391,0.195-0.716,0.195-0.977l-0.098-0.977c-0.131-1.431-0.195-2.278-0.195-2.539
		c0-1.563,0.195-3.32,0.586-5.273c0.13-1.172,0.423-1.953,0.879-2.344c0.325-0.391,0.65-0.586,0.977-0.586
		c0.325,0,0.748,0.261,1.27,0.781l0.684,0.781v3.32C506.889,15.112,506.889,16.609,506.889,16.609z M495.658,29.5
		c-1.107,0.391-1.791,0.651-2.051,0.781c-0.586,0.391-0.944,1.042-1.074,1.953c-0.065,0.261-0.098,0.781-0.098,1.563
		c0,0.522,0.064,1.042,0.195,1.563c0.195,0.781,0.553,1.172,1.074,1.172c0.455,0,1.139,0.327,2.051,0.977
		c1.367,0.913,2.246,1.563,2.637,1.953c1.041,1.042,1.627,1.563,1.758,1.563c0,0.131,0.064,0.195,0.195,0.195h0.391h0.586
		c0.26,0.131,0.553,0.195,0.879,0.195c0.325,0,0.618-0.064,0.879-0.195l0.781-0.195l-0.098-2.148l-0.293-4.883v-2.734l-0.195-2.344
		c0-1.563-0.163-2.344-0.488-2.344c-0.586-0.13-2.148,0.456-4.688,1.758C497.448,28.719,496.635,29.109,495.658,29.5z
		 M521.537,29.305c0,0.391-0.229,0.781-0.684,1.172c-0.586,0.391-1.042,1.042-1.367,1.953c-0.261,0.781-0.358,1.499-0.293,2.148
		c0.26,0.391,0.586,0.717,0.977,0.977l1.465,0.977c0.521,0.327,1.041,0.522,1.563,0.586c0.846,0.065,1.563,0.391,2.148,0.977
		c0.26,0.261,0.391,0.586,0.391,0.977c0,0.131-0.065,0.456-0.195,0.977c-0.326,0.847-1.335,1.303-3.027,1.367
		c-1.042,0.065-1.628,0.065-1.758,0c-0.521-0.064-1.107-0.325-1.758-0.781l-0.879-0.391l-0.586-0.391l-0.488-0.586l-0.977-1.367
		c-0.717-1.302-1.074-2.344-1.074-3.125c0-1.563,0.455-3.189,1.367-4.883c0.391-0.65,0.943-1.172,1.66-1.563
		c0.781-0.391,1.399-0.586,1.855-0.586c0.455,0,0.813,0.131,1.074,0.391C521.342,28.523,521.537,28.914,521.537,29.305z"/>
	<path d="M574.689,63.484c0,0-0.033,0.229-0.098,0.684c-0.261,3.516-0.521,5.762-0.781,6.738c-0.261,1.237-0.944,2.734-2.051,4.492
		c-0.651,1.172-1.335,1.855-2.051,2.051c-0.131,0.065-0.554,0.098-1.27,0.098c-0.847,0-1.53-0.064-2.051-0.195
		c-0.456-0.13-0.717-0.259-0.781-0.391l-1.758-1.27c-1.953-1.302-2.734-2.441-2.344-3.418c0.195-0.195,0.423-0.325,0.684-0.391
		l0.586,0.293c0,0.065,0.455,0.261,1.367,0.586c0.586,0.261,1.074,0.391,1.465,0.391c0.846,0,1.563-0.391,2.148-1.172
		c0.26-0.259,0.553-0.813,0.879-1.66l0.879-2.246c0.195-0.325,0.357-0.845,0.488-1.563v-0.195c0.064-0.845,0.195-1.431,0.391-1.758
		c0.13-0.65,0.195-1.79,0.195-3.418c0-2.017-0.293-3.809-0.879-5.371c-0.586-2.278-1.303-3.938-2.148-4.98
		c-1.042-1.367-2.214-1.985-3.516-1.855c-0.847,0-1.53-0.195-2.051-0.586c-0.586-0.521-0.847-1.009-0.781-1.465
		c0-0.391,0.26-1.106,0.781-2.148c0.65-0.716,0.977-1.236,0.977-1.563L563.459,42l0.879-2.148c1.041-2.212,1.692-3.809,1.953-4.785
		c0.325-1.172,0.325-1.822,0-1.953h-0.195c-0.131,0-0.586,0.163-1.367,0.488c-0.651,0.391-1.498,0.977-2.539,1.758l-0.684,0.684
		l-0.488,0.488l-0.684,0.586l-3.516,3.125c-1.237,1.172-2.312,2.312-3.223,3.418c-0.717,0.781-1.27,1.172-1.66,1.172
		c-0.977,0-1.628-0.357-1.953-1.074c-0.195-0.521-0.293-1.009-0.293-1.465c0-0.977,0.228-1.888,0.684-2.734
		c0.325-0.716,0.781-1.367,1.367-1.953c0.586-0.65,0.977-1.236,1.172-1.758c0.325-0.586,1.172-1.367,2.539-2.344l4.199-3.125
		c0.65-0.455,1.725-0.943,3.223-1.465c0.195-0.064,0.586-0.098,1.172-0.098c0.911,0,1.953,0.098,3.125,0.293
		c0.65,0.131,1.106,0.391,1.367,0.781l0.684,1.172c0.455,0.391,0.684,1.433,0.684,3.125c-0.065,1.758-0.326,3.125-0.781,4.102
		l-0.977,2.344l-1.172,2.637l-0.195,0.488l-0.586,1.367c0.13-0.13,0.26-0.098,0.391,0.098l0.391,0.195
		c0.521,0.195,1.399,0.913,2.637,2.148c1.432,1.433,2.278,2.441,2.539,3.027c0.846,1.758,1.595,4.297,2.246,7.617
		c0.13,0.913,0.195,1.953,0.195,3.125l0.098-0.195C574.689,62.703,574.689,63.484,574.689,63.484z"/>
	<path d="M596.943,62.508c0.26,0,0.684,0.293,1.27,0.879c0.586,0.456,0.943,1.14,1.074,2.051v0.586c0,0.586-0.033,0.913-0.098,0.977
		c-0.195,0.327-0.651,0.586-1.367,0.781c-0.065,0.065-0.293,0.098-0.684,0.098c-0.651,0-1.205-0.13-1.66-0.391
		c-1.042-0.65-1.823-1.204-2.344-1.66c-0.651-0.716-1.042-1.497-1.172-2.344v-0.391c0-0.65,0.13-1.106,0.391-1.367
		c0.521-0.325,0.943-0.488,1.27-0.488c0.521,0,1.139,0.229,1.855,0.684C596.129,62.313,596.617,62.508,596.943,62.508z
		 M599.678,31.355c1.041,0.651,1.563,1.792,1.563,3.418c0,1.694-0.456,4.069-1.367,7.129c-0.521,1.303-0.879,2.409-1.074,3.32
		c-0.847,3.19-1.596,4.948-2.246,5.273l-0.391,0.195c-0.261,0-0.488-0.162-0.684-0.488c-0.261-0.455-0.358-1.985-0.293-4.59v-5.371
		c0-1.041,0.195-2.083,0.586-3.125c0.391-1.106,0.586-2.017,0.586-2.734c0-1.236,0.26-2.212,0.781-2.93
		c0.325-0.325,0.716-0.488,1.172-0.488C598.961,30.965,599.417,31.096,599.678,31.355z"/>
</g>
</svg>
